<svg id="Layer_1" data-name="Layer 1" xmlns="http://www.w3.org/2000/svg" viewBox="0 0 165 255"><path d="M165,36v4c-1.78,2.17-3.4,4.52-5.38,6.5q-38.06,38.16-76.18,76.25c-1.48,1.48-2.85,3.08-4.46,4.83,1.73,1.82,3.06,3.28,4.45,4.67q38.1,38.13,76.19,76.25c2,2,3.6,4.33,5.38,6.5v4c-1.55,2.12-2.86,4.47-4.68,6.32Q147.78,238.13,135,250.67a48.26,48.26,0,0,1-6,4.33h-4a78.69,78.69,0,0,1-7-5.58Q62.55,194.07,7.18,138.6C4.71,136.14,2.39,133.54,0,131v-7c1.57-1.71,3.07-3.49,4.71-5.13Q61.51,62,118.4,5.22A70.08,70.08,0,0,1,125,0h5q16.42,16.11,32.81,32.25C163.8,33.24,164.28,34.74,165,36Z" style="fill:#999b9e"/></svg>