<svg id="Layer_1" data-name="Layer 1" xmlns="http://www.w3.org/2000/svg" viewBox="0 0 255 165"><path d="M35,0h6c2.14,1.83,4.42,3.52,6.41,5.51Q85.59,43.6,123.63,81.86c3.49,3.54,5.34,3.18,8.63-.14q38-38.34,76.24-76.34c2-2,4.32-3.59,6.5-5.38h5a30.15,30.15,0,0,1,4,2.9Q239.57,18.4,255,34v7c-1.33,1.48-2.6,3-4,4.43Q193.48,103,135.89,160.49A54.58,54.58,0,0,1,130,165h-5c-1.75-1.51-3.61-2.92-5.24-4.55Q62.39,103.14,5.11,45.72C3,43.58,1.68,40.59,0,38V37c1-1.89,1.65-4.15,3.09-5.6C13.64,20.84,24.34,10.45,35,0Z" style="fill:#8c8e90"/></svg>