<?xml version="1.0" encoding="UTF-8"?>
<svg xmlns="http://www.w3.org/2000/svg" xmlns:xlink="http://www.w3.org/1999/xlink" viewBox="0 0 200 100" preserveAspectRatio="xMidYMid meet" version="1.1">
  <path class="sntl_519" d="M200 95.6 L200 95.6"/>
  <path class="sntl_672" d="M200 55.3 L200 55.3"/>
  <path class="sntl_1000" d="M200 66.8 L200 66.8"/>
  <path class="sntl_1001" d="M200 59.2 L200 59.2"/>
  <path class="sntl_1003" d="M200 85.5 L200 85.5"/>
  <path class="sntl_1005" d="M200 86.8 L200 86.8"/>
  <path class="sntl_1006" d="M200 87.9 L200 87.9"/>
  <path class="sntl_1008" d="M200 89.7 L200 89.7"/>
  <path class="sntl_1009" d="M200 89.9 L200 89.9"/>
  <path class="sntl_1010" d="M200 89.3 L200 89.3"/>
  <path class="sntl_1011" d="M200 35.3 L200 35.3"/>
  <path class="sntl_1012" d="M200 22.1 L200 22.1"/>
  <path class="sntl_1013" d="M200 88.8 L200 88.8"/>
  <path class="sntl_1014" d="M200 90.5 L200 90.5"/>
  <path class="sntl_1015" d="M200 83.4 L200 83.4"/>
  <path class="sntl_1016" d="M200 90.1 L200 90.1"/>
  <path class="sntl_1017" d="M200 91 L200 91"/>
  <path class="sntl_1030" d="M200 80.5 L200 80.5"/>
  <path class="sntl_1031" d="M200 83.3 L200 83.3"/>
  <path class="sntl_1032" d="M200 89 L200 89"/>
  <path class="sntl_1033" d="M200 78.2 L200 78.2"/>
  <path class="sntl_1034" d="M200 98.7 L200 98.7"/>
  <path class="sntl_1035" d="M200 92.4 L200 92.4"/>
  <path class="sntl_1039" d="M200 86.5 L200 86.5"/>
  <path class="sntl_1040" d="M200 90.6 L200 90.6"/>
  <path class="sntl_1041" d="M200 91.9 L200 91.9"/>
  <path class="sntl_1042" d="M200 86.3 L200 86.3"/>
  <path class="sntl_1043" d="M200 90 L200 90"/>
  <path class="sntl_1044" d="M200 98.4 L200 98.4"/>
  <path class="sntl_1045" d="M200 94.5 L200 94.5"/>
  <path class="sntl_1046" d="M200 81.8 L200 81.8"/>
  <path class="sntl_1047" d="M200 78.3 L200 78.3"/>
  <path class="sntl_1048" d="M200 97.3 L200 97.3"/>
  <path class="sntl_1049" d="M200 76.2 L200 76.2"/>
  <path class="sntl_1050" d="M200 85.5 L200 85.5"/>
  <path class="sntl_1051" d="M200 82.9 L200 82.9"/>
  <path class="sntl_1052" d="M200 86.5 L200 86.5"/>
  <path class="sntl_1053" d="M200 94.7 L200 94.7"/>
  <path class="sntl_1054" d="M200 85.9 L200 85.9"/>
  <path class="sntl_1055" d="M200 80.8 L200 80.8"/>
  <path class="sntl_1056" d="M200 87.1 L200 87.1"/>
  <path class="sntl_1057" d="M200 96.1 L200 96.1"/>
  <path class="sntl_1058" d="M200 92.7 L200 92.7"/>
  <path class="sntl_1059" d="M200 94.5 L200 94.5"/>
  <path class="sntl_1060" d="M200 88.2 L200 88.2"/>
  <path class="sntl_1061" d="M200 90.5 L200 90.5"/>
  <path class="sntl_1062" d="M200 82.6 L200 82.6"/>
  <path class="sntl_1065" d="M200 94.7 L200 94.7"/>
  <path class="sntl_1066" d="M200 91.8 L200 91.8"/>
  <path class="sntl_1067" d="M200 80 L200 80"/>
  <path class="sntl_1068" d="M200 57.5 L200 57.5"/>
  <path class="sntl_1069" d="M200 66.7 L200 66.7"/>
  <path class="sntl_1070" d="M200 87.6 L200 87.6"/>
  <path class="sntl_1072" d="M200 92.5 L200 92.5"/>
  <path class="sntl_1073" d="M200 74.3 L200 74.3"/>
  <path class="sntl_1077" d="M200 84.9 L200 84.9"/>
  <path class="sntl_1078" d="M200 84.3 L200 84.3"/>
  <path class="sntl_1079" d="M200 54.2 L200 54.2"/>
  <path class="sntl_1080" d="M200 39.7 L200 39.7"/>
  <path class="sntl_1081" d="M200 78.5 L200 78.5"/>
  <path class="sntl_1082" d="M200 66.1 L200 66.1"/>
  <path class="sntl_1083" d="M200 97.4 L200 97.4"/>
  <path class="sntl_1084" d="M200 98.9 L200 98.9"/>
  <path class="sntl_1085" d="M200 35.6 L200 35.6"/>
  <path class="sntl_1089" d="M200 85.4 L200 85.4"/>
  <path class="sntl_1091" d="M200 87.2 L200 87.2"/>
  <path class="sntl_1092" d="M200 79.2 L200 79.2"/>
  <path class="sntl_1093" d="M200 96.7 L200 96.7"/>
  <path class="sntl_1094" d="M200 93.2 L200 93.2"/>
  <path class="sntl_1096" d="M200 92.3 L200 92.3"/>
  <path class="sntl_1097" d="M200 93.5 L200 93.5"/>
  <path class="sntl_1098" d="M200 81.4 L200 81.4"/>
  <path class="sntl_1099" d="M200 92.6 L200 92.6"/>
  <path class="sntl_1100" d="M200 90.9 L200 90.9"/>
  <path class="sntl_1101" d="M200 88 L200 88"/>
  <path class="sntl_1102" d="M200 87.7 L200 87.7"/>
  <path class="sntl_1103" d="M200 68 L200 68"/>
  <path class="sntl_1105" d="M200 94.8 L200 94.8"/>
  <path class="sntl_1106" d="M200 84 L200 84"/>
  <path class="sntl_1107" d="M200 34 L200 34"/>
  <path class="sntl_1109" d="M200 95 L200 95"/>
  <path class="sntl_1110" d="M200 96.9 L200 96.9"/>
  <path class="sntl_1111" d="M200 96.3 L200 96.3"/>
  <path class="sntl_1112" d="M200 95.4 L200 95.4"/>
  <path class="sntl_1113" d="M200 91.6 L200 91.6"/>
  <path class="sntl_1114" d="M200 87.6 L200 87.6"/>
  <path class="sntl_1115" d="M200 85.2 L200 85.2"/>
  <path class="sntl_1116" d="M200 94.8 L200 94.8"/>
  <path class="sntl_1117" d="M200 87.6 L200 87.6"/>
  <path class="sntl_1118" d="M200 95.1 L200 95.1"/>
  <path class="sntl_1119" d="M200 73.1 L200 73.1"/>
  <path class="sntl_1120" d="M200 82.2 L200 82.2"/>
  <path class="sntl_1121" d="M200 97.4 L200 97.4"/>
  <path class="sntl_1122" d="M200 88.1 L200 88.1"/>
  <path class="sntl_1124" d="M200 92.6 L200 92.6"/>
  <path class="sntl_1125" d="M200 92.4 L200 92.4"/>
  <path class="sntl_1126" d="M200 66.1 L200 66.1"/>
  <path class="sntl_1127" d="M200 99.1 L200 99.1"/>
  <path class="sntl_1128" d="M200 88.5 L200 88.5"/>
  <path class="sntl_1129" d="M200 86.2 L200 86.2"/>
  <path class="sntl_1130" d="M200 94.6 L200 94.6"/>
  <path class="sntl_1131" d="M200 89.1 L200 89.1"/>
  <path class="sntl_1132" d="M200 93.6 L200 93.6"/>
  <path class="sntl_1133" d="M200 92 L200 92"/>
  <path class="sntl_1134" d="M200 92.1 L200 92.1"/>
  <path class="sntl_1135" d="M200 93.7 L200 93.7"/>
  <path class="sntl_1136" d="M200 86.1 L200 86.1"/>
  <path class="sntl_1137" d="M200 92.4 L200 92.4"/>
  <path class="sntl_1138" d="M200 99.6 L200 99.6"/>
  <path class="sntl_1139" d="M200 97 L200 97"/>
  <path class="sntl_1140" d="M200 88.7 L200 88.7"/>
  <path class="sntl_1141" d="M200 87.5 L200 87.5"/>
  <path class="sntl_1142" d="M200 89.3 L200 89.3"/>
  <path class="sntl_1143" d="M200 93.3 L200 93.3"/>
  <path class="sntl_1144" d="M200 90.5 L200 90.5"/>
  <path class="sntl_1145" d="M200 91.2 L200 91.2"/>
  <path class="sntl_1146" d="M200 92.1 L200 92.1"/>
  <path class="sntl_1147" d="M200 90 L200 90"/>
  <path class="sntl_1148" d="M200 95.9 L200 95.9"/>
  <path class="sntl_1149" d="M200 91.4 L200 91.4"/>
  <path class="sntl_1150" d="M200 93.5 L200 93.5"/>
  <path class="sntl_1151" d="M200 86.8 L200 86.8"/>
  <path class="sntl_1152" d="M200 90.9 L200 90.9"/>
  <path class="sntl_1153" d="M200 88.3 L200 88.3"/>
  <path class="sntl_1154" d="M200 87.1 L200 87.1"/>
  <path class="sntl_1155" d="M200 97.1 L200 97.1"/>
  <path class="sntl_1156" d="M200 93.8 L200 93.8"/>
  <path class="sntl_1158" d="M200 92 L200 92"/>
  <path class="sntl_1159" d="M200 87.1 L200 87.1"/>
  <path class="sntl_1160" d="M200 83.7 L200 83.7"/>
  <path class="sntl_1161" d="M200 88.2 L200 88.2"/>
  <path class="sntl_1162" d="M200 92.9 L200 92.9"/>
  <path class="sntl_1163" d="M200 90 L200 90"/>
  <path class="sntl_1164" d="M200 82.9 L200 82.9"/>
  <path class="sntl_1166" d="M200 48.3 L200 48.3"/>
  <path class="sntl_1167" d="M200 92.4 L200 92.4"/>
  <path class="sntl_1168" d="M200 82.9 L200 82.9"/>
  <path class="sntl_1169" d="M200 91 L200 91"/>
  <path class="sntl_1170" d="M200 93.9 L200 93.9"/>
  <path class="sntl_1171" d="M200 62.8 L200 62.8"/>
  <path class="sntl_1172" d="M200 92.1 L200 92.1"/>
  <path class="sntl_1173" d="M200 94.9 L200 94.9"/>
  <path class="sntl_1175" d="M200 94.7 L200 94.7"/>
  <path class="sntl_1182" d="M200 95.6 L200 95.6"/>
  <path class="sntl_1184" d="M200 91.8 L200 91.8"/>
  <path class="sntl_1185" d="M200 84.6 L200 84.6"/>
  <path class="sntl_1186" d="M200 83.5 L200 83.5"/>
  <path class="sntl_1187" d="M200 83.5 L200 83.5"/>
  <path class="sntl_1188" d="M200 91 L200 91"/>
  <path class="sntl_1189" d="M200 96.6 L200 96.6"/>
  <path class="sntl_1192" d="M200 87.4 L200 87.4"/>
  <path class="sntl_1194" d="M200 88.9 L200 88.9"/>
  <path class="sntl_1195" d="M200 92.4 L200 92.4"/>
  <path class="sntl_1196" d="M200 63 L200 63"/>
  <path class="sntl_1197" d="M200 92.8 L200 92.8"/>
  <path class="sntl_1207" d="M200 100 L200 100"/>
  <path class="sntl_1212" d="M200 96.1 L200 96.1"/>
  <path class="sntl_1214" d="M200 93.2 L200 93.2"/>
  <path class="sntl_1215" d="M200 91.1 L200 91.1"/>
  <path class="sntl_1216" d="M200 82.7 L200 82.7"/>
  <path class="sntl_1217" d="M200 91.7 L200 91.7"/>
  <path class="sntl_1221" d="M200 88.6 L200 88.6"/>
  <path class="sntl_1222" d="M200 83.7 L200 83.7"/>
  <path class="sntl_1223" d="M200 91.7 L200 91.7"/>
  <path class="sntl_1224" d="M200 81.4 L200 81.4"/>
  <path class="sntl_1225" d="M200 89 L200 89"/>
  <path class="sntl_1226" d="M200 89.5 L200 89.5"/>
  <path class="sntl_1227" d="M200 92.6 L200 92.6"/>
  <path class="sntl_1228" d="M200 90.7 L200 90.7"/>
  <path class="sntl_1231" d="M200 92 L200 92"/>
  <path class="sntl_1236" d="M200 94.6 L200 94.6"/>
  <path class="sntl_1242" d="M200 93.6 L200 93.6"/>
  <path class="sntl_1243" d="M200 95 L200 95"/>
  <path class="sntl_1244" d="M200 88 L200 88"/>
  <path class="sntl_1247" d="M200 88.8 L200 88.8"/>
  <path class="sntl_1248" d="M200 92.2 L200 92.2"/>
  <path class="sntl_1249" d="M200 91.9 L200 91.9"/>
  <path class="sntl_1251" d="M200 79.7 L200 79.7"/>
  <path class="sntl_1252" d="M200 85.2 L200 85.2"/>
  <path class="sntl_1254" d="M200 89.4 L200 89.4"/>
  <path class="sntl_1256" d="M200 87.8 L200 87.8"/>
  <path class="sntl_1257" d="M200 50.9 L200 50.9"/>
  <path class="sntl_1258" d="M200 93.7 L200 93.7"/>
  <path class="sntl_1259" d="M200 89.2 L200 89.2"/>
  <path class="sntl_1260" d="M200 95.9 L200 95.9"/>
  <path class="sntl_1261" d="M200 94.5 L200 94.5"/>
  <path class="sntl_1262" d="M200 97.2 L200 97.2"/>
  <path class="sntl_1263" d="M200 58 L200 58"/>
  <path class="sntl_1267" d="M200 90 L200 90"/>
  <path class="sntl_1268" d="M200 93.2 L200 93.2"/>
  <path class="sntl_1269" d="M200 95.2 L200 95.2"/>
  <path class="sntl_1270" d="M200 76.7 L200 76.7"/>
  <path class="sntl_1271" d="M200 91.3 L200 91.3"/>
  <path class="sntl_1272" d="M200 94.4 L200 94.4"/>
  <path class="sntl_1275" d="M200 95.9 L200 95.9"/>
  <path class="sntl_1277" d="M200 90.8 L200 90.8"/>
  <path class="sntl_1278" d="M200 87.2 L200 87.2"/>
  <path class="sntl_1280" d="M200 86.6 L200 86.6"/>
  <path class="sntl_1285" d="M200 63.1 L200 63.1"/>
  <path class="sntl_1286" d="M200 72.3 L200 72.3"/>
  <path class="sntl_1287" d="M200 91.3 L200 91.3"/>
  <path class="sntl_2029" d="M200 92.4 L200 92.4"/>
  <path class="sntl_2170" d="M200 97.3 L200 97.3"/>
  <path class="sntl_301" d="M200 85.7 L200 85.7"/>
  <path class="sntl_303" d="M200 92.1 L200 92.1"/>
  <path class="sntl_304" d="M200 81.5 L200 81.5"/>
  <path class="sntl_306" d="M200 76.9 L200 76.9"/>
  <path class="sntl_307" d="M200 70.1 L200 70.1"/>
  <path class="sntl_308" d="M200 94.6 L200 94.6"/>
  <path class="sntl_309" d="M200 84.9 L200 84.9"/>
  <path class="sntl_310" d="M200 97.9 L200 97.9"/>
  <path class="sntl_311" d="M200 86.7 L200 86.7"/>
  <path class="sntl_312" d="M200 78.4 L200 78.4"/>
  <path class="sntl_313" d="M200 88.1 L200 88.1"/>
  <path class="sntl_314" d="M200 84.3 L200 84.3"/>
  <path class="sntl_315" d="M200 94.5 L200 94.5"/>
  <path class="sntl_316" d="M200 90.2 L200 90.2"/>
  <path class="sntl_317" d="M200 91.6 L200 91.6"/>
  <path class="sntl_318" d="M200 94.2 L200 94.2"/>
  <path class="sntl_319" d="M200 81.3 L200 81.3"/>
  <path class="sntl_320" d="M200 91 L200 91"/>
  <path class="sntl_321" d="M200 83.9 L200 83.9"/>
  <path class="sntl_322" d="M200 83.1 L200 83.1"/>
  <path class="sntl_323" d="M200 57.8 L200 57.8"/>
  <path class="sntl_324" d="M200 77.1 L200 77.1"/>
  <path class="sntl_325" d="M200 91.4 L200 91.4"/>
  <path class="sntl_326" d="M200 80.2 L200 80.2"/>
  <path class="sntl_327" d="M200 81.6 L200 81.6"/>
  <path class="sntl_328" d="M200 87.8 L200 87.8"/>
  <path class="sntl_329" d="M200 91 L200 91"/>
  <path class="sntl_330" d="M200 93.9 L200 93.9"/>
  <path class="sntl_331" d="M200 85.6 L200 85.6"/>
  <path class="sntl_332" d="M200 74.2 L200 74.2"/>
  <path class="sntl_333" d="M200 85.9 L200 85.9"/>
  <path class="sntl_334" d="M200 88.7 L200 88.7"/>
  <path class="sntl_335" d="M200 83.2 L200 83.2"/>
  <path class="sntl_336" d="M200 92.5 L200 92.5"/>
  <path class="sntl_337" d="M200 83.2 L200 83.2"/>
  <path class="sntl_338" d="M200 71.4 L200 71.4"/>
  <path class="sntl_339" d="M200 87.4 L200 87.4"/>
  <path class="sntl_340" d="M200 85.7 L200 85.7"/>
  <path class="sntl_341" d="M200 80 L200 80"/>
  <path class="sntl_342" d="M200 90.5 L200 90.5"/>
  <path class="sntl_343" d="M200 84.3 L200 84.3"/>
  <path class="sntl_344" d="M200 75.4 L200 75.4"/>
  <path class="sntl_345" d="M200 80 L200 80"/>
  <path class="sntl_346" d="M200 91.9 L200 91.9"/>
  <path class="sntl_347" d="M200 70.8 L200 70.8"/>
  <path class="sntl_348" d="M200 90.1 L200 90.1"/>
  <path class="sntl_349" d="M200 88.7 L200 88.7"/>
  <path class="sntl_350" d="M200 80.9 L200 80.9"/>
  <path class="sntl_351" d="M200 62.8 L200 62.8"/>
  <path class="sntl_353" d="M200 81 L200 81"/>
  <path class="sntl_354" d="M200 95.1 L200 95.1"/>
  <path class="sntl_355" d="M200 90.1 L200 90.1"/>
  <path class="sntl_356" d="M200 79.1 L200 79.1"/>
  <path class="sntl_357" d="M200 84.2 L200 84.2"/>
  <path class="sntl_358" d="M200 86.1 L200 86.1"/>
  <path class="sntl_359" d="M200 84.4 L200 84.4"/>
  <path class="sntl_360" d="M200 82.1 L200 82.1"/>
  <path class="sntl_361" d="M200 83.9 L200 83.9"/>
  <path class="sntl_362" d="M200 85.1 L200 85.1"/>
  <path class="sntl_363" d="M200 91.4 L200 91.4"/>
  <path class="sntl_364" d="M200 94 L200 94"/>
  <path class="sntl_365" d="M200 81.7 L200 81.7"/>
  <path class="sntl_366" d="M200 84.3 L200 84.3"/>
  <path class="sntl_367" d="M200 76.6 L200 76.6"/>
  <path class="sntl_368" d="M200 86.5 L200 86.5"/>
  <path class="sntl_369" d="M200 90 L200 90"/>
  <path class="sntl_370" d="M200 72.4 L200 72.4"/>
  <path class="sntl_371" d="M200 88.5 L200 88.5"/>
  <path class="sntl_373" d="M200 87.6 L200 87.6"/>
  <path class="sntl_374" d="M200 85.7 L200 85.7"/>
  <path class="sntl_375" d="M200 68.9 L200 68.9"/>
  <path class="sntl_376" d="M200 78 L200 78"/>
  <path class="sntl_377" d="M200 90.4 L200 90.4"/>
  <path class="sntl_378" d="M200 88 L200 88"/>
  <path class="sntl_379" d="M200 89.4 L200 89.4"/>
  <path class="sntl_380" d="M200 89.5 L200 89.5"/>
  <path class="sntl_381" d="M200 92.1 L200 92.1"/>
  <path class="sntl_382" d="M200 88.1 L200 88.1"/>
  <path class="sntl_383" d="M200 90.3 L200 90.3"/>
  <path class="sntl_384" d="M200 88 L200 88"/>
  <path class="sntl_385" d="M200 79.1 L200 79.1"/>
  <path class="sntl_386" d="M200 90.2 L200 90.2"/>
  <path class="sntl_387" d="M200 92.8 L200 92.8"/>
  <path class="sntl_388" d="M200 68.8 L200 68.8"/>
  <path class="sntl_389" d="M200 88.1 L200 88.1"/>
  <path class="sntl_390" d="M200 90.9 L200 90.9"/>
  <path class="sntl_391" d="M200 84.4 L200 84.4"/>
  <path class="sntl_392" d="M200 84.4 L200 84.4"/>
  <path class="sntl_393" d="M200 87.3 L200 87.3"/>
  <path class="sntl_394" d="M200 91.7 L200 91.7"/>
  <path class="sntl_395" d="M200 91.2 L200 91.2"/>
  <path class="sntl_396" d="M200 90.1 L200 90.1"/>
  <path class="sntl_398" d="M200 86.2 L200 86.2"/>
  <path class="sntl_399" d="M200 87.3 L200 87.3"/>
  <path class="sntl_400" d="M200 89.4 L200 89.4"/>
  <path class="sntl_401" d="M200 88.4 L200 88.4"/>
  <path class="sntl_402" d="M200 86 L200 86"/>
  <path class="sntl_403" d="M200 87.4 L200 87.4"/>
  <path class="sntl_405" d="M200 93.5 L200 93.5"/>
  <path class="sntl_406" d="M200 78.9 L200 78.9"/>
  <path class="sntl_407" d="M200 88.9 L200 88.9"/>
  <path class="sntl_408" d="M200 78.7 L200 78.7"/>
  <path class="sntl_409" d="M200 86.1 L200 86.1"/>
  <path class="sntl_410" d="M200 94.4 L200 94.4"/>
  <path class="sntl_411" d="M200 59.7 L200 59.7"/>
  <path class="sntl_412" d="M200 94.7 L200 94.7"/>
  <path class="sntl_413" d="M200 92.4 L200 92.4"/>
  <path class="sntl_414" d="M200 73.2 L200 73.2"/>
  <path class="sntl_415" d="M200 88.6 L200 88.6"/>
  <path class="sntl_416" d="M200 98.5 L200 98.5"/>
  <path class="sntl_417" d="M200 85.4 L200 85.4"/>
  <path class="sntl_418" d="M200 60.1 L200 60.1"/>
  <path class="sntl_419" d="M200 80.3 L200 80.3"/>
  <path class="sntl_420" d="M200 81.6 L200 81.6"/>
  <path class="sntl_422" d="M200 93.5 L200 93.5"/>
  <path class="sntl_423" d="M200 85.7 L200 85.7"/>
  <path class="sntl_424" d="M200 91.1 L200 91.1"/>
  <path class="sntl_425" d="M200 57 L200 57"/>
  <path class="sntl_426" d="M200 90 L200 90"/>
  <path class="sntl_427" d="M200 89.8 L200 89.8"/>
  <path class="sntl_428" d="M200 70.5 L200 70.5"/>
  <path class="sntl_429" d="M200 94.9 L200 94.9"/>
  <path class="sntl_430" d="M200 81.9 L200 81.9"/>
  <path class="sntl_431" d="M200 77.4 L200 77.4"/>
  <path class="sntl_432" d="M200 92.7 L200 92.7"/>
  <path class="sntl_433" d="M200 90.6 L200 90.6"/>
  <path class="sntl_434" d="M200 89.9 L200 89.9"/>
  <path class="sntl_435" d="M200 89.6 L200 89.6"/>
  <path class="sntl_436" d="M200 74.5 L200 74.5"/>
  <path class="sntl_437" d="M200 91.2 L200 91.2"/>
  <path class="sntl_438" d="M200 82.1 L200 82.1"/>
  <path class="sntl_439" d="M200 68.4 L200 68.4"/>
  <path class="sntl_440" d="M200 85 L200 85"/>
  <path class="sntl_443" d="M200 94.3 L200 94.3"/>
  <path class="sntl_444" d="M200 90.4 L200 90.4"/>
  <path class="sntl_445" d="M200 94 L200 94"/>
  <path class="sntl_446" d="M200 76.2 L200 76.2"/>
  <path class="sntl_448" d="M200 93.6 L200 93.6"/>
  <path class="sntl_449" d="M200 84.4 L200 84.4"/>
  <path class="sntl_450" d="M200 79.2 L200 79.2"/>
  <path class="sntl_451" d="M200 88.2 L200 88.2"/>
  <path class="sntl_452" d="M200 93.3 L200 93.3"/>
  <path class="sntl_453" d="M200 87.9 L200 87.9"/>
  <path class="sntl_454" d="M200 89.9 L200 89.9"/>
  <path class="sntl_455" d="M200 86.3 L200 86.3"/>
  <path class="sntl_457" d="M200 83.1 L200 83.1"/>
  <path class="sntl_458" d="M200 95.3 L200 95.3"/>
  <path class="sntl_460" d="M200 91.4 L200 91.4"/>
  <path class="sntl_461" d="M200 92.1 L200 92.1"/>
  <path class="sntl_462" d="M200 74.1 L200 74.1"/>
  <path class="sntl_463" d="M200 67.6 L200 67.6"/>
  <path class="sntl_464" d="M200 86.9 L200 86.9"/>
  <path class="sntl_465" d="M200 88.2 L200 88.2"/>
  <path class="sntl_466" d="M200 64.9 L200 64.9"/>
  <path class="sntl_467" d="M200 84.4 L200 84.4"/>
  <path class="sntl_468" d="M200 90.8 L200 90.8"/>
  <path class="sntl_469" d="M200 86.7 L200 86.7"/>
  <path class="sntl_470" d="M200 92.7 L200 92.7"/>
  <path class="sntl_471" d="M200 84.6 L200 84.6"/>
  <path class="sntl_472" d="M200 74.8 L200 74.8"/>
  <path class="sntl_473" d="M200 92.5 L200 92.5"/>
  <path class="sntl_474" d="M200 78.4 L200 78.4"/>
  <path class="sntl_475" d="M200 84 L200 84"/>
  <path class="sntl_476" d="M200 87.6 L200 87.6"/>
  <path class="sntl_477" d="M200 72.7 L200 72.7"/>
  <path class="sntl_478" d="M200 60.7 L200 60.7"/>
  <path class="sntl_479" d="M200 87 L200 87"/>
  <path class="sntl_480" d="M200 71.2 L200 71.2"/>
  <path class="sntl_481" d="M200 88 L200 88"/>
  <path class="sntl_482" d="M200 58.2 L200 58.2"/>
  <path class="sntl_483" d="M200 80.2 L200 80.2"/>
  <path class="sntl_484" d="M200 80 L200 80"/>
  <path class="sntl_485" d="M200 87.5 L200 87.5"/>
  <path class="sntl_486" d="M200 98.7 L200 98.7"/>
  <path class="sntl_487" d="M200 92.6 L200 92.6"/>
  <path class="sntl_488" d="M200 94.4 L200 94.4"/>
  <path class="sntl_489" d="M200 88.6 L200 88.6"/>
  <path class="sntl_490" d="M200 85.5 L200 85.5"/>
  <path class="sntl_491" d="M200 91.6 L200 91.6"/>
  <path class="sntl_492" d="M200 93.1 L200 93.1"/>
  <path class="sntl_493" d="M200 92.5 L200 92.5"/>
  <path class="sntl_494" d="M200 85.2 L200 85.2"/>
  <path class="sntl_495" d="M200 94.1 L200 94.1"/>
  <path class="sntl_496" d="M200 87.3 L200 87.3"/>
  <path class="sntl_497" d="M200 85.2 L200 85.2"/>
  <path class="sntl_498" d="M200 80.9 L200 80.9"/>
  <path class="sntl_499" d="M200 72.3 L200 72.3"/>
  <path class="sntl_500" d="M200 88.4 L200 88.4"/>
  <path class="sntl_501" d="M200 92.9 L200 92.9"/>
  <path class="sntl_502" d="M200 74.7 L200 74.7"/>
  <path class="sntl_503" d="M200 89 L200 89"/>
  <path class="sntl_504" d="M200 83.4 L200 83.4"/>
  <path class="sntl_505" d="M200 87.4 L200 87.4"/>
  <path class="sntl_506" d="M200 90.6 L200 90.6"/>
  <path class="sntl_507" d="M200 79.7 L200 79.7"/>
  <path class="sntl_508" d="M200 84 L200 84"/>
  <path class="sntl_509" d="M200 89.8 L200 89.8"/>
  <path class="sntl_510" d="M200 90.3 L200 90.3"/>
  <path class="sntl_511" d="M200 96.5 L200 96.5"/>
  <path class="sntl_512" d="M200 91.5 L200 91.5"/>
  <path class="sntl_513" d="M200 84.7 L200 84.7"/>
  <path class="sntl_514" d="M200 96.2 L200 96.2"/>
  <path class="sntl_515" d="M200 49.3 L200 49.3"/>
  <path class="sntl_516" d="M200 80.6 L200 80.6"/>
  <path class="sntl_517" d="M200 87.5 L200 87.5"/>
  <path class="sntl_518" d="M200 84.2 L200 84.2"/>
  <path class="sntl_520" d="M200 57.6 L200 57.6"/>
  <path class="sntl_521" d="M200 89.4 L200 89.4"/>
  <path class="sntl_522" d="M200 90.6 L200 90.6"/>
  <path class="sntl_523" d="M200 67.1 L200 67.1"/>
  <path class="sntl_524" d="M200 91.9 L200 91.9"/>
  <path class="sntl_525" d="M200 89.7 L200 89.7"/>
  <path class="sntl_526" d="M200 82.5 L200 82.5"/>
  <path class="sntl_527" d="M200 89.8 L200 89.8"/>
  <path class="sntl_528" d="M200 91.9 L200 91.9"/>
  <path class="sntl_529" d="M200 80 L200 80"/>
  <path class="sntl_530" d="M200 68.5 L200 68.5"/>
  <path class="sntl_531" d="M200 87.6 L200 87.6"/>
  <path class="sntl_532" d="M200 86 L200 86"/>
  <path class="sntl_533" d="M200 87.2 L200 87.2"/>
  <path class="sntl_534" d="M200 75 L200 75"/>
  <path class="sntl_535" d="M200 81.2 L200 81.2"/>
  <path class="sntl_537" d="M200 91.1 L200 91.1"/>
  <path class="sntl_538" d="M200 88.4 L200 88.4"/>
  <path class="sntl_539" d="M200 84.1 L200 84.1"/>
  <path class="sntl_540" d="M200 91 L200 91"/>
  <path class="sntl_541" d="M200 74.9 L200 74.9"/>
  <path class="sntl_542" d="M200 86.7 L200 86.7"/>
  <path class="sntl_543" d="M200 91.6 L200 91.6"/>
  <path class="sntl_544" d="M200 81.9 L200 81.9"/>
  <path class="sntl_546" d="M200 86.9 L200 86.9"/>
  <path class="sntl_547" d="M200 85.8 L200 85.8"/>
  <path class="sntl_548" d="M200 85.5 L200 85.5"/>
  <path class="sntl_549" d="M200 100 L200 100"/>
  <path class="sntl_550" d="M200 76 L200 76"/>
  <path class="sntl_551" d="M200 81.3 L200 81.3"/>
  <path class="sntl_552" d="M200 90.6 L200 90.6"/>
  <path class="sntl_553" d="M200 50.3 L200 50.3"/>
  <path class="sntl_554" d="M200 88.3 L200 88.3"/>
  <path class="sntl_555" d="M200 88.8 L200 88.8"/>
  <path class="sntl_556" d="M200 89.6 L200 89.6"/>
  <path class="sntl_557" d="M200 86.3 L200 86.3"/>
  <path class="sntl_558" d="M200 90.4 L200 90.4"/>
  <path class="sntl_559" d="M200 93.5 L200 93.5"/>
  <path class="sntl_560" d="M200 91.5 L200 91.5"/>
  <path class="sntl_561" d="M200 86.9 L200 86.9"/>
  <path class="sntl_562" d="M200 88 L200 88"/>
  <path class="sntl_563" d="M200 87.1 L200 87.1"/>
  <path class="sntl_564" d="M200 88.5 L200 88.5"/>
  <path class="sntl_565" d="M200 80.9 L200 80.9"/>
  <path class="sntl_566" d="M200 91.1 L200 91.1"/>
  <path class="sntl_568" d="M200 92.8 L200 92.8"/>
  <path class="sntl_569" d="M200 90.1 L200 90.1"/>
  <path class="sntl_570" d="M200 88.4 L200 88.4"/>
  <path class="sntl_571" d="M200 89.8 L200 89.8"/>
  <path class="sntl_572" d="M200 88.6 L200 88.6"/>
  <path class="sntl_573" d="M200 90.1 L200 90.1"/>
  <path class="sntl_574" d="M200 64.1 L200 64.1"/>
  <path class="sntl_575" d="M200 91.9 L200 91.9"/>
  <path class="sntl_576" d="M200 90.7 L200 90.7"/>
  <path class="sntl_577" d="M200 75.2 L200 75.2"/>
  <path class="sntl_578" d="M200 90.2 L200 90.2"/>
  <path class="sntl_579" d="M200 89.3 L200 89.3"/>
  <path class="sntl_580" d="M200 86.4 L200 86.4"/>
  <path class="sntl_582" d="M200 92.3 L200 92.3"/>
  <path class="sntl_583" d="M200 97.1 L200 97.1"/>
  <path class="sntl_584" d="M200 67.3 L200 67.3"/>
  <path class="sntl_585" d="M200 90.6 L200 90.6"/>
  <path class="sntl_586" d="M200 87.4 L200 87.4"/>
  <path class="sntl_587" d="M200 91.2 L200 91.2"/>
  <path class="sntl_588" d="M200 75.9 L200 75.9"/>
  <path class="sntl_589" d="M200 87.4 L200 87.4"/>
  <path class="sntl_590" d="M200 84 L200 84"/>
  <path class="sntl_591" d="M200 55.5 L200 55.5"/>
  <path class="sntl_592" d="M200 95.2 L200 95.2"/>
  <path class="sntl_593" d="M200 97.3 L200 97.3"/>
  <path class="sntl_594" d="M200 77.4 L200 77.4"/>
  <path class="sntl_595" d="M200 98.5 L200 98.5"/>
  <path class="sntl_596" d="M200 77.1 L200 77.1"/>
  <path class="sntl_597" d="M200 88.3 L200 88.3"/>
  <path class="sntl_599" d="M200 81.5 L200 81.5"/>
  <path class="sntl_600" d="M200 53.6 L200 53.6"/>
  <path class="sntl_601" d="M200 88.1 L200 88.1"/>
  <path class="sntl_602" d="M200 85.6 L200 85.6"/>
  <path class="sntl_603" d="M200 86.7 L200 86.7"/>
  <path class="sntl_604" d="M200 93.9 L200 93.9"/>
  <path class="sntl_605" d="M200 89 L200 89"/>
  <path class="sntl_606" d="M200 43.8 L200 43.8"/>
  <path class="sntl_607" d="M200 90.3 L200 90.3"/>
  <path class="sntl_608" d="M200 92.6 L200 92.6"/>
  <path class="sntl_609" d="M200 81.6 L200 81.6"/>
  <path class="sntl_610" d="M200 84.1 L200 84.1"/>
  <path class="sntl_612" d="M200 87.5 L200 87.5"/>
  <path class="sntl_613" d="M200 89.3 L200 89.3"/>
  <path class="sntl_614" d="M200 92 L200 92"/>
  <path class="sntl_615" d="M200 84.5 L200 84.5"/>
  <path class="sntl_616" d="M200 96 L200 96"/>
  <path class="sntl_617" d="M200 97.6 L200 97.6"/>
  <path class="sntl_618" d="M200 87.4 L200 87.4"/>
  <path class="sntl_619" d="M200 59.7 L200 59.7"/>
  <path class="sntl_620" d="M200 90 L200 90"/>
  <path class="sntl_621" d="M200 89.9 L200 89.9"/>
  <path class="sntl_622" d="M200 87.9 L200 87.9"/>
  <path class="sntl_623" d="M200 77.2 L200 77.2"/>
  <path class="sntl_624" d="M200 83.3 L200 83.3"/>
  <path class="sntl_625" d="M200 88.9 L200 88.9"/>
  <path class="sntl_626" d="M200 85.5 L200 85.5"/>
  <path class="sntl_627" d="M200 87 L200 87"/>
  <path class="sntl_628" d="M200 79.5 L200 79.5"/>
  <path class="sntl_629" d="M200 86.7 L200 86.7"/>
  <path class="sntl_631" d="M200 84.1 L200 84.1"/>
  <path class="sntl_632" d="M200 86 L200 86"/>
  <path class="sntl_633" d="M200 88.2 L200 88.2"/>
  <path class="sntl_634" d="M200 82 L200 82"/>
  <path class="sntl_635" d="M200 80.1 L200 80.1"/>
  <path class="sntl_636" d="M200 91.2 L200 91.2"/>
  <path class="sntl_637" d="M200 71.9 L200 71.9"/>
  <path class="sntl_638" d="M200 83 L200 83"/>
  <path class="sntl_639" d="M200 92 L200 92"/>
  <path class="sntl_640" d="M200 94.5 L200 94.5"/>
  <path class="sntl_641" d="M200 87.3 L200 87.3"/>
  <path class="sntl_642" d="M200 49 L200 49"/>
  <path class="sntl_643" d="M200 91.8 L200 91.8"/>
  <path class="sntl_644" d="M200 83.4 L200 83.4"/>
  <path class="sntl_645" d="M200 74.1 L200 74.1"/>
  <path class="sntl_647" d="M200 71.9 L200 71.9"/>
  <path class="sntl_649" d="M200 82.8 L200 82.8"/>
  <path class="sntl_650" d="M200 78.2 L200 78.2"/>
  <path class="sntl_651" d="M200 35.3 L200 35.3"/>
  <path class="sntl_652" d="M200 76.4 L200 76.4"/>
  <path class="sntl_653" d="M200 87.5 L200 87.5"/>
  <path class="sntl_654" d="M200 95.6 L200 95.6"/>
  <path class="sntl_655" d="M200 65.9 L200 65.9"/>
  <path class="sntl_656" d="M200 86.2 L200 86.2"/>
  <path class="sntl_657" d="M200 89.9 L200 89.9"/>
  <path class="sntl_658" d="M200 91.4 L200 91.4"/>
  <path class="sntl_660" d="M200 86.8 L200 86.8"/>
  <path class="sntl_661" d="M200 91.2 L200 91.2"/>
  <path class="sntl_662" d="M200 83.7 L200 83.7"/>
  <path class="sntl_663" d="M200 88.4 L200 88.4"/>
  <path class="sntl_664" d="M200 65.8 L200 65.8"/>
  <path class="sntl_665" d="M200 92.8 L200 92.8"/>
  <path class="sntl_666" d="M200 77.7 L200 77.7"/>
  <path class="sntl_667" d="M200 66.4 L200 66.4"/>
  <path class="sntl_668" d="M200 73 L200 73"/>
  <path class="sntl_669" d="M200 85.3 L200 85.3"/>
  <path class="sntl_670" d="M200 91.5 L200 91.5"/>
  <path class="sntl_671" d="M200 89.6 L200 89.6"/>
  <path class="sntl_673" d="M200 73.3 L200 73.3"/>
  <path class="sntl_675" d="M200 90.9 L200 90.9"/>
  <path class="sntl_676" d="M200 94.9 L200 94.9"/>
  <path class="sntl_677" d="M200 92.2 L200 92.2"/>
  <path class="sntl_679" d="M200 13.8 L200 13.8"/>
  <path class="sntl_680" d="M200 91.8 L200 91.8"/>
  <path class="sntl_681" d="M200 47 L200 47"/>
  <path class="sntl_682" d="M200 81.5 L200 81.5"/>
  <path class="sntl_683" d="M200 78.6 L200 78.6"/>
  <path class="sntl_684" d="M200 85.7 L200 85.7"/>
  <path class="sntl_686" d="M200 88.9 L200 88.9"/>
  <path class="sntl_687" d="M200 84.3 L200 84.3"/>
  <path class="sntl_688" d="M200 91.4 L200 91.4"/>
  <path class="sntl_689" d="M200 78.4 L200 78.4"/>
  <path class="sntl_690" d="M200 92.3 L200 92.3"/>
  <path class="sntl_691" d="M200 87.3 L200 87.3"/>
  <path class="sntl_692" d="M200 48.4 L200 48.4"/>
  <path class="sntl_693" d="M200 94.9 L200 94.9"/>
  <path class="sntl_694" d="M200 83.6 L200 83.6"/>
  <path class="sntl_695" d="M200 84 L200 84"/>
  <path class="sntl_696" d="M200 83.1 L200 83.1"/>
  <path class="sntl_697" d="M200 84 L200 84"/>
  <path class="sntl_698" d="M200 82.3 L200 82.3"/>
  <path class="sntl_699" d="M200 79.3 L200 79.3"/>
  <path class="sntl_700" d="M200 95 L200 95"/>
  <path class="sntl_701" d="M200 87.4 L200 87.4"/>
  <path class="sntl_702" d="M200 63.4 L200 63.4"/>
  <path class="sntl_703" d="M200 88.8 L200 88.8"/>
  <path class="sntl_704" d="M200 93 L200 93"/>
  <path class="sntl_705" d="M200 93.2 L200 93.2"/>
  <path class="sntl_706" d="M200 98.9 L200 98.9"/>
  <path class="sntl_707" d="M200 79 L200 79"/>
  <path class="sntl_708" d="M200 95.7 L200 95.7"/>
  <path class="sntl_709" d="M200 84.5 L200 84.5"/>
  <path class="sntl_710" d="M200 99.2 L200 99.2"/>
  <path class="sntl_711" d="M200 60.1 L200 60.1"/>
  <path class="sntl_712" d="M200 46.5 L200 46.5"/>
  <path class="sntl_713" d="M200 80.6 L200 80.6"/>
  <path class="sntl_714" d="M200 89.8 L200 89.8"/>
  <path class="sntl_715" d="M200 92.2 L200 92.2"/>
  <path class="sntl_716" d="M200 86.8 L200 86.8"/>
  <path class="sntl_717" d="M200 78.4 L200 78.4"/>
  <path class="sntl_718" d="M200 85.2 L200 85.2"/>
  <path class="sntl_719" d="M200 68.9 L200 68.9"/>
  <path class="sntl_720" d="M200 93.9 L200 93.9"/>
  <path class="sntl_721" d="M200 92.1 L200 92.1"/>
  <path class="sntl_722" d="M200 86.6 L200 86.6"/>
  <path class="sntl_723" d="M200 82.4 L200 82.4"/>
  <path class="sntl_724" d="M200 83.3 L200 83.3"/>
  <path class="sntl_725" d="M200 88.2 L200 88.2"/>
  <path class="sntl_726" d="M200 93.1 L200 93.1"/>
  <path class="sntl_727" d="M200 77.5 L200 77.5"/>
  <path class="sntl_728" d="M200 88.5 L200 88.5"/>
  <path class="sntl_729" d="M200 74.7 L200 74.7"/>
  <path class="sntl_730" d="M200 89 L200 89"/>
  <path class="sntl_731" d="M200 73 L200 73"/>
  <path class="sntl_732" d="M200 87.7 L200 87.7"/>
  <path class="sntl_733" d="M200 82.6 L200 82.6"/>
  <path class="sntl_735" d="M200 76.4 L200 76.4"/>
  <path class="sntl_736" d="M200 68.5 L200 68.5"/>
  <path class="sntl_737" d="M200 76 L200 76"/>
  <path class="sntl_738" d="M200 57.6 L200 57.6"/>
  <path class="sntl_739" d="M200 91.7 L200 91.7"/>
  <path class="sntl_740" d="M200 72.6 L200 72.6"/>
  <path class="sntl_741" d="M200 86.2 L200 86.2"/>
  <path class="sntl_742" d="M200 90.9 L200 90.9"/>
  <path class="sntl_743" d="M200 98 L200 98"/>
  <path class="sntl_744" d="M200 93.8 L200 93.8"/>
  <path class="sntl_745" d="M200 73.5 L200 73.5"/>
  <path class="sntl_746" d="M200 92.6 L200 92.6"/>
  <path class="sntl_747" d="M200 70.1 L200 70.1"/>
  <path class="sntl_748" d="M200 53.2 L200 53.2"/>
  <path class="sntl_749" d="M200 88.1 L200 88.1"/>
  <path class="sntl_750" d="M200 99.4 L200 99.4"/>
  <path class="sntl_751" d="M200 86.6 L200 86.6"/>
  <path class="sntl_752" d="M200 88.1 L200 88.1"/>
  <path class="sntl_753" d="M200 94.8 L200 94.8"/>
  <path class="sntl_754" d="M200 79.5 L200 79.5"/>
  <path class="sntl_755" d="M200 98.3 L200 98.3"/>
  <path class="sntl_756" d="M200 91.5 L200 91.5"/>
  <path class="sntl_757" d="M200 92.3 L200 92.3"/>
  <path class="sntl_759" d="M200 84.1 L200 84.1"/>
  <path class="sntl_760" d="M200 79.8 L200 79.8"/>
  <path class="sntl_761" d="M200 86.2 L200 86.2"/>
  <path class="sntl_762" d="M200 87.9 L200 87.9"/>
  <path class="sntl_763" d="M200 91.3 L200 91.3"/>
  <path class="sntl_764" d="M200 85.6 L200 85.6"/>
  <path class="sntl_765" d="M200 89.2 L200 89.2"/>
  <path class="sntl_766" d="M200 71.6 L200 71.6"/>
  <path class="sntl_767" d="M200 86.5 L200 86.5"/>
  <path class="sntl_769" d="M200 91.6 L200 91.6"/>
  <path class="sntl_770" d="M200 89.1 L200 89.1"/>
  <path class="sntl_771" d="M200 83.9 L200 83.9"/>
  <path class="sntl_772" d="M200 90.5 L200 90.5"/>
  <path class="sntl_773" d="M200 80.4 L200 80.4"/>
  <path class="sntl_774" d="M200 87.4 L200 87.4"/>
  <path class="sntl_775" d="M200 89 L200 89"/>
  <path class="sntl_776" d="M200 68.5 L200 68.5"/>
  <path class="sntl_777" d="M200 83.6 L200 83.6"/>
  <path class="sntl_778" d="M200 93.5 L200 93.5"/>
  <path class="sntl_779" d="M200 79.3 L200 79.3"/>
  <path class="sntl_780" d="M200 81.3 L200 81.3"/>
  <path class="sntl_781" d="M200 79.6 L200 79.6"/>
  <path class="sntl_782" d="M200 81.8 L200 81.8"/>
  <path class="sntl_783" d="M200 87.2 L200 87.2"/>
  <path class="sntl_784" d="M200 75.2 L200 75.2"/>
  <path class="sntl_785" d="M200 90.9 L200 90.9"/>
  <path class="sntl_786" d="M200 97.2 L200 97.2"/>
  <path class="sntl_787" d="M200 74.4 L200 74.4"/>
  <path class="sntl_788" d="M200 54.9 L200 54.9"/>
  <path class="sntl_789" d="M200 91.2 L200 91.2"/>
  <path class="sntl_790" d="M200 85.5 L200 85.5"/>
  <path class="sntl_791" d="M200 47.8 L200 47.8"/>
  <path class="sntl_792" d="M200 94.4 L200 94.4"/>
  <path class="sntl_793" d="M200 94.3 L200 94.3"/>
  <path class="sntl_794" d="M200 95.7 L200 95.7"/>
  <path class="sntl_795" d="M200 91 L200 91"/>
  <path class="sntl_797" d="M200 86.9 L200 86.9"/>
  <path class="sntl_798" d="M200 87.6 L200 87.6"/>
  <path class="sntl_800" d="M200 92.2 L200 92.2"/>
  <path class="sntl_801" d="M200 65 L200 65"/>
  <path class="sntl_802" d="M200 91.5 L200 91.5"/>
  <path class="sntl_803" d="M200 81.7 L200 81.7"/>
  <path class="sntl_805" d="M200 91 L200 91"/>
  <path class="sntl_806" d="M200 83 L200 83"/>
  <path class="sntl_807" d="M200 89.3 L200 89.3"/>
  <path class="sntl_809" d="M200 91.9 L200 91.9"/>
  <path class="sntl_810" d="M200 95.2 L200 95.2"/>
  <path class="sntl_811" d="M200 96.6 L200 96.6"/>
  <path class="sntl_812" d="M200 72.4 L200 72.4"/>
  <path class="sntl_813" d="M200 89.4 L200 89.4"/>
  <path class="sntl_814" d="M200 84.4 L200 84.4"/>
  <path class="sntl_815" d="M200 83.9 L200 83.9"/>
  <path class="sntl_816" d="M200 87.2 L200 87.2"/>
  <path class="sntl_817" d="M200 65.9 L200 65.9"/>
  <path class="sntl_818" d="M200 95.3 L200 95.3"/>
  <path class="sntl_819" d="M200 96.9 L200 96.9"/>
  <path class="sntl_820" d="M200 88 L200 88"/>
  <path class="sntl_821" d="M200 86.1 L200 86.1"/>
  <path class="sntl_822" d="M200 79.1 L200 79.1"/>
  <path class="sntl_823" d="M200 74.2 L200 74.2"/>
  <path class="sntl_824" d="M200 67.7 L200 67.7"/>
  <path class="sntl_825" d="M200 66.7 L200 66.7"/>
  <path class="sntl_826" d="M200 92.4 L200 92.4"/>
  <path class="sntl_827" d="M200 92.6 L200 92.6"/>
  <path class="sntl_828" d="M200 83.3 L200 83.3"/>
  <path class="sntl_829" d="M200 87.2 L200 87.2"/>
  <path class="sntl_830" d="M200 74.4 L200 74.4"/>
  <path class="sntl_831" d="M200 79.4 L200 79.4"/>
  <path class="sntl_832" d="M200 88.7 L200 88.7"/>
  <path class="sntl_833" d="M200 92.2 L200 92.2"/>
  <path class="sntl_834" d="M200 85.6 L200 85.6"/>
  <path class="sntl_835" d="M200 83 L200 83"/>
  <path class="sntl_836" d="M200 61.9 L200 61.9"/>
  <path class="sntl_837" d="M200 76.2 L200 76.2"/>
  <path class="sntl_838" d="M200 86.5 L200 86.5"/>
  <path class="sntl_839" d="M200 93.5 L200 93.5"/>
  <path class="sntl_840" d="M200 72.5 L200 72.5"/>
  <path class="sntl_841" d="M200 89.5 L200 89.5"/>
  <path class="sntl_842" d="M200 86.5 L200 86.5"/>
  <path class="sntl_843" d="M200 87 L200 87"/>
  <path class="sntl_844" d="M200 91.7 L200 91.7"/>
  <path class="sntl_845" d="M200 75.7 L200 75.7"/>
  <path class="sntl_846" d="M200 90.1 L200 90.1"/>
  <path class="sntl_847" d="M200 91.8 L200 91.8"/>
  <path class="sntl_848" d="M200 68 L200 68"/>
  <path class="sntl_849" d="M200 93.5 L200 93.5"/>
  <path class="sntl_850" d="M200 79.1 L200 79.1"/>
  <path class="sntl_852" d="M200 80.9 L200 80.9"/>
  <path class="sntl_853" d="M200 90.8 L200 90.8"/>
  <path class="sntl_854" d="M200 92.9 L200 92.9"/>
  <path class="sntl_855" d="M200 76.7 L200 76.7"/>
  <path class="sntl_856" d="M200 82.4 L200 82.4"/>
  <path class="sntl_857" d="M200 88.3 L200 88.3"/>
  <path class="sntl_858" d="M200 86.7 L200 86.7"/>
  <path class="sntl_859" d="M200 72.9 L200 72.9"/>
  <path class="sntl_860" d="M200 81.5 L200 81.5"/>
  <path class="sntl_861" d="M200 95.5 L200 95.5"/>
  <path class="sntl_862" d="M200 75.9 L200 75.9"/>
  <path class="sntl_863" d="M200 69.2 L200 69.2"/>
  <path class="sntl_864" d="M200 92.3 L200 92.3"/>
  <path class="sntl_865" d="M200 90.5 L200 90.5"/>
  <path class="sntl_866" d="M200 98.5 L200 98.5"/>
  <path class="sntl_867" d="M200 88.1 L200 88.1"/>
  <path class="sntl_868" d="M200 75.4 L200 75.4"/>
  <path class="sntl_869" d="M200 89.1 L200 89.1"/>
  <path class="sntl_870" d="M200 83.3 L200 83.3"/>
  <path class="sntl_871" d="M200 87.8 L200 87.8"/>
  <path class="sntl_872" d="M200 88.7 L200 88.7"/>
  <path class="sntl_873" d="M200 84 L200 84"/>
  <path class="sntl_874" d="M200 70.2 L200 70.2"/>
  <path class="sntl_875" d="M200 90.4 L200 90.4"/>
  <path class="sntl_876" d="M200 92.8 L200 92.8"/>
  <path class="sntl_877" d="M200 94.9 L200 94.9"/>
  <path class="sntl_878" d="M200 86.5 L200 86.5"/>
  <path class="sntl_893" d="M200 93.5 L200 93.5"/>
  <path class="sntl_895" d="M200 90.4 L200 90.4"/>
  <path class="sntl_896" d="M200 85.4 L200 85.4"/>
  <path class="sntl_897" d="M200 60.9 L200 60.9"/>
  <path class="sntl_898" d="M200 86.5 L200 86.5"/>
  <path class="sntl_899" d="M200 64.9 L200 64.9"/>
  <path class="sntl_901" d="M200 73.7 L200 73.7"/>
  <path class="sntl_902" d="M200 98.2 L200 98.2"/>
  <path class="sntl_903" d="M200 86.5 L200 86.5"/>
  <path class="sntl_904" d="M200 85.8 L200 85.8"/>
  <path class="sntl_905" d="M200 90 L200 90"/>
  <path class="sntl_906" d="M200 87.4 L200 87.4"/>
  <path class="sntl_907" d="M200 94.4 L200 94.4"/>
  <path class="sntl_908" d="M200 39.8 L200 39.8"/>
  <path class="sntl_909" d="M200 61.3 L200 61.3"/>
  <path class="sntl_910" d="M200 50.7 L200 50.7"/>
  <path class="sntl_911" d="M200 51.4 L200 51.4"/>
  <path class="sntl_912" d="M200 39.1 L200 39.1"/>
  <path class="sntl_913" d="M200 88.6 L200 88.6"/>
  <path class="sntl_914" d="M200 93.1 L200 93.1"/>
  <path class="sntl_915" d="M200 91.3 L200 91.3"/>
  <path class="sntl_916" d="M200 87 L200 87"/>
  <path class="sntl_917" d="M200 94.6 L200 94.6"/>
  <path class="sntl_918" d="M200 91.5 L200 91.5"/>
  <path class="sntl_919" d="M200 91.6 L200 91.6"/>
  <path class="sntl_920" d="M200 94.3 L200 94.3"/>
  <path class="sntl_921" d="M200 98.3 L200 98.3"/>
  <path class="sntl_922" d="M200 92.3 L200 92.3"/>
  <path class="sntl_923" d="M200 88.7 L200 88.7"/>
  <path class="sntl_924" d="M200 89.9 L200 89.9"/>
  <path class="sntl_925" d="M200 89.8 L200 89.8"/>
  <path class="sntl_926" d="M200 90.3 L200 90.3"/>
  <path class="sntl_927" d="M200 85.1 L200 85.1"/>
  <path class="sntl_928" d="M200 95.5 L200 95.5"/>
  <path class="sntl_929" d="M200 87.6 L200 87.6"/>
  <path class="sntl_930" d="M200 91.3 L200 91.3"/>
  <path class="sntl_931" d="M200 91.8 L200 91.8"/>
  <path class="sntl_932" d="M200 71.3 L200 71.3"/>
  <path class="sntl_933" d="M200 96.3 L200 96.3"/>
  <path class="sntl_934" d="M200 91.4 L200 91.4"/>
  <path class="sntl_935" d="M200 90.4 L200 90.4"/>
  <path class="sntl_936" d="M200 93 L200 93"/>
  <path class="sntl_937" d="M200 90.7 L200 90.7"/>
  <path class="sntl_938" d="M200 92.9 L200 92.9"/>
  <path class="sntl_939" d="M200 93.1 L200 93.1"/>
  <path class="sntl_940" d="M200 80.9 L200 80.9"/>
  <path class="sntl_941" d="M200 94.9 L200 94.9"/>
  <path class="sntl_942" d="M200 79.3 L200 79.3"/>
  <path class="sntl_943" d="M200 86.2 L200 86.2"/>
  <path class="sntl_944" d="M200 89 L200 89"/>
  <path class="sntl_945" d="M200 98.6 L200 98.6"/>
  <path class="sntl_946" d="M200 75.9 L200 75.9"/>
  <path class="sntl_947" d="M200 95.1 L200 95.1"/>
  <path class="sntl_948" d="M200 94.3 L200 94.3"/>
  <path class="sntl_949" d="M200 95.2 L200 95.2"/>
  <path class="sntl_950" d="M200 92.1 L200 92.1"/>
  <path class="sntl_951" d="M200 95.6 L200 95.6"/>
  <path class="sntl_952" d="M200 100 L200 100"/>
  <path class="sntl_953" d="M200 98.4 L200 98.4"/>
  <path class="sntl_954" d="M200 64.6 L200 64.6"/>
  <path class="sntl_955" d="M200 88.5 L200 88.5"/>
  <path class="sntl_956" d="M200 66.2 L200 66.2"/>
  <path class="sntl_958" d="M200 97.1 L200 97.1"/>
  <path class="sntl_959" d="M200 83 L200 83"/>
  <path class="sntl_963" d="M200 96.5 L200 96.5"/>
  <path class="sntl_964" d="M200 74.6 L200 74.6"/>
  <path class="sntl_966" d="M200 94.6 L200 94.6"/>
  <path class="sntl_967" d="M200 91.9 L200 91.9"/>
  <path class="sntl_969" d="M200 94.5 L200 94.5"/>
  <path class="sntl_970" d="M200 87.1 L200 87.1"/>
  <path class="sntl_971" d="M200 82.5 L200 82.5"/>
  <path class="sntl_972" d="M200 83.8 L200 83.8"/>
  <path class="sntl_974" d="M200 46.8 L200 46.8"/>
  <path class="sntl_975" d="M200 78 L200 78"/>
  <path class="sntl_977" d="M200 97.8 L200 97.8"/>
  <path class="sntl_978" d="M200 75.3 L200 75.3"/>
  <path class="sntl_979" d="M200 91.7 L200 91.7"/>
  <path class="sntl_981" d="M200 95.7 L200 95.7"/>
  <path class="sntl_982" d="M200 95.8 L200 95.8"/>
  <path class="sntl_983" d="M200 91.4 L200 91.4"/>
  <path class="sntl_984" d="M200 81.6 L200 81.6"/>
  <path class="sntl_985" d="M200 96.3 L200 96.3"/>
  <path class="sntl_987" d="M200 88.9 L200 88.9"/>
  <path class="sntl_988" d="M200 70.3 L200 70.3"/>
  <path class="sntl_989" d="M200 78.8 L200 78.8"/>
  <path class="sntl_990" d="M200 56.2 L200 56.2"/>
  <path class="sntl_992" d="M200 92 L200 92"/>
  <path class="sntl_998" d="M200 4.6 L200 4.6"/>
  <path class="sntl_999" d="M200 31.6 L200 31.6"/>
</svg>
