<?xml version="1.0" encoding="utf-8"?>
<!-- Generator: Adobe Illustrator 25.2.0, SVG Export Plug-In . SVG Version: 6.00 Build 0)  -->
<svg version="1.1" id="Layer_1" xmlns="http://www.w3.org/2000/svg" xmlns:xlink="http://www.w3.org/1999/xlink" x="0px" y="0px"
	 viewBox="0 0 911.3 489.2" style="enable-background:new 0 0 911.3 489.2;" xml:space="preserve">
<style type="text/css">
	.st0{display:none;}
	.st1{display:inline;fill:none;stroke:#000000;stroke-width:1.5;stroke-miterlimit:10;}
</style>
<image style="overflow:visible;" width="3662" height="1960" xlink:href="C06078E2.jpg"  transform="matrix(0.2489 0 0 0.2489 -0.1741 0.7903)">
</image>
<g id="map-alaska" class="st0">
	<path class="st1" d="M378.4,140.9l2.1-1.5l5.6-1.5l2.8-1.2l6.3-3.4l12.8-5.6l4.8-1.5l8.1-2.1l3.6-0.6l6.3,0.8l0.8,2.3l-0.6,1.5
		l-1.5,1.7v3.3L428,135l1.2,3.8l1.5,0.3l1.5-0.5l1.8,0.1l1.9,1.1l4.7-0.3l1.3,1.7l1.9-0.3l0.6,0.9l3-0.6l3.1,1.5l2.1-2.3l1.8-3.3
		h2.4l1.5,1.2l2.3-0.9l-1.2-2.4l-4.2-2.1l-1.8-0.3l-2.7,1l0.9-2.4l0.1-1.9l-2.1-3l-0.6-2.3l-0.9-1l-2.3-0.6l-1.2-3.5l0.4-1.4
		l3.4-0.5l0.4,2l1.9,3.2l-0.9,1.8v1.2l2.9,4.5l1.9,2l2.8-0.9l0.4-1.1l-2.1-0.4v-0.9l-1.9-1.9l-1.8-2.9l1.5-4.5l1.5-2v-1.5l-1.2-1
		l-3.4,0.2l-1.4,0.8h-3l-1.8-1.5l-1.6,0.8l-1.5-1l-5.3-2.5l-2.6-1.5l0.4-3.6l-0.6-4.5l-1.5-4.9l-1.1-1.5l-3-3l-5.4-6.9l-1.5-2.4
		l-1.5-1.5l-3.8-1.9l-1.4-2.9l-1.5-2.3l-2.8-2.1l-2.6-1.2l4.5-1l1.1-0.9l1.2-2.7l1.5-5.7l0.3-2.7l5.4,1.5l3.3,0.6l7.1-0.3h4.1l3-0.9
		l4.9-3.6l3.3-3.8l1.8-4.2l0.4-4.4l2.3-5.3l3.4-3.8l2.7-3.9l1.5-1.6l4.8-3.2l3.3,1.2l2.3,0.3l4.8-1.8l3.3-2.1l2.7-2.3l6-6l4.5-1.6
		V14l1.9,1.2l2.7,0.4l2.7-0.8h3.2l2.6-1l2.6-2l2.6-2.7l4.2-6l2.4-1.8l0.1,1.5l1.5,1l2.7,0.6l1,1.5h1.8l1.5,0.4l0.6,2.1l-0.3,1.1
		l-2.7,2.3l-1.5,0.4l1.1,3.3l2.1,0.2l1.5-0.9l-0.2-2.3l1.5-1.6l0.8-1.5l2.3-2.1l3.8,3.3l0.5,5.4l2.1-0.1l1.5,1.8l1.8-1.5l0.9-1.8
		h3.8l2.4-1.1l3,1.1h2.8l3.6,1.5l-1.5,3l-0.8,0.8l0.4,2.1l3,0.6l2.8,1l0.9,1.4l-1.8,0.6l0.4,1.2l3-0.3l3.9,1.5l1.8-2.4l4.1-0.8
		l1.5,1.8l2.7-0.9l2-2.1l6.4,0.3l2.3,1.5l1.5,0.4l1.8-0.8l2.1,3.2l2.8-1.4l3,1.5l1.5,2.1h3l1.1-1.1l0.9,1.6h1.6l0.9-1.1l5.8-0.4
		l1.8,0.8l3-0.4l1.7,1.5l4.5,1.8h5.5l1.3-1.9l4.5-2.6l0.6-0.6l2.4-0.8h2l1.2-1.1l5.6,2.1l2.7,1.5l1.2,1.4h1.3l3.3,1.8l2.6,0.5
		l3.2,1.9h2.3l2.1,0.6l44.3,222.6l1.9,10l4.2,20.9l6.9,1l0.3-2.5l7.2,1.9l3-4.9l8.1-2.3l0.2,0.9l-0.2,6.6l2.4,2.1l5.3,1.4l1.9,3.4
		l17.4,10.8l3.3,6.6v2.1l1.2-0.3l1.8-3l4.5-5.3l0.5-0.6l3.3-1l0.8-3.8l-1.5-4.8l2.4-0.6l0.1-2.7l-1.8-0.8l1.8-1.6l3.1-1.5l5.3-5.4
		l3.9,1.8l1.8,1.5l2.3,1.2l0.8,2.4l-0.8,1.5l1.9,0.6l-0.3,1.4l1.5,1.5l3.8-0.3l0.8,1.5l1.9,1.1l1.2-0.3l2.1,2.1v1.6l3,2.6l6.9,1.6
		l2.9,2.5l6,3.5l-0.8,1.5l2.3,2.1l3.4,2.5l3,3.9l4.2,3l2.9,3.3l2.1,1.8l2.5,2.7l4.1,3l2.9,3l-0.8,3.8l5.1-0.3l0.3,4.8l4.2,0.6v1.5
		l1.2,1l1.4,2.7l3.5-1.6l2.3,1l5.1,1l1.6,0.8l4.8-0.6l3.3,1.8l2.4-0.2l1.5,2.4l3.1,0.1l1.8-1.5l2.6,2.6l0.8,2.5v2.7l-0.5,1.8l1.4,2
		l0.8,2.7l2.6,3l1.5,2.7l1.2,1.2l-1,3v3.9l-0.5,2.7l-1.5,4.4l-1.9,2.7l-0.3,1.9l-1.5-1.9l-1.5,1.5l-1-0.2l-2.1-3.6l-1.4-1.4
		l-0.3-1.9l-1.5-0.9l-1.2-1.8l1-2l0.5-3.5l-1.2-1.5l-0.3-3.1l-2-4l-1-1.4l-3.6-2.8l1.9,3.1l1.8,1.5l1.5,2.9l-0.5,1.2l1.2,3.8
		l0.6,3.2l-1.1,3l-2.4-0.3l-2.1,0.6l-1.8-2.1l-0.5,1.3l-2.9-0.9l-3-1.8l-0.6-1.8l2.1-2.4l-1.5-1.4l-0.9-2.3v-1.6l-1.2-2.7l-1.5,1
		l1.5,1.5l0.4,3.9l-0.9,5.3l-3.8-1.4l-1.5-2.7l-0.3-3l1-1.2l-0.4-3.5l-1.2-2.3l0.9-2.3l-1.2-0.1l-1.4,2.7l1.5,2.4v1l-1.8,0.5h-2.9
		l-1.5-2.5l-1.2,0.3l-0.8,1.2l-2.1-2.6l-0.6-1.8l1.5-1.2l0.1-3l2.7-1l-1.9-3.5l-0.5-2.4l-1.2,0.6l-2.3-1.2l-0.9-3.3l-3.8-1.2
		l-2.3-1.8l-1.6-2.8l-2.7-0.3l-1.5,0.3l-1.5-0.9l-0.8,0.9l-3.3-0.8l-0.9-1.5l0.1-2.1l1,0.3l0.8-1.5l-1.6-0.3l-2.1-3.1l-0.6-2.4
		l-1.5,0.5l-1.2-0.9l-0.5-2.6l2.1,0.3l3-0.5l-4.4-2l-0.8-2.1l-1.5,2.4l-3-3.1l-3.9-2.6l-1.5-3l-2.5,0.6h-5.6l-3.3-3.5l-0.9-2.4
		l-3-2.6l-0.3-1.9l-1-2.7l-1.2,0.5l-2.3-1.2l-2.5-6l-2-2.7l-2.3-2.3l-1.2,0.6l2.3,1.5l1.8,2.7l-1,0.6l0.6,3l4,5.8l2.3,2.7l-0.3,1.4
		l2.5,3.6l1.5,3l-0.8,0.6l0.9,2.4h-2.9l-2.4-2.1l-1-1.8l-1.1,0.6l-1.9-0.6l-1.1,1.2l-2.4,1.2l-0.4-2l-1.4-3.1v-1.4l-2.1-2.1l-2-2.4
		l-0.3,1.8l-1.4,0.5l-4.1-1.5l-1-2.1l-1.2,1.3l1.1,1.2l2.1,1l2.9,2.4l1.4-0.3l0.9,2.3l1.8,1.5l1.8,3.3l-0.6,1.3l-2,1.4l-1.5-1.5
		l-0.1,2.4h-2.3v3l-1.5,0.3l-1.8-1.5l-3-2.3l-2.3,0.6l-6.6-3l-3-1.2l-0.3-1l-4.2-2.4l-0.6-2.3l-2.4-1.9l-3.8-2l-5.3-0.9l-4.7-2.3
		l-7.8-1.9l-6.9-3l1.2-3.2l2-0.6l-0.8-3.6l-1.5-2.5l1.2-2.1l0.2-1.5l-1.2-1l-0.2,2.7l-1.1,0.8l-0.4,3l-4.8,3.5l-1.5,1.6l-4.9,0.6
		l-3.5-0.3l-7.9-2.3l-0.2-1l1.5-0.9l0.2-1.8l-2.1-2.7l-2.7-0.8l3.3,3l-2.9,2.4l-1.9,0.3l-2.6-0.9h-3l-6-0.5l-4.9,0.8l-2.1,0.9
		l-4.5,1.2l-3.9,1.4l-2.6,1.5l-1.9-0.6l-2.1,0.9l-2.7,3.3l-0.4-1.2l2.7-3.1l2.3-0.5l-1-1.5l-2.6-0.8l-0.8,1.5l-3-2.3l-5.1-0.3
		l2.1-1.5l-3.2-0.8l1.2-3.9l-2.6,1.5v1.2l-0.8,1.7h-1.8l-3.6-1.8l-1.5-1.5l-1.9-0.3L650,296l-0.9-1.2l-4.1,1.6l-1.8,0.2l0.2,1.3l3-1
		v1.8l-1.4,1.1l-1.9,0.4l-2.7,2.7l-1.2-1l1.5-1.2l-2.1-0.6l-0.2-1.2l0.9-2.1l1.5-0.9l0.9,0.6l2.1-1.5l1.8-0.6l2.6-1.8l2.1-0.8
		l-3.3-1.5l-1.5,1l-1.8-0.2l1.2-2.4l-4.5,1.8h-2.1l-0.8-1.5l4.5-1.5l2.3-2.1l-1.2-0.5l-0.8,1.5l-3,0.6l-1.1-1.5l-1.2,1.7l-0.6-1.8
		v-2.1l1.4-3.8l4.5-0.6l-0.5-0.9l-4.2,0.6l-0.9,1.6l-1.2,0.8l-0.9,2l-1.4,1.4l-0.9-3.8l-1.4,2.7l-3,3.2l-2.3-0.6l-0.4,0.9l-2.4-0.8
		l-0.3,1l0.9,1.5h-2.6l-1.5,1.4l-1.5-1.1l0.8-3.1l1.4-2.7l-0.2-1.2l2.1-3.1l0.2-2.5l-3,5.4l-0.9,2.4l-1.2,0.1l-1.2,2.4l-0.6,3.3
		l1,1.2l2.4,0.3l0.3,2.1l-2,2.1l-0.9,1.8l1.1,0.9l0.8-1.8l1.3-1.2l1.5,1.9l0.8,2.1l-0.6,4.6l-1.5,1.4l3.4,2.5l1.5,2l-0.6,2l-2.3,1.6
		l-2.5-0.8l-1.5-1.5l-1.5,2.7h-1.8l-0.8,0.9l-1.8-1l-1.5,1l-0.8-1.2l-1.4,0.6l-1.5-0.6l-0.8-1.2l-1,4.2l-2,0.8l1.1-3.5l-0.9-3.9
		l-1,0.6l0.4,3.1l-0.4,1.8l-1.2,0.3l-0.4,3.1l1.3,0.8l-0.2,1.8l-1.5-0.8l-0.8-3l-1-0.3l0.4,4.5h-1.5l-1.2,0.9l-3.3,3.9l-2.3,3.5
		l-1.2,0.5l1.5-5.1l-1.4,0.9l-1.2,2.5l-3.2,1.2l-0.3,1.5l-2,1.8l-0.3,2.3l-2.4-0.8v1.2l-2.7,0.5l-1.9-1.2l-2,1.6l-0.1,1.1h-2.3
		l-1.4-1.2l-1.9-1.2l-0.3-1.6l1.2-1.5l0.3-1.5l3.5-2l1.2,0.3l0.5-1.5l1.5-0.5l1.7-1.5l3.9-5.5l-1.8,0.3l-3,2.7l-2.3,1.5l-2-0.3
		l-2.7-2l-0.6-1.5l1.5-4l0.6-3.2l3.6-5.3l0.5-4l1-0.8l0.3-4.5l-0.8-0.8l-1.5-4l2.7-1.8l2.1-0.3l4.5-4.3l4.4-3l2.5,3.6l2.7,0.9
		l1.5-2.7l1.5-0.3l1.8,0.9l0.9-0.3l3,1l3.3,0.2l-1.3-1.5l-1.7,0.5l-2.5-1.5l-1.2,0.1l-1.9-0.8l-1.5-1.5l-3.3-2.1l0.8-1.5l1.2-0.2
		l1.3-3l1.1-0.6l0.3-1.5l2.1-0.8l1.4-1.2l-2.6-1l-3.3,3.1l-0.3,3.5l-0.9,0.8l-3-0.5l-3.4,0.6l-2.4-1.4l-0.8,1.5l-4,2.1l-1.8,3.8
		l-2.5,1h-1.5l-2,1.6l-2.3,3l1.5,3.3h-2.1l-2.3,1.8l-1.1,2.3l-1.2,0.6l-1.5,1.8l-0.3,1.8l1.5,1.5l-1.9,1l-0.3,1.5l-1.8,1.5l-3,0.5
		l0.2,1.5l2.4,3l-1.8,4.3l-1.5,1.1l-2.6-0.2l-3,0.6l-0.9,1.2l3.6-0.4l0.4,1.2l-0.8,2.9l-2.3,1.5l-1.8,0.5l-2-0.6l-1,1l-0.5,1.5
		l-2.4,0.3l0.9,2.3l-0.4,0.8l-4.5,1.3l-0.8,1.2l-0.5,3.8l-1.2,1.5l0.8,1.5l1.5,0.8l3,0.6l2.1-0.6l1.2,1.8l1.9,0.3l1.2,0.9l1.5,2.7
		l-0.8,0.6l-0.8,3l-2.3,1.5l-1.8,2.1h-3l-0.6,3.1l-1.8,0.2l-0.1,1.5l0.9,1.6l-2.5,1.5l1,1.2l-0.6,2l-1,0.8l-1.8,2.5l-1.5-1.5
		l-0.3,2.4l-1.7,1.1l-2-1.1l-0.8,1.5l-1.9-0.8l-1.5,0.5l-1.8,1.5l0.8,1.5l-0.4,1l-2.1,1.1l-1.4-0.2l0.3,3l-1.1,0.3l-2.8-2.3
		l-0.8,0.6l-0.2,3l-1.5,0.8l-0.1,2.3h-3.5l-1.2-0.6l0.3,3.6l-1.8-1l-3,1.5l-2.3,2.1h2.3l-0.1,4.5l-1.5,1.3l-0.2,1.2l-1.5,0.9
		l-0.3,1.8L499,398l-3.3,1.1l-1.8,1.3l-2.3,3l-0.9,0.6l-2.6-2.7l-1.5,0.8l0.8,1.8h-1.5l-0.9,1.6l1.2,1.1l0.2,1.4l-3,0.1l-0.9-1.9
		l-3,0.8l-0.9,1.2l2.1,1.2l0.3,1.4l-0.9,1.1l-3.6-1.5l-0.3,1.5l-3-0.8l-1.3,0.8l-1.5,1.9v1.1l2.6,0.6l1.8,1.1l-1.1,2.3l-1.9,1.9
		l-0.8,1.8v1.5l-2.9-1.1l-0.9,2.4h-1.5v-1.5h-1.5l-1.1,1.8l-7.5,1.2l-0.6,2.3l-1.5,0.6l-0.9,1.5l0.3,1.2l-1.5,1.8l-1.9,0.6l1.1-2.4
		l0.9-4.8l-2.4-0.9l-0.8,1.5h-2.7l-0.9,1.9l-2.3,1.5l-1.5,0.3L439,431l0.2,1.6l-1.4,2.6l-1.2,0.8l-0.4-2.6l-1.5,0.4l-0.1,2.4h-1.8
		l-1.2-2.3l-1.2,0.4l-1.4,1.9l-3.6,1.6l-1.9-0.9l-2.4,0.3l1.1-3.6l2.1-2.8l-0.9-0.8h-2.7l-1.9,2.6l-0.3,3l-3.4,4.1l-2.7,0.4l1.1,2.1
		v1.4l-1.6,0.6l-1.7-2.4l-0.9,1.3l-0.3,1.9l-3.9-1.1l0.4-1.9l-0.3-3.6l-1.1-1.5h-1.2l-1.1,1.9l1.1,0.8l0.8,1.8l-0.8,1.1l0.4,2.3
		l-1.2,0.4l-2.3,1.5l-2.3-0.9l-0.6-1.5l-0.3-2.3l-1.1-0.9l-1.8,0.3l-0.8,1.2l2.4,2.4l0.2,0.8l-3,2.3l-2.9,0.9l0.8,1.5l2.1-0.3
		l1.2,1.2l0.4,2.1l-2.6-0.8l-1.5-2.3l-1.5,0.8l-1.4,1.5l-1.6,0.9l-2.6-0.9l-5.4-0.4l-2.5,0.6l-1.8,1.2l-0.6,1.8l-1.8,0.9l-3,0.3
		l-3.2-1.2l-1-4.5l0.6-0.9l3.6-0.9l3.1-4.8l0.5-1.1l2.1-0.9l1.2,1.3l3-1.2l2.1-0.1l2.5-1.5l1.9-0.3l3.8,0.8l1.1,2.4l0.4,1.9l2.1-1.5
		l0.3-1.8l-0.2-2.7l3.4-1.1l2.3,0.6l2.1-1.2l-0.6-1.4l1.5-0.9l1.1,0.3l1.4-1.5l1.3,0.6l1.2-0.9v-2.1l0.6-1.3l4.2-4.4l3.4-2.3
		l2.7-1.1l1.5-1.5l10.8-2.1h4.8l-0.6,0.9l0.3,2.4l-1.6,0.3l-0.3,2.3l1.8,2.3l0.8-1.2l0.1-2.7l1.9,0.9h2.3l0.2,2.1h1.5l2.3-1.4
		l-4.4-3l-0.8-1.2l1.9-2.4l2.6-5.4l3.4-3l3.4-1.8l1.8-1.8l4.5-1.8l2.6-1.5l1.9-0.9l3.9-2.3l0.9-0.9l1.5,1.8h2.7l0.6-1.3l-0.6-1.2
		l0.3-2.7l2.4-3.8l2.4-3l2.6-2.1l2.3-0.9l2.6-3l3.4-2.3l0.8,1.8l1.2-0.5l-0.4-2.7h-1.2v-3l1.1-4.2l1.4-6.9l0.8-1l1.9-0.3l-1.9-3
		l0.3-3l1.5-3.2l1.2-0.8l1.2-1.8l3-2.8l1.5-3.5l-0.6-2.3l-1.2,1.2l-2.3,0.8l-4.1,2.1l-2.1,0.6l-2.4,1.3l-4.2,1.5l-1.3-0.3l-1.4-1.4
		v-1.6l-1.1-1.4l-1.9-1l0.8-1.5l0.8-3.9h-0.6l-1.5,2.4l-2.3,1.2l-0.2,2.7l-1.5,1.8l0.3,2l1.5,4l-1.5,2.1l-1.5,0.3l-2.3-1.1l-2.1-5.7
		l-1.8-4.1l-1.5-1.8l-1.9-0.8l0.9-1.5l-0.3-0.9l-1.6-0.2l-0.6,2.1l-0.8,1.2l-1.5,0.6l-1.8-3l-1.5,0.3l-1.8-2.3l0.6-1.5l-0.6-2.1
		l-2.4,1l-4.2,2.8l-3.8,1.2l-5.1,2.5l-0.8,2l-3.9,1.5l-0.9,0.9l-2.4-2.4l-3,0.2l-1.2-0.9l2.6-0.9l0.8,1l2.8-3l0.3-1.5v-4l-2.1-5.4
		l-0.8-3.5l1.9-2.7l1.1-0.4l1.5-1.8l1.2-0.4l-1.8-4.7l-0.3-2.5l-1.9-4.2v-2.4l-3-6l-1.5,0.4l-0.3,2.7l-0.4,1.2l-2.1,0.6l-0.8-0.6
		l-1.5,1.3l-4.2,1.5l-3.8,0.6h-3l-5.1-0.8l-2.4-1.4l-0.8-3.1l1.2-0.3l-0.6-1.8l-2.6-1.8l-1.2-3.8l-1.5-1.5l-0.4-1.5l-2.1-0.6
		l-1.3-1.2l-1.8-3l2.6-1.5l-1.1-1.4l-1.9,1.1l-2.4-0.8l0.2-2l1.5,0.3l3.3-2.5l1.3-0.5l-0.6-1.5l0.6-3.9l-1.6-1.4v-1.2l1.1-0.8v-3.8
		l-1.9-0.9l-1.1,2.3l-2.4-0.8l-0.6-2.1l0.6-3l-3-2.3l-0.1-2.4l2.1-0.6l0.4-1.2l-1.8-2l-3.3,0.6v-2.1l0.8-1l4.5-0.3l-2.3-2.1
		l-0.8-2.1l1.8-0.6l2.5,0.6l1.7-0.3l-0.8-3.3l0.4-3l1.3-1.8l5.7-5.7l0.8-1.2l2.6-2.3l1.7-3l2.4-0.9v-3l1.8-4.2l1.2-1.5l1.8-1.2
		l-0.4-1.2l3-2.7l3.8-0.8h1.4l1.6,1.5l1.9,0.4l1.1,2.3l3.3,3.5l3.6-0.3l2.7-2.1l0.6-1.5l1.9-0.3l3.3-3.8l0.3-0.9l2.1-2l0.4-1.5
		l2.4,1.8v1.2l2.4,0.3l2.1-0.2l1.1,0.6l3.4-0.3l2.3-0.8l0.4-1l2.9-3l1.9-3l0.1-1.5l-1.1-4.5L455,197l0.2-4.1l-3-4.8l-2.7-1.1
		l0.6-2.3l1.1-0.6l1.8,1.1l2.4,0.3l3-2.8l0.6-2.9l-1.5-3l-1.5-1.5l-1.6-0.6l-1.1,0.8l-1.2,2.1l-1.7,0.3l-1.6-1.2l-2.9,1.9l-3.4,0.3
		l-1.1,1.6l-3.9,2l-1.1,1.5l-0.4,2.4l-2.3,0.6V183l-2.1-2.9l-1.8-1.5l-1.2,1.1l3,3.6l-1.3,1.8h-0.8l-0.8-1.9l-1.9-2.1l-1.7-1.1
		l-2.7-0.8l-1.8,0.5l-1.9-0.8h-3.3l-5.1,1.9h-2.3l-4.5-2.5l-9.2-4.1l-1.5-1.8l-0.6-2.9l0.3-1.8l1.2-1.8l-1.1-2.1l-1.5-1.5V161
		l-1.5-1.9h2.7l2.3-1.5l0.1-1.2l1.8-1.2l-1.3-1.8l-3.4-0.8l-2.4-1.8l-4.9-1.8l-2.1-3l-2-1.8l-1.8-1.1v-2.3H378.4z"/>
	<path class="st1" d="M891.1,395.1l2.7-2.4l1,1.6l0.3,1.9l-1.4,0.4l-2.3-0.8l-0.6-0.9L891.1,395.1z M887.8,393.8l0.4-3.3l-1-0.8
		l-0.6-1.5l0.4-1.4l3,1.1l2,3.4v1.7h-2.6l-1.5,0.8H887.8z M881.5,386.4l0.5-1.6l3.4,1.9v5.1l-1.8-1.3L881.5,386.4L881.5,386.4z
		 M847.4,380.1l0.9-3.4l1.2-3.2l-1.6-1.5l-1.2-1.8l0.9-1.5l2.6-0.2l3.9-0.9l1.9,1.6l2,2.9l1.9,1.8h1.5l3.8,1.5l3.8,3l0.9,2.5l2,0.3
		l3,3.6l-4.8-0.9v2.9l2.3-1.7l1.6,0.6l2.3,2.1h0.9l1.4,1.8l0.1,1.4l2.1-1.4l0.6,1.2l0.3,2.6L881,396l1.8-0.3l1.5,4.5l1,1.5l-0.3,2.9
		l-1.6,0.8l-2.1-0.4h-1.8l-1.9-1.5l1.4-1.2l-2.6-0.4l-2.4-1.2l-0.1-3.8h-3.3l1.5,2.1l-0.5,1.5l-3-0.3v-2.4l-1.5-1.8h-3.1l2.7,2.6
		l3.8,5.6l2.1-1.9l2.1,0.9l1,2.8l-0.6,0.6l0.5,2.1l-1.5,0.8l-1.5-0.3l-0.6-1.3l-1.5-0.4l-4.5-3.4l-0.9-1.9l-1.5-1.2v-1.4l-0.9-2.4
		l-1.5,1.2l-1.6,0.4l-0.8-0.9l-0.3-1.9l2.4-2.3l1.5-0.6l0.9-1.5l-2.3-1.5l-0.8-2.6l-1.2,0.9l-3.1-1.2l0.4-0.8l-0.9-1.8h-1.5l0.1,1.6
		l-1.9-0.3l-1.4-1l0.3-1.5l1.5-0.8l2.3,0.6l1.1-0.8l-1.2-1.6h-1l-2.1-2l-2,3l-1.9-1.5L847.4,380.1z M862.3,363.2l0.6-2l1.5,1
		l-0.9,1.2L862.3,363.2L862.3,363.2z M855.1,366.2l0.3-2.3l0.9-1.1h1.6l1-0.9l2.3,1.2l-0.4,1.5l0.9,1.8l-2.9,2L855.1,366.2
		L855.1,366.2z"/>
	<path class="st1" d="M831.4,359.4l1.5-3l3.1-0.6l2.5,2.5l0.8-1.5l-1.8-2.7l-2.4-1.2l0.3-1.5l1.5-1l4.2-0.2l4.5,0.2l3.3-1.2l2.1,1.2
		l2,3h1.8l2,1.8l1.9,0.6l2.1,1.8l-2.1,2.7l-1.2,1.1l-5,0.6l0.6,0.9l-0.9,1.5h-3.4l-0.9,1.8l-2.3,0.5l-1.6-2.6l-1.1,2l0.8,0.5
		l0.6,2.1l-1.2,0.5l1,1.8v2.7l-0.4,1.5l0.4,2.4l-1.8,0.4v2.6l-1.1-0.2l-1.8-2.3l-0.8-2.5l-1.2-1.8l-0.4-1.7v-5.3h-2l-0.3-1.8l-1.5-1
		L831.4,359.4L831.4,359.4z M856.7,369.3l1.5-0.5l2.1,2.7l-0.6,0.6l-1.9-0.9L856.7,369.3L856.7,369.3z M852.1,393.3v-3l1.6-0.3
		l0.8,1.1l1.6-0.6l0.3-1.5l1.2-0.6l1.2,0.6l0.1,1.5l-2.1,1.9l1.2,1.1l-1.8,2.4l0.1,2.4l-1.6-1.4l0.3-1.8l-0.6-1.6l-1.9-0.8l-0.6,0.6
		H852.1z M839.6,384l1.4-0.9l1,1.5l-0.4,1.2L839.6,384L839.6,384z M811.3,320.3l4.4,2.7l1.2,2.7l1.6-1.5l3,0.5l2.1-1l0.9,2.1
		l1.8,1.2l4.5,4.8l1.2,3.2l-1.6-0.5l-1.5-2.4l-0.9,0.6v1.5l2.6,2.1l1.5,0.8l0.1,1.2l2.3,2.4l-0.9,0.6l1.5,2.3l-0.9,2l-1.2-0.3
		l-0.8,3.6l-3.4,6.3l-1.5,0.3l-1.1-1.8l-1.2-3l1.2-3l-1-0.5l-0.5-1.5l1.6-0.3l-3-2.6l-0.4-1.5l-1.4-1l-1.6-2.5l-0.5-3l-1.2-1.5
		l-2-4.2v-1l-3-2.5l-0.9-1.7L811.3,320.3L811.3,320.3z M808.9,351l1.5-2.3l-0.1-2.3l1-2l3.6,1.2l2.6,1.2l3.1-0.6l1.2,1.5l0.3,2.7
		l3.3,6l0.5,1.5l1,1.2l2.3,4.2l1.5,4.7l-0.6,0.6l1.6,3.5l1.2,3.6l0.3,2.8l-2.7-1.2l-1.1-1.8l-2.1-1.8l-5.7-6.6l-1.5-0.3l-2.6-1.5
		l-1.5,0.5l-1.6-2l1.5-1.2l-0.1-1.5l0.6-2.4l-2.5-1.5l0.8-1.7v-3l-1.8,0.3l-0.9,1l-1.2-1.7L808.9,351L808.9,351z"/>
	<path class="st1" d="M792.1,339.5l-0.8-4l2.1-2.7l-1.4-3.2l1.6-0.4l1.5,2.5l0.9-1.8h2.4l0.6-1.5l1.5-1.5l1.1,0.9l2.3,0.2l2.5,1.5
		l0.6-0.5l2.1,0.8l2.4-0.5l2.3,0.6l1.5,1.5l0.1,1.6l-1.5,2l2.1,1.2l-1.6,1.9l2.6-0.3l0.4,1.5l1.2,1.5l1.5,3l-0.6,1.5l-2.7,0.6
		l-3-1.5l-5.5-2.1l-0.9,1.5l1.5,0.9l0.9,2.5l-1.2,3.8l-3-0.3l-0.1-0.9l-2.7-1.3l-1.6-1.8l-1.5,0.3l-1.1-2.3l-2.7-3.5l-1.5-0.3
		l-0.6-1.1l-1.5-0.4L792.1,339.5z M807.5,354.9l-0.6-2.6l1-0.6l2.3,0.9l1.2,1.5l2.7-0.8l-0.3,2.1l-1.1,0.8l-0.4,4l-3,1.2l-0.5-2.4
		l0.9-1.5l-1.5-0.9L807.5,354.9L807.5,354.9z M647.9,297.6l0.8-0.4l3,0.3l-1.2,1.2L647.9,297.6z M623.5,317.4l0.3-2.3l2.4-4.1
		l1.4-0.9l2.3-2.7l0.9-3l1.2-1v-2.7l1.3-1l0.8,2.1l1.5,1.1l-2.7,3l-2.1,3.4l-0.1,2l-1.5,1.5l1.5,1.4l-0.8,1h-2.3l-0.8,1.5l-2.6,1.2
		L623.5,317.4L623.5,317.4z M628.7,286.2l1.2-0.9l1.5-0.3l-0.2,1.7L628.7,286.2L628.7,286.2z M627.1,291.9v-1.2l1.1-0.6l1.5,2.1
		l-0.5,1l-1.8,0.5l-0.2-1.8H627.1z M622,304.7l1.5-6.6l2.3-2.7l0.5,5.4l-0.9,2.4l-0.5,3.6L622,304.7L622,304.7z M619.9,291.5
		l0.6-0.9l1.8,1.5l-1.1,1.2l-1.5-1.8H619.9z M584.6,332.7l1.3-2.3l0.8,1.5l-1.5,1.8L584.6,332.7z M547.6,368.9l1.5-1.9l1.4-0.8
		l2.5-3.9l3-2l2.6-3.8l-0.2-1.5l1.3-1.8l0.9,0.8l2.1-1.2l0.3,1.4l-2.4,4.5l0.3,2.1l2-0.4l1.2-1.5l1.1,1.8l1.7-0.5l1.5,0.5l0.4,2.3
		l-0.3,1.5l-1.4,1.8l-1.6-0.6l-0.6-1.8l-1.2,0.6l0.8,2.4l-1.1,0.5l-2.1-0.3l-1.7-1.4l-0.9,3.3l-1.5,0.4l-0.8,1.5l-2.4,0.3l-4.5-1.8
		l-2-0.3V368.9z M565.3,305.3l1.5-2l0.2-2.7l1.5,0.6l-1.2,1.5l-0.2,1.8L565.3,305.3L565.3,305.3z"/>
	<path class="st1" d="M527.5,388.4l1.1-0.4l0.3-1.8l0.9-1.8l4.2-3.3l1.8-0.8l3.6,0.3v2.7l1.5,0.3l1.1-1.3l-0.8-3.3h-1.1v-3l3-2.1
		l2.4,1.5l0.3,3.3l0.8-0.3l0.6-3l-1.2-2.5l1.2-1.1l2.7,2.1l0.5-3l1.5,1.5l1.5-0.5l2.3,0.8l0.4-1.2l1.5,0.8l-2.1,3l2.5-0.6l1.2-1.7
		l1.3,0.5l1.1-1.8l1.5,2.1l1,2.7l-2.1,0.5l-0.2,2.5l0.6,1l4.1,0.6l-0.2,0.9l-1.8,2l-0.8,2.7l-2.1-1.2H559l-1.2-1h-2.1l-0.4,1
		l2.3,0.3l2.5,2.1l-0.4,1.5l-1.8,0.6l-1,1.2l-1.4-1.5l-1.5,0.6l1.1,1.1l-3.3,2.3l3.2-0.1l0.6,1.5l-4.5,1.5l-1.5,1.2l-1.3-1.2
		l1.8-2.6l-1.1-0.6l-1.9,3l-1.5,1.1l0.6,1.5l-0.8,1.5l-1.5,0.4v1.7l-2,0.6l-1.2,1.9l-1.1,0.8l-2.3-1.1l0.8-1.5l2.1-2.1l-0.8-1.4
		l1.8-4.3l-1.8,1.5l-1.5,2.7l-2.1,2.6l-2.4-2.4l-2.1-0.9v-2.4l-0.3-3.1l-1.1-2.1l-1.2-0.4L527.5,388.4L527.5,388.4z M545.3,332.1
		l2.1-0.6l0.6,2.1l-2.1,0.5L545.3,332.1z M533.6,411.3l1-1.5l3-0.6l0.8,1.6l2.6-0.3l-1.2,1.7l-4.2,0.4l-1.8-0.4L533.6,411.3
		L533.6,411.3z M536.6,407.1l1.8-1.1l0.3,1.2L536.6,407.1L536.6,407.1z M526.7,414.2l1.5-2.4l2.7-2.1h1.3l0.8,1.2l-3.6,2.3l-1.5,1.9
		L526.7,414.2L526.7,414.2z M511.9,430.8l3-1.5l-0.6,3.3l-2-0.3L511.9,430.8L511.9,430.8z M488.3,410.1l1.2-1.2l2.7,0.3l-1.5,1.2
		L488.3,410.1L488.3,410.1z M454.3,453.5l0.8-1.5l1.2,0.8l-0.6,1.5L454.3,453.5z M452.2,451.8l0.8-1.3l-0.3-1.8l1.5,0.3l0.2,2.4
		L452.2,451.8z M449.5,444.9l2.1,0.3l0.4,1.5l-0.8,1.4l-1.8,0.8L449.5,444.9L449.5,444.9z M439.6,451.4l2.1-2.3l-0.6-3l2.3-2.1
		l2.3,1.3l0.4,1.9l-4.2,2.7l-1.2,1.8l-1.1-0.6V451.4z M437.2,348.9l0.8-3l3.2-1.1l2.4-1.5l-3.4,6.2l-2.8,0.6L437.2,348.9
		L437.2,348.9z M439.4,437.4l1.4-0.9l1.9,0.6l-0.3,1.7l-2.7-0.4L439.4,437.4L439.4,437.4z M431,439.7l1.2-1.6l1.5-0.4l1.9,0.6
		l2.3,1.5l1.5-0.4l0.3,1.7l-1.5,0.3l-2.9-0.6l1.2,3l-0.8,1.8l-2.1-1.1l-0.3-1.5H431L431,439.7L431,439.7z M432.4,208.5l1.9-1.2
		l1.9,0.6v2.1h-3.2L432.4,208.5L432.4,208.5z M414.1,443.3l1.3-1.5l2.6,1.5l-1.5,2.1l-1.5-1.9h-1.1L414.1,443.3z M405.1,447.5
		l1.8-1.4l1.5,0.8l-0.3,2.1l-0.9,1.1l-1.2,0.1l-1.1-1.5v-1.2L405.1,447.5z M396.8,459.8l0.3-1.2l3.8,1.8l0.9,1.1l1.5,0.1l-0.9,1.9
		l-3.8-2.1l-1.2,0.4L396.8,459.8L396.8,459.8z M355.6,290.9l1.9-0.3l2.7,0.5l1,0.8l2.6,0.6l0.3-1.5l2.1-1.3l1.8-0.3l1.5-0.9l1.5,1.4
		l2.3-0.6l1.5,2.3l1,0.5l1.5-0.6l2.5,2l-0.9,1.5l0.4,1l-0.3,2.7l-0.8,0.8l1,4.7h-3.6l-2.7,0.3l-1.6,1v1.5h-1.2l-0.9-2l-1.5-1.3
		l-3-0.5l-4.3-4.5l-1.5-0.6l-1.5-2.3l-1.2-0.6l0.3-1.5l-0.9-2.7L355.6,290.9z M357.1,463.4l1.5-0.4l1.9,0.6l-0.6,1.5l-2.7-1.5
		L357.1,463.4z M321.7,187.2l2-3l0.9-3l0.9,0.2v3l2.3,2.1l3.6,2.4l1.5,0.6l3.2-1.3l2.8-0.6l2.4,0.9l1.6,2.4l-0.1,3.4l2,2l2.4,0.9
		l0.9,1.8l3.1,1.5l3.3,0.9l3.5,2.3l-1.8,2.7l-1.2,0.8l-2.1-1.3l-1.8-0.5l-2.4,0.2l-2.4,1.7l-1,2.6l-1,0.9l-1-1.3l-0.5-3l-1-1.8
		l-1.8-1.9l-1.6-0.3l-0.6-3.2l-1.8-2.5l-3.3-2.6l-2.9-0.9l-2.3,0.4l-1,1.2l-1.8,0.3l-3-2.6l-0.5-2.1L321.7,187.2L321.7,187.2z
		 M350.5,458.1l1.8-0.6l1.2,3l-1.5,1.8l-1.2-0.9l0.2-1.8L350.5,458.1z M343.3,459.8l2.3-1.7l1.8,0.4l0.3,1.5l1.5,0.3l0.8,1.9h-5.1
		l-1,0.3L343.3,459.8z M310.6,476.7l3-1.5l1.2,0.3l3-0.9l1.5,0.8l3.3-2.1l1.3,0.4l-0.5-2.6h1.5l0.6-2.3l1-0.3l2.7,0.8l0.9-0.6
		l-3-1.5l-0.8,0.2l-1.5-2.3l0.2-1.1l2.3-1.8l2.7-0.6h3.9l0.5,0.9l-1,1.5l1.2,1.5l2.1-0.4l0.3-1.2l2.7-0.3l0.8,1.5l-0.6,1.5h-1.5
		l-1.5,1.3l-0.6,1.2l3.6-0.9l1.7-0.8l-0.2,2.3l-3.3,1.9l-4.6,0.8l-0.9,2.6L331,476l-1.2-0.8l-0.6,1.7h-2.1l-4.2-0.8l-3,1.2l-2.5,0.6
		l-1.1,1.2l-1.5-0.9l-1.2,0.9l-2.3-1.5L310.6,476.7L310.6,476.7z M288.4,484.5l1.5-0.3l0.5-1.4l1.8-0.4l0.3-1.3l1.5-0.4v-1.8l1-1.8
		l3.3-1.8l0.8,0.8l3.3,0.4l-0.2-4.2l1.5-1.5l2.6-1.2h3.3l1.5,1.5l1.8,0.9l-1.5,1.5l-0.1,1.5l-3.8,1.5l-4.1,0.8l-1.6,2.1l-3.3,2.7
		h-1.5l-2,1.2l-6.6,2.1L288.4,484.5L288.4,484.5z M300.7,380.7l4.2,1.2l-1.5,1.6l-2.7-3V380.7z M295.1,363.6l0.8-0.9l3.5,0.1
		l-0.5,1.4l-2.1,0.1L295.1,363.6z M283.1,264.3l0.8-1.5l1.5-0.9v3l1.2,1.9l1.9,2.1l2.1,0.6l0.9,2.1l-2.4-0.8h-1.5l-1.2-1.5l-1.8-3.9
		L283.1,264.3L283.1,264.3z M272.6,481.4l2.4,0.2l1.7-0.6l1.5,1.2l-0.9,1.8l-2.1-1.2l-2.3,0.3l-0.3-1.8L272.6,481.4z M268.9,483.8
		l0.6-1.5l1.8,0.8l-0.6,1.3L268.9,483.8z M257.5,484.4l0.5-0.9l1.8-0.8h1.7l1,0.9l-1.2,1.8L260,485l-2.3,1.2L257.5,484.4z
		 M248.9,485.3l1.2-0.8l0.8,1.1l-1.1,1.1l-0.9-1.5V485.3z M226,484.4l1.2-1.1l2.4-0.4l1.8,1.2v1.1l-2.1,0.9l-3.4-0.3l0.2-1.2
		L226,484.4z M201.4,481.8l2.1,0.6l1.7,1.3l3.3-0.3l3.9,2.9l3.9,0.8l-0.9,1.2l-2.5-0.8l-1.5,0.3l-2.6-0.8l-0.9-0.9l-4.8-1.5
		L201.4,481.8L201.4,481.8z M179.6,477.9l5.3,0.3l6.3,1.1l1.8-0.3l0.4-1.1l2.6,0.8l1.9-0.3l1.2-1.3l-1.8-0.8l1.5-2.3l2.7-0.4
		l1.5,1.5l0.6,2.8l-1.7,1.5l-2-0.9l-0.3,3l-2.6,0.3l-0.6-1.1l-2.1,1.9l-1.3-1.1h-4.1l-0.6-1.1l-3-1.1l-0.9,0.4l-3.3-0.9L179.6,477.9
		L179.6,477.9z M169,475.5l2.4,0.6v1.5L169,475.5z M165.8,471.8l1.2-0.8l1.5,0.8l0.8,2.3l-1.5,0.4l0.4,1.5l-1,0.4l-2-1.1
		L165.8,471.8L165.8,471.8z M163,478.1l0.8-1.2l2.1,1.2l2-0.9l0.1,1.5l-3,1.1l-1.9-1.5V478.1z M148.9,478.8l0.4-0.6l2.6-1.4l0.1-2.3
		l2,0.6l0.9-1.2l-0.3-1.8l1.1-0.9l1.8,1.1l2-0.3l-0.5,1.5l-1.5,0.3l0.2,1.8l4.9,0.9v1.5l-1.2,1.9l-3.6-1.1l-2.7,1.2l-1-1.1l-1.1,0.9
		l-1.5-1.8l-1.8,1.9L148.9,478.8L148.9,478.8z M138.1,472.5l1.4-0.3l1.2,0.9h5.1l1.4-0.3l1.2-2.8l1.8,0.3l0.5,1.3l-2.3,1.5l-0.6,2.4
		L145,476l-1.5-2.3l-1.9,0.1L138.1,472.5z M131.3,464.9l2.1-0.3l2.7,1.2l1.2,4.1l-1.9,2.6l-3,0.3l-0.8-2.4l2.4,0.4l0.6-1.5l-1.2-0.4
		l-2.1-3.2V464.9z M120.1,463.1l1.5-0.8l0.8,1.2l-1.8,1.1l-0.3-1.5H120.1z M95.8,447.6l3.3,0.2l1.2,2.1l-1,1.4h-2.4l-1.2-1.2
		C95.6,450,95.8,447.6,95.8,447.6z M78.5,450.6l4.2,2.4l1.5,4.2l1.5,1.5v1.6l2.4,1.4l-0.6,0.6l-1.9-0.3l-2.1-3.9l-0.8-3l-1.5-1.5
		l-1.9-1.5L78.5,450.6L78.5,450.6z M79.6,440.7l1.5,0.9l0.3,0.9l-1.9,0.6v-2.4H79.6z M59,434h1.6l1.5-0.6l2.5,0.3l2.6-2.7l1.5,1.5
		l-3.6,1.8l-0.3,1.8l-2.3-1.5l-2.7,1.4L59,434L59,434z M6.5,392.1l1.9-0.6l1.2,0.9l2.1-0.6l0.9,1.3l-1.4,3l-1-0.6l-0.5-1.5l-1.9-0.6
		L6.4,392L6.5,392.1z M0.1,372.2l3.4-0.5l1.8,0.8l5.1,3.3l0.9,2.3l1.1,0.9l0.8,3l-2-0.5l-0.8-1.4l-1.6,1.1l-2.6-1.5H4.6l-1.4-2.6
		l0.6-1.3l-1.1-2.1l-2.1-0.4l-0.5-1.1H0.1z"/>
</g>
<g id="sites" class="st0">
	<circle id="sntl_1267" class="st1" cx="579.8" cy="265.7" r="9"/>
	<circle id="sntl_1189" class="st1" cx="689" cy="167.6" r="9"/>
	<circle id="sntl_1062" class="st1" cx="576.4" cy="318.3" r="9"/>
	<circle id="sntl_1070" class="st1" cx="596.9" cy="282.3" r="9"/>
	<circle id="sntl_1182" class="st1" cx="566" cy="122.7" r="9"/>
	<circle id="sntl_1260" class="st1" cx="619.1" cy="178.8" r="9"/>
	<circle id="sntl_1093" class="st1" cx="693.1" cy="243.8" r="9"/>
	<circle id="sntl_958" class="st1" cx="580.3" cy="112.8" r="9"/>
	<circle id="sntl_959" class="st1" cx="597.8" cy="302.4" r="9"/>
	<circle id="sntl_953" class="st1" cx="603.5" cy="268.4" r="9"/>
	<circle id="sntl_1092" class="st1" cx="599.2" cy="308" r="9"/>
	<circle id="sntl_1268" class="st1" cx="643.3" cy="219.6" r="9"/>
	<circle id="sntl_1285" class="st1" cx="785.5" cy="299" r="9"/>
	<circle id="sntl_641" class="st1" cx="601" cy="264.5" r="9"/>
	<circle id="sntl_429" class="st1" cx="506.9" cy="184.1" r="9"/>
	<circle id="sntl_956" class="st1" cx="606.1" cy="295.8" r="9"/>
	<circle id="sntl_963" class="st1" cx="643.4" cy="198.8" r="9"/>
	<circle id="sntl_964" class="st1" cx="602.9" cy="305.7" r="9"/>
	<circle id="sntl_1270" class="st1" cx="810.2" cy="312.2" r="9"/>
	<circle id="sntl_1091" class="st1" cx="600.7" cy="263.3" r="9"/>
	<circle id="sntl_946" class="st1" cx="599.5" cy="283.5" r="9"/>
	<circle id="sntl_1275" class="st1" cx="691.3" cy="185.3" r="9"/>
	<circle id="sntl_1072" class="st1" cx="576.2" cy="215.9" r="9"/>
	<circle id="sntl_1175" class="st1" cx="452.2" cy="89.9" r="9"/>
	<circle id="sntl_966" class="st1" cx="586.7" cy="293.7" r="9"/>
	<circle id="sntl_947" class="st1" cx="623.8" cy="168.2" r="9"/>
	<circle id="sntl_1001" class="st1" cx="828.7" cy="321.3" r="9"/>
	<circle id="sntl_1096" class="st1" cx="688.1" cy="265.1" r="9"/>
	<circle id="sntl_785" class="st1" cx="518.8" cy="233" r="9"/>
	<circle id="sntl_1003" class="st1" cx="577.4" cy="321.5" r="9"/>
	<circle id="sntl_1094" class="st1" cx="617.9" cy="219.5" r="9"/>
	<circle id="sntl_949" class="st1" cx="634" cy="168.3" r="9"/>
	<circle id="sntl_1035" class="st1" cx="605.3" cy="274.4" r="9"/>
	<circle id="sntl_1103" class="st1" cx="605" cy="286.1" r="9"/>
	<circle id="sntl_1073" class="st1" cx="650.9" cy="293" r="9"/>
	<circle id="sntl_948" class="st1" cx="630.1" cy="164" r="9"/>
	<circle id="sntl_950" class="st1" cx="630.7" cy="175.1" r="9"/>
	<circle id="sntl_987" class="st1" cx="569.5" cy="332.7" r="9"/>
	<circle id="sntl_955" class="st1" cx="599.6" cy="296" r="9"/>
	<circle id="sntl_967" class="st1" cx="590.2" cy="254.4" r="9"/>
	<circle id="sntl_1266" class="st1" cx="540.2" cy="287.9" r="9"/>
	<circle id="sntl_951" class="st1" cx="638.5" cy="171.5" r="9"/>
	<circle id="sntl_1089" class="st1" cx="580.1" cy="241.1" r="9"/>
	<circle id="sntl_954" class="st1" cx="604" cy="291.2" r="9"/>
	<circle id="sntl_1055" class="st1" cx="650" cy="275.1" r="9"/>
</g>
</svg>
