<svg xmlns="http://www.w3.org/2000/svg" viewBox="0 0 631.8 468.6">
  <g id="map-alaska">
    <path id="AK-1" d="M345.6 26.7l2.1.2 4.6 2 2.6 1 5.9 1.4 11.5 3.8 4.3 1.7 7 3.4 3 1.7 4.8 4-.1 1.6-1 .6h-1.7l-1 2-1.6.4-.3 2.8 1.2 1 1.3.6 1.3 1 1.1 1.7 3.8 2.5.5 1.6 1.6.9.2.8 2.7 1.4 1.9 2.6 2.3-.1 2.5-.9 2 1.2.6 1.6 2.2.8-.2-2-2.6-3.6-1.4-1.1-2.4-.8 1.5-1 .7-1-.8-2.9.3-1.5-.5-1-1.6-1.7.2-2.6.7-.5 2.8 1.3.1 3.6.4 1-1.3.4-.4.8.8 4 1 2.1 2.5 1.2-.8-1.7.3-.5-1-2.2-.5-2.6 2.6-1.6 1.8-.3.6 1.1.9-.4-1.6-2.8L410 52l-1.3-.4-2.3-1.5-1-2-1.6-.6-.7-1.3-3.5-4.5-1.6-2.2 1.3-1.8.9-3 .3-3.5-.5-1.6-1.6-3.4-2.3-6.9-.6-2.2-.9-1.8-2.4-3.3-.4-1.1.1-1.2-.7-2.3-1.6-2.7-1.8-2.3 4 2.2h1l1.7-.8 2.8-2.3.9-1.4 4 4.1 2.6 2.3 5.8 4L414 13l2.8 1.2 5 1h3.8l2.7-1.2 1.6-2 3.1-1.5h4l3.4-.3h1.7l5 1.4 2.4 2.6 2 1.6 4.4 2 3.5 1 3 .6 2 .1 4.8.6 4.5 2-.2.6 1.2 1.7 2.2 2 2.7 1.3 2.7 1.9 2.5 1 2.8.8 3 .2 5.7-.3 2.5.7-.2.9 1 1.4 2.2 2-.2 1.1 1.1.2 2.4 2.4-.7 1.6-3.2-.5-1.5-.7v2.2l1.8 1.4 1.4.4.7-1.1 2 .2 1-.4 2.7.4 2.4 4-1.5 2.7 1.9 1.2.8 1.8 2 .4 1.4-.2 3.4 2.3 2.3 1 2.5 2.3 2.4 1.8 2.7 2.8-2.2.6-1-.2-.3 1.3 2.5 2 .3.9 1.7 1.3.3 1.2H529l2.7 1.7 3 3h2.3l3.9 2.1.7 1.9 2.7 1.1 2.4.2.2.5 3.3 1.6.1.6 2 1.3 1.4 2 1.3 1.2 1.7.7.7 2.7 3 1 1.9 2.5.5 1.7 2.8 2h1.2l.2 1.3 1.4 1h1.2l5.3 3.3 1.3 1.4 2.7 1.5 1 1.7 3 3.4 5 3.2h2l5 1.5h.6l3 1.2 1.2 1 1.4.4 4 4 1.7 2.2.4 1.3 1.2.7 2.2 2.7 2 1.7 1.8 2.6 1.9 1.2 1.6 1.6-66.7 130.1-3.2 6.4-6.8 13.1 4.4 4.2 1.4-1.2 4 4.7 4.5-1.1 6.8 3-.3.6-3.3 3.3.8 2.5 3 3.3-.3 3 6.7 14.6-1 5.2-.9 1.3.9.3 2.8-.7 5.6-.4.6-.2 2.8 1.2 2.2-1.6 1.4-3.3 1.9.9 1.5-1.4-1-1.3h2.1l2.9.9 6.3-.2 1.7 3 .5 1.7 1 1.8-.7 1.6-1.2.5.9 1.2-.8.6.3 1.5 2.6 1.9-.2 1 .8 1.8 1 .3.4 2.2-.8 1 .8 2.9 3.7 4.4.6 2.8 2.4 4.9-1.3.4.4 2.3 1 3.2v3.5l1.3 3.9.2 3.1.5 2 .3 2.9 1 3.8.4 3-2.3 1.6 3.5 2.4-2.3 2.9 2.5 2.5-.7.8v1.2l-.4 2 3.1 1 .9 1.7 2.8 3.3.7 1.2 3.3 2.2 1.2 2.6 1.7 1.2-.2 2.1 1.8 1.7 2 .1.3 2.7-.9 1.7-1.4 1.5-1.2.7-.2 1.8-.9 2 .1 2.8-.5 2.3.1 1.3-2.2 1.1-2 2.1-1.7 1.4-3.2 1.5-2.5.5-1.2 1-.1-2-1.6.2-.6-.7.5-3-.2-1.4 1-1.3-.5-1.3v-1.6l1.7-.5 2.1-1.7v-1.5l1.4-1.8.9-3.3v-1.3l-.9-3.4-.3 2.8.3 1.8-.3 2.3-1 .4-1.2 2.7-1.3 2-2.2 1-1.4-1.3-1.5-.7-.1-2-1 .4-1.3-1.9-1-2.6.4-1.3 2.7-.3-.3-1.4.7-1 1.3-3.8-1.6-.2.3 1.6-1.8 2.4-3 2.6-1.8-2.8.3-2.4 1.3-1.6 1.4-.2 1.5-2.2.3-1.8 1.7-.8 1-1-1-.5-.6.8-2.3.8-.2 2.1-.6.6-1.4-.7-1.8-1.4.3-2.3-1-.5-1 .4-.1-2.5.6-1.3 1.5.1 1.7-1.5 2.2.8.5-3 1-1.5-1-.2-1-1.9 1.1-2.3-1.9-2.5-.5-2.1.4-2.4-1.6-1.6-1.2-.6-.1-1.1h-1.3l-1.8-2.2.2-1.3 1.1-1 .6.7 1.2-.5-1-1 .2-2.8 1-1.5-1.4-.6-.3-1.1 1-1.6 1.3 1.2 2.1 1.3-1.8-3.2.5-1.5-2.1.5-.5-3.3-1.4-3.3.5-2.4v-1.2l-1.9.2-3.8-2.9-.4-3.5.5-1.8-.7-2.9.8-1.2.7-2.9-1.1.6-.9-1.8 1.2-4.5v-2.5l-.4-2.3-1.1-.3.8 2-.1 2.3-1-.2-1.1 2v7.7l-.9.5v3.3l-.5 2.3h-.8l-.5 1.8-2-1.5-.6-2.4.2-1.5h-1l-1-1.5-1.3.1-2.2-.6.7-1.2.6-2.4.6-.8-.4-2.2v-2.2l-1.2.7-1-.4-2.1-2.8.3-1.8-1.5.2.1 1.1 1 1.7.7 2.7 1 .5-.4 1.8.5 1.7-.4 2.7-1.1.4-2-.3-.3-1.5-1.2 1.2-1.6-1.2-1.4 1.6-1.2-.6-.4-1.7-1-2.7-1.8-.9-3-5-1.4-2.1.2-.8-1.7-3.4.7-1.6-.7-2.3-1.6-2.9-3.2-3.2-2.1-3.6-4.4-5-3.3-5.1 2.3-1.1 1.5.6 1.2-2.3.3-2 1.7-.6 1-.7-.4-1.2-1.4 1.3-1.1-.1-1.8 1.4-4.9-.6h-2l-3.5-2.1-2.3-1.9-4.5-5.3.4-.7 1.4.3 1-.8-.2-2.6-1.3 1.7-2.4-.4-1.5-.7-1.5-1.9-2.1-1.5-3.9-3.3-3.8-2.2-2-.5-3.7-1.7-3.3-1.2-2.5-.5-1.1-1.4-2-.5-3.3.4.3-.9 3.3-.4 1.7 1v-1.4l-1.5-1.7-1.1.5-1-2.8-3.7-2.7 2.2.2-2-2 2.7-1.6-2.5-.6-.4.9-1.3.5-1.4-1-1.8-3-.4-1.4-1.2-1.3-1.5-.2-.2-1.1-3.5-1.1-1.4-1-.4.9 2.4.9-.7 1h-1.4l-1.6-.8-3 .1-.5-1.2.8-2 2.3-.9 1.1 1.3 2.2.1 1.5.6 2.6.4.2-1.3-1.6-.8-1.2-1 3.3-.2-5.3-1.7-1.6-1.2.1-1 4 1.3.6-.5-2.4-1.1-.5-1.7-.9-.7 1-1.2 2.6-1.3 3.6 2v-.7l-3.3-2-1.4.5-1.1-.2-1.5.7H485l.8-2-1-.4-1.5 1.3-.7-.6-2.3.1-.6-.7.4-2.6-1.4.3-.6 1.8-1.4-1.7-1.2 1.6-1.2-1-1.6-.1-.7-1.5 1.9-1.3 2-.8.5-.7 2.9-.7-.2-.7-3 1-1.8.7-1-.5-1.8.7-1.8 1.5.2 1.3 1.6 1.3-.7 1.3-2.3.1-1.5.6.5 1.1 1.3-.7h1.4l.3 2-.3 1.5-2.6 2.2H466l1.2 3.2.2 1.8-1.2.8-2.3-.2-1.5-1.7-.3-1.6.8-.7v-1.2l-3.1 2.6v-1.4l-2.2.7-.9-1.5-1.4-.1v-1.1l-1.2-.3-.9-1.2v-1l-2.6 1.8H449l2-2 1-2.7-1-.2-1 2.1-1 .8-1-.5-1.6 1.7.6 1-.9 1-.7-1.2.7-2-.6-.9-1.6 3-.8.7-.3-3-1.2 1.3-4 .6-3 .9-1-.4 3.2-2.2-1.4-.1-1.7 1.1-.7-1.3-.9 1-1.4-.9-.9.7h-2l-1.2 1.2-1.4-1.6-.5.7-2.1-1.2-.9-1.6h-1.2l-1.3.5-1.7-1-.3-1.4-1-1.7.6-1.1 1.4-.2.8-.9 3.2.7.8.8.9-.7 1.4.5h1.8l5-1.2-1.4-.7h-3.2l-2.3-.3-1.3-1.1-1-2.5.2-1.2 2.6-1.5 1.8-1.5 4.8-1.1 2-2.1h1l2.1-2.3-.2-.9.7-3 2.6.4 1.5.9 5.2-.2 4.3.5.4 3.4 1.6 1.9 2.2-.8 1.1.6 1 1.4.7.3 1.9 2.1 2.1 1.8-.2-1.5-1.4-.7-1.3-2-.9-.6-1-1.5-.4-1.5-1.4-3 2 .2 2.1-1 1 .2.8-.6 1.9.6h1.5l-1.4-1.8h-3.7l-1.7 1.8h-1l-1.9-1.8-2.7-1.4-1.3-2-1 .3-4-.8-2.7 1.2-2.4-.7-1.1-.8h-2l-2.9.5-.3 2.6-1.4-1-2.4-.2-1.6.8-1.3-.3-1.8.3-.9.9.4 1.4-1.7-.2-.8.7-3.3-.3-1-1-.5 1 .5 2.8-3.1 1.6-1.5-.1-1.8-1.4-1 1.6-1.6 1.2-2.3-.2-1.4-.7-1.1-1.2h-1.3l-.8.7-1.9-1.1-.3 1.7-.6.3-3.7-1.5-1 .4-1.9 1.7-1.5.6v1.1l.6 1.2 2 1.8 1.8.8v1.6l1.3 1.2.4 1v2.4h-.8l-1.7 1.2H394l-.9.4-1.2-.1-2.3-1.5-1.6 1.6-1.3-.8-.7.7v1.5l-2.5-.3.3 1.2-1.2.8h-1.1l-2.3.6-.3-1.6-1.3 1.2-1.7-.2-1-1.5-1.5.2-.6-1-1.1-.5h-2v1.2l-.8.4-2-.4-.8-.7-1 1.9-1-.3-1-2.7h-.6l-1.5 1.7-1.2-.3-1.1 1.3-2.5-1.7-.5-.8-1.3 2.2-.8-1.4-2.7-.7-2.3.3 1.4 1.1-1.8 2.5-1.7.2-.6.6-1.4-.1-1 .9-1-1-2.7-1-1.8-.1-2.8.8-.9-.1-.6-2.9-1.3-.2-.2 1.5-1.2-.7-1.2.6.5 1.1-.5 1-2.2-1.5.1-1.5-2.2-.9-1.2.2 1 1.8-.4.9-1 .2-1.9-2.6-.9.8-1.7-2h-1.2l-1.9.4-.3.7 1.4 1.6.8 1.4-1.6 1-2 .3-1.4.7-.5 1-1.5-2-1.7 1-1-.6.7-1-1.2-.8-1.4.7-5.6-2.7-1.4 1-1.1-.2-1.4.5-.3.8-1.7.4-1.6-.5 1.7-1 2.6-2.5-1.4-1.8-1 .6-1.8-1.2-1.4.8H290l-1.2-.5-1-1.4-.6 1.1-2 1-1.1-.1.7-1.8-1.1-.4-1.1 1.4-1.3-.9.1-1.8-1-.4-1.7.7-3.2-.7-1-1.5-1.7-.8 2.1-1.8 2.6-.8-.3-1-1.8-1.2-2.5.7-1.3 1.9-4 .9-2-1-.2 1.7-.5.9-1.4-.3-.2-2.3-1.1.4-1 1.2-2.2-2.5 1.1-1 1.2-2.4-.1-1.4-.9-.6-1.5.7.4 1-.1 1.5-1 .3-.5 1.7-1-.4h-2.2l-1.2-1.5.1-1.3.8-1.5-.4-1.2-1.3-.6-1 .5.7 2.6-.2.6h-3l-2.3-.7v1.3l1.6.7.2 1.4-.5 1.5-1.4-1.6-.2-2.2-1.3-.2-.8 1-.7-.6-1.6-.1-1.3-1.8-3.5-2.7-2-.7h-1.7l-1.1.8-1.7-.2-2.2-1.2-1.6-2.2 1-3.3.8-.2 2.8 1 4.1-1.7.6-.5 1.8.4.3 1.3 2.6.6 1.6 1h2.3l1.4.8 2.3 2.2-.2 2-.5 1.4.5 1 2.5-2 .9-1.8 2.8.9 1.4 1.4.9.5 2.5-1.3.6.6 1.5-.3.6 1h1.3l.8-1.3 1-.6 4.5-.9 3.3.2 2.3.6 1.5-.2 8.5 3.6 1.5 1 .9 1.5-.7 1.7-1.3-.6-1 1.2.3 2.3 1-.4 1.2-1.6 1 1.4 1.5 1.1-.7 1.4 1 .6 1.5-.7-1.2-2.8v-1.2l2.2-.7 4-2.1 3.6-.2 3 .4 2-.2 4 1 2.2.1 1.7.5 3.6.5 1-.1.4 1.7 1.9 1.3.9-.5v-1l1.4-1.6 3-1 3-.7 2.6-.1 2 .5 3-.7 3.3.3-.3 1.4 1 .4.8-1.9-.8-.6 1.2-1.8 2.4-2 3.7-3.6.9-.2 1.5.8-.2-2.8 1.5-1.7 2.2-1.2 1.2.3 1.6-.5 3.3-.2 2.4-1.5.4-1.5-1.3.1-2-.6-3.6-.8-1.7-.7-2.2-.3-3.6-1.2-.8-.7-.4-1.5.5-1.1-.2-1.3-1-1.5 1.2-.6 2-2-.4-.2-2 .7-2-.4-1.2 1.5-1.7.4-.6 1.4-.5 3.2-1.8.4-1.2-.4-1.2-1.8.6-4.5.3-3.4-.3-1.8-1-1.4 1.3-1.1-1.2-.9-1.1 1-1.1.4-1.3-.4-.1-2.8-1.2-.4-.3-2.3.9-.5.3-1.6-2-.6-4.1-.3-1.7.7.2-1.1-1.6-.6-4.6-1-1.3 1-3.2-1-1.9-.3.5-.8-.5-1.5-2-1.2 1.5-.5v1l3.2-.6.8-.7 1.5-2.4.5-4.3.8-2.4 2.4-.8 1 .3 1.6-.4 1.1.3.4-3.7.8-1.7V154l.9-1.5.2-5-1.4-.5-1 1.5-1 .5-1.6-.7-.3-.7h-1.7l-3.5-1-2.9-1.5-2.2-1.4-3.3-3-1.3-2 .6-2.3 1.1-1-1-2.3.3-2.9-.5-1.5.2-1.3-1.3-1.3-.6-1.5-.2-2.6 2.4.2-.3-1.3-1.8-.4-1.5-1.5 1-1 .8.7h2l2.6.2-.1-1 1.8-2-.8-1.6 1.5-.7.8-1 .4-1.3-1-1.6-1.5 1-1.6-1.7.4-1.6 1.4-1.6-1.5-2.8.8-1.5 1.8.6.6-.5-.6-2-2.6-1.3.6-1.3 1-.3 2.4 1.4.2-3.4 1.6.6 1.6 1.7 1.3.6.6-2.5 1.3-1.6 1.5-.3 6.2-.6 1-.4h2.7l2.1-1 2.1.7 1-1.7 2.7-1.6 1.4-.3 1.8.3v-1h3.2l3 1.5 1 .7.8 1.7 1.2 1.3.1 1.9 1.4 3.7 2.6 1.7 2.9.1.8-.5 1.3.7 4.1-.4.5-.3h2.3l.8-.7 1.2 2.3-.4.7 1.7 1.4 1.6 1 .6.8 2.7 1.7 1.9.7.8-.3 3-.2 2.6-.7.7-.9.7-3 .7-2 1.5-2.2-.7-4.3-1.7-2.1 1.2-1 1 .3 1 1.5 1.8 1.5h3.2l1.4-1.4-.1-2.5-1.1-3.2-3.3.8-1.4-.7-.9-1.6-2.7-.4-2.8-1.6-1.3.3-3.7-1-1.3.4-1.2 1-2-.2 1.5-3-.7-2.7-.8-1.7h-1.3l1 3.5-1.4.4-.7-.4.1-1.5-.9-2.4-.9-1.4-1.8-1.9-1.5-.7L365 71l-2.5-1.8-4.4-1.5-2-1.4-2.5-3.8-5.7-7.3-.6-1.9.4-2 .8-.8 1.4-.5-.1-1.7-.7-1.9.5-.7-.6-2 2 1.4 2.3.5.4-.8 1.7.3-.4-1.7-2.5-2.4-1.3-2.4-3.2-3.7-.9-3-1-2-1-1.7.6-1.4z" class="alaska"/>
    <path id="AK-1.1" d="M604.7 431.9l1-.8 1-3 1-.5.6 1.6.7.5-.5 3-.8.9-1.6-1.2-1.4-.5z" class="alaska"/>
    <path id="AK-1.2" d="M606 434.3l3 .1-.2 1.5-.8 1.2-1-.4-1-1.6v-.8z" class="alaska"/>
    <path id="AK-1.3" d="M604.4 424.5l1.1-.7 1.2 2.9-2.6 3-.4-1.8.7-3.4z" class="alaska"/>
    <path id="AK-1.4" d="M603.9 401.8l1.1-.7.8 1.4-1.3.1-.6-.8z" class="alaska"/>
    <path id="AK-1.5" d="M585.7 384l2.4-1 2.5 1.4.3 2.7 1.2-.4.3-2.4-1-2 .8-.6 1.6.2 3 2 2.8 2.5 2.7 1 .8 1.7-.2 2.6 1.1 1 .3 2 1 1.4.4 2-2.7.4h-1.3l-3.5-2.3v.8l-1.4.4-2.2-1.9-1.5.6-1.7-1 .2-2-1.7.4.3.7-.7 1.4-1-.3-.2 1.4-1.3 1.6-1 .5-1 1.6-1.5-.7-1.3 1.4-.4-.5v-2.2l.6-1.8.2-1.6.6-1.2 2.5-2.8-1.2-1 .7-1.2-.5-1.3 1-3.6z" class="alaska"/>
    <path id="AK-1.6" d="M597.7 399.8l1.4-1 1-.2 1.2.9h1.1l.9 1.8-1.1.6-.3 1.4-2.8-.3-1.4-3.2z" class="alaska"/>
    <path id="AK-1.7" d="M585.7 403.5l2.3-1.4 1.8-.5.6-.6-.3-1.7.2-1.5 1.3-.4 1.8 1.2 2.9 1.5.4 2-.1 2.5.3 2 1 .6 1.6 3 .9 3.4-.7 2 1 1.1.2 3.5-2.6-2.9-1.4 1.6 2.2.2.7 1.2.4 2.3.6.5v2.2l1 .1.2 1.5-1.2 1.6-1.5 1.1 1.2.8-1.3 3.4-.2 1.3-1.6 1.4-1.4-.4-1-1.4h-.8l-.9-2.7h1.5l-1.4-1.6-1-1.9 1.9-2.2-2.1-1.6v2l-1.3.6-1.6-1.8 1.2-1.3-.1-2-1-1.2-1-.4.4 2.8-.2 1.3-.1 3.8h2.2l.8 1.5-.6 2.1h-.8l-.7 1.6-1.3-.4-.9-1 .3-1-.6-1-1-3.8.2-2-.4-1.5.7-.7.6-1.8-1.6-.2-1.1-.6-.1-.8.8-1.3h2.7l1.2.5 1.3-.4-.6-2 .8-1.8-1.2-.1-1.5-2.3.7-.2.3-1.5-.7-.8-1 1-1-1.1-.4-1.3 1-.6 1.2.3 1.2 1.5 1 .1.2-1.5-1.3-.5.2-2.2-2.8.7-.6-1.9z" class="alaska"/>
    <path id="AK-1.8" d="M591.8 352.4l1.6 3.7-.5 2 1.8.1 1.8 1.8 2 .5-.4 1.6.5 1.6.6 4.9-.8 2.3-1-1.1.4-2-1-.3-.7.8.6 2.5.6 1.2-.4.8.2 2.4-.9-.2-.1 2.1-1.5.5-.7-.7-2.3 1.6-5.4 1.6-1.2-.6.2-1.5.8-2.3 2.2-1-.4-.8.4-1 1.3.7-.7-3 .3-1-.3-1.2.2-2.3 1.2-1.8v-1.5l.8-3.2.4-.7-.6-2.8.2-1.4.8-2.3z" class="alaska"/>
    <path id="AK-1.9" d="M597.2 402.4l1.1.5.1 2.6h-.7l-.8-1.6.3-1.5z" class="alaska"/>
    <path id="AK-1.10" d="M569.6 353l1.5-2.7 2.7-.3.6-2.4 1.3.6-.3 2 1.6-.4 1.7 1.2 1-.4 1.8-.1.2 1 1.5 1.3.9 2.1.7.1 1 1.5 1.8 1 1.2 1.3.2 1.7-.6 1-1.2.3-1.2-1.5-.5.3 1.7 2.7-1 .3.8 1.2-.5 1.1.2 1.4-.5 2.5-1.3.3-2-1-1.2-2.3-2.7-4h-1.1l.3 1.7-.7 1.8-2.6 1.4-1.8-1.7.2-.6-1.1-2.1-.2-1.8-1.2-.6.5-1.8-.1-3.2-.9-1v-.9l-.7-1z" class="alaska"/>
    <path id="AK-1.11" d="M582 413.3l1.5-1.7 1.3.8v1l1.4.4.9-.7 1.1.3.5 1-.7.8h-2.4l.3 1.3-2.4.4-1 1.4-.5-1.6 1.1-.8.5-1.3-.9-1.4h-.7z" class="alaska"/>
    <path id="AK-1.12" d="M585 410.8l1-1.2.4 1.3-1.4-.1z" class="alaska"/>
    <path id="AK-1.13" d="M575 367.9l2.1-.5 1-1.4 1.7-.4 1.8 2.4 1.1 2 2.4 1.3v1.5l-1.2 1.5-.7 5-.5 1.1.1 1.1-.6 3.6-1.3 3.3h-.7l-.7 2.7-1 2.6-1.3 1.7-1-2 .2-1.5-.6-2-.4-6.6-1-1-.7-2-1.3-.7v-1.8l1.6.1.5-1 1.7-1-1-2 1.4-.6 1.3-1.6-1.3-.7h-1v-1.5l-.6-1.6z" class="alaska"/>
    <path id="AK-1.14" d="M578.7 401.8l1.4.1-.1 1.4-1 .5-.3-2z" class="alaska"/>
    <path id="AK-1.15" d="M572.2 369.3l.8-1.7 1.1.3 1 1.6.1 1.4 2.1 1-1.2 1-1-.2-2.3 2-2.7-.8.9-1.6 1.3-.3-.5-1.3.4-1.4z" class="alaska"/>
    <path id="AK-1.16" d="M480.8 240.6h1.3l1.1.7-.8.8-1.6-1.5z" class="alaska"/>
    <path id="AK-1.17" d="M463.5 255.1l1.2-1 3.4-1h1.4l2.8-.3 1.9-1.2h1.3l1.2-1.4h1.3l-.4 1.6.7 1.4-3.3.3-2.9.8-1 1h-1.8l.7 1.6-1.1.2-1.6-1.1-1.1.4-2.4-.6-.3-.7z" class="alaska"/>
    <path id="AK-1.18" d="M477.2 242.8l1.5-.4v1.8l-.7.4-1.5-.7.7-1z" class="alaska"/>
    <path id="AK-1.19" d="M468 247.3l4-3 2.6-.3-2 3.3-1.7.8-1.9 1.8-.4-1.6-.7-1z" class="alaska"/>
    <path id="AK-1.20" d="M472.1 238.8h.8l.7 1.5-1.3.2-.2-1.7z" class="alaska"/>
    <path id="AK-1.21" d="M429.5 244.3l1.9-.7v1.3l-1.8.4-.1-1z" class="alaska"/>
    <path id="AK-1.22" d="M427.2 219l1.8-.5 1.3-1.4.9 1.2-1.6.2-.9.9-1.5-.5z" class="alaska"/>
    <path id="AK-1.23" d="M388.3 247.1l2-.5 1.1.3 3.5-1.2 2.8.4 3.4-1 .6-1 1.6-.2.4.9 2 .2-.4 1-3.6 1.4-.6 1.4 1.4.7 1.2-.9.4 2.2 1.3.6.9 1-.7 1.5-.9.7-1.6.4-1-1.1.4-1.5-1-.1-.5 1.7-1-.3-1.3-1.1-.6-1.6-2 1.5-1.3-.6-1.1.6-1.5-.7-1.3-1.4-1.4-2.2-1.2-1z" class="alaska"/>
    <path id="AK-1.24" d="M402 224.4l1.7.6-.5 1.6-1.6-.8.3-1.4z" class="alaska"/>
    <path id="AK-1.25" d="M366.3 248.8l.9.3.9-1 1.4-.6 4.3.1 1.6.4 2.3 2-1 1.5 1 1 1.1-.3.8-2.4-.7-.4 1.2-1.8 3.1.2.9 2-1.1 2.1.7.2 1-.9 1.4.6.7-.5-1-1.5-.2-1.3h1.2l1 2.5 1.2-.1 2.1.8 1.3 1.4.7-.5.8 1.3-2.7.6 2 1 1.5-.5.7 1 1.5-.5.2 2-.4 2-1.6-.7-1.3 1.4v.9l1 .4 1 2.4-2 .3-1.6 1.2-1-1.8-2-1.2-.3-1.2-1.4-1.1-.7.4 1.4 1.3.8 2.4-1 .8-1.4-.6-1.2.2-.3-1.6-1 .9-3.3-.3 2.4 1.4-.3 1.3-3.8-1.3-1.6-.1-.3-1.4-.8-.6-1.4-.1-.3 1.2-1.2.4-1.1-.4-.7 1-1.6-.5-1.7.6h-1l-1.2-1.8 1.2-.6 2.3-.3 1.3-2.8-2.1.9-2.7.5-.6-2.6-1.1-1.5 1.1-1.4 1.1-2.1.1-1.7-.6-.9v-2z" class="alaska"/>
    <path id="AK-1.26" d="M365.7 95.3l1.8.3 1.3 1.3-.6 1.3-2.5-1.8v-1.1z" class="alaska"/>
    <path id="AK-1.27" d="M361 265.5l1.3-.3 2.3 1-.2 1.5 1.9 1-1.5.4-3.1-1.8-1-1 .2-.8z" class="alaska"/>
    <path id="AK-1.28" d="M355 264l2-.7h2.8l.9.6v1.2l-3.4-.4-2 .4-.3-1z" class="alaska"/>
    <path id="AK-1.29" d="M337.9 267l2.6.5-1.7 1.8-1.2-1.1.3-1.1z" class="alaska"/>
    <path id="AK-1.30" d="M330 256l1.5-.6-.1 1.2-1.4-.7z" class="alaska"/>
    <path id="AK-1.31" d="M318.6 181.6l1.7-1.6 2.6 1 2.4.2-4.9 2-1-.1-1.2-.9.4-.6z" class="alaska"/>
    <path id="AK-1.32" d="M289.2 25l2.4-.7 1.5-1.6.6.6-.9 1.9 1.2 2.4 2 3.4 1 1.2 2.6.7 2.4 1 1.5 1.9v1.6l.5.8-1.2 2 1 2.2 1.5 1.9v1.4l2 2.7 2 2.1 2 3.1-2.2.7h-1l-1.2-2-1.3-1.1-1.8-1.1-2.3-.3-1.5 1h-1.1l-.3-1.3.6-2-.3-1.7-.7-2.1-1.2-1.1.6-2.2-.7-2.5-1.7-3.3-1.7-2-1.9-.8-1.2.1-1.4-.7-1.4-3 .3-1.6 1.3-1.6z" class="alaska"/>
    <path id="AK-1.33" d="M281.3 106.5l1.4.7 1.8 1.7.5.9 1.6 1.6.9-.8 1.8.2 1 1.2 1.8-.3.6 1.4 2 .9 1-.3-.9 2.2.8 1 1.3.3 1.1 2.4-1 .5-.2.8-1.2 1.7h-.8l-1 3.4-2.5-1.8-2-1.1-1.6-.1-1.4.4.1-1.6-.7-1.7-1.9-1.6-1.5-5-1-1-.3-2.2-.6-.9.7-1 .2-2z" class="alaska"/>
    <path id="AK-1.34" d="M289.4 246.7l1.3 1.1-.3 1.1-1 .6-1.6-.4 1.6-2.4z" class="alaska"/>
    <path id="AK-1.35" d="M288.4 252.3l1.1-.5.5-1.3 1 .9-1 1.5-1.6-.6z" class="alaska"/>
    <path id="AK-1.36" d="M289.2 254.2l1-.5.6 1-1 .5-.6-1z" class="alaska"/>
    <path id="AK-1.37" d="M280 246l2.3-.3.8-2.1h1.4l.1.8h1.8l-.3 2.2-4-.3-1.6.6-.5-.8z" class="alaska"/>
    <path id="AK-1.38" d="M285.5 237.3h1.3l1.1 1.3-.9 1-1.7-1.6.2-.7z" class="alaska"/>
    <path id="AK-1.39" d="M278.9 234.9l1.4-.6 1.2.4 1.2 1.4.8 2 1.2.4-.4 1.1-1-.4-1.8-1.8-.5 2.5-1.2.7-1-1.6.4-1-1.6-1.2 1.3-2z" class="alaska"/>
    <path id="AK-1.40" d="M265.7 229.4l1.6-.4 1.1 2.3-1.9.5-.1-1.9-.7-.5z" class="alaska"/>
    <path id="AK-1.41" d="M257.8 227.9h1.9l.6 1.1-1 1.2-1 .4-.8-.5-.1-1.4.4-.8z" class="alaska"/>
    <path id="AK-1.42" d="M247.4 232l.7-.6 1.8 2.8.2 1.1 1 .8-1.4.8-1.8-3-1-.2.5-1.6z" class="alaska"/>
    <path id="AK-1.43" d="M237.5 55l1-.6 1.4.2-.8 1.9.1 1.8.7 2.2 1.4 1.5-.1 1.7-1.5-1.7-1-.6-.4-1.5v-3.4l-.8-1.5z" class="alaska"/>
    <path id="AK-1.44" d="M218.8 216.7l1.2.3 1 1.2-1 .6-1.2-2z" class="alaska"/>
    <path id="AK-1.45" d="M216.2 210.3l1.5.4-.3 2.5-1.8.5-.5-1 .9-1.2.2-1.2z" class="alaska"/>
    <path id="AK-1.46" d="M212.8 124.5l.8-.2 2.4 1.7-.8.6-1.5-.8-.9-1.3z" class="alaska"/>
    <path id="AK-1.47" d="M210.6 208.2l2.3-.1 1 1-.4 1.2.9.8-.2 1.7-4.4-2.5.8-2z" class="alaska"/>
    <path id="AK-1.48" d="M210.7 138.2l2.4 2.6-1.7.4-.7-3z" class="alaska"/>
    <path id="AK-1.49" d="M181.7 205l2.6.3.6.7 2.5.7.7 1.2h3l.8 1 .7-2 1.2.7 1.2-1.2 3.1 2-1.3-2.4-.7-.2-.2-2.1.6-.6 2.2-.2 2.1.7 2.7 1.7v1l-1.3.4.2 1.5 1.6.6.7-.7 2 1v1.4l-1 .6-1-.6-1.8.2-.8.5 2.9 1 1.4.3-1 1.3-3-.1-3.5-1.5-1.6 1.2h-1.4l-.5-1-1 .8-1.5-1-2.6-2.3-2.4-.5-2.1-.7-1.2.4-.7-1.3h-1.1l-1-1.9-.1-1z" class="alaska"/>
    <path id="AK-1.50" d="M163.4 200.6l1.2.5.8-.7 1.4.4.7-.7 1.1.3.8-1.1 1.5-.8 2.9.2.2.9 2 1.6 1.6-2.8 1.6-.4 2.2.4 2.4 1.4.3 1.6 1 1.4-1.7.3-.6.9-3.1-.6-3.2-1.2-2 .6-3.2.4-1-.7h-1.9l-5.3-1.4.3-.5z" class="alaska"/>
    <path id="AK-1.51" d="M153.9 191.8l1.5 1.2 1.4.3.6 1.5-1.4.7-1-1.7-1.6-.7.5-1.3z" class="alaska"/>
    <path id="AK-1.52" d="M150.3 192l1-.8 1 1.2-1 .6-1-1z" class="alaska"/>
    <path id="AK-1.53" d="M142.2 187.5l.7-.4 1.5.3 1.2.6.3 1-1.4.7-.7-.7-2-.2.4-1.3z" class="alaska"/>
    <path id="AK-1.54" d="M136 184.5h1.2v1l-1 .3-.2-1.3z" class="alaska"/>
    <path id="AK-1.55" d="M120.6 174.5l1.3-.3 1.7.6.8 1.6-.3.8-1.9-.4-2.2-1.5.6-.8z" class="alaska"/>
    <path id="AK-1.56" d="M104.6 162.6l1.2 1.3.7 1.6 2.4 1 1.6 3.6 2.4 2.1-1 .4-1.5-1.5-1.3-.4-1.4-1.6-.3-1-2.7-2.8-.1-2.7z" class="alaska"/>
    <path id="AK-1.57" d="M91 151.2l3.5 2.3 4 3.3 1.3.5.8-.5 1.4 1.5 1.5.6 1.3-.4-1-1.2 2-1 2 .9.6 1.5-.7 2.2-1.8.3-1-1.3-1.3 1.9-1.8-.9-.2-1-2 .5-.6-1.2-2.8-1.7v-.9l-1.7-2h-.9l-1.8-2-.8-1.4z" class="alaska"/>
    <path id="AK-1.58" d="M84.6 145.4l1.4 1.2-.6 1.1-.8-2.3z" class="alaska"/>
    <path id="AK-1.59" d="M83.8 141.5H85l.7 1-.3 1.8-1.2-.2-.3 1.2H83l-1-1.7 1.8-2.1z" class="alaska"/>
    <path id="AK-1.60" d="M79.5 144.7l1-.5 1 1.6.8-.5.8.7-.3 1-2.5-.4-.8-2z" class="alaska"/>
    <path id="AK-1.61" d="M69.5 139.6l.5-.4 2.2.2 1-1.5 1.1 1.1 1-.4.6-1.3.9-.2.9 1.4 1.5.6-1 1-1-.4-.6 1.2 3.1 2.5-.6 1-1.4.9-2.2-2.1-2.3-.3-.3-1.2-1.1.3-.3-1.9-2 .6v-1.1z" class="alaska"/>
    <path id="AK-1.62" d="M64.2 131l1 .3.6 1.1 3.5 2 1 .3 2-1.4 1 .9v1l-2.2.3-1.2 1.3-2-.8-.4-2-1.4-.7-1.9-2.3z" class="alaska"/>
    <path id="AK-1.63" d="M62.3 123.2l1.6.5 1.4 1.9-.5 3.3-2.3.9-2.3-1 .3-1.9 1.6 1.2 1-.8-.7-.8-.3-3 .2-.3z" class="alaska"/>
    <path id="AK-1.64" d="M55.2 117.5h1.2l.1 1.1-.8.7-.8-.6.3-1.2z" class="alaska"/>
    <path id="AK-1.65" d="M47.4 121.9l.1 1.4-1.2-.5 1.1-1z" class="alaska"/>
    <path id="AK-1.66" d="M43.8 97.5l2.2 1.4.1 1.9-1.2.4-1.8-.8-.4-1.4 1-1.5z" class="alaska"/>
    <path id="AK-1.67" d="M34.8 86.4l.9 1.5-1.7.1.8-1.6z" class="alaska"/>
    <path id="AK-1.68" d="M30.7 92.8l2 3.3-.4 3.4.4 1.7-.5 1.1 1.2 1.8-.7.3-1.1-1-.2-3.5.5-2.3-.3-1.7-1-1.6v-1.5z" class="alaska"/>
    <path id="AK-1.69" d="M22.8 74l1.2.6h1.2l1.7 1.3 2.7-1 .5 1.7h-3l-1 1-1-1.8-2.3-.2v-1.7z" class="alaska"/>
    <path id="AK-1.70" d="M2 8.8l2.5 1 1.1 1.1 2.5 4.3V17l.4 1-.4 2.4-1.4-1v-1.2H5.2l-1.3-1.9-1.3-.6v-2.3l.8-.8v-1.8L2 9.6v-.8z" class="alaska"/>
    <path id="AK-1.71" d="M0 25l1.6.5.5 1 1.8.3.1 1.3-1.9 1.7-.6-.8.3-1.3-1.3-1.2-.5-1.4z" class="alaska"/>
  </g>
  <g id="sites">
    <circle id="sntl_1267" cx="454" cy="204.1" r="6" class="SNTL"/>
    <circle id="sntl_1189" cx="577.6" cy="210.4" r="6" class="SNTL"/>
    <circle id="sntl_1062" cx="429.7" cy="232" r="6" class="SNTL"/>
    <circle id="sntl_1070" cx="459.5" cy="222.1" r="6" class="SNTL"/>
    <circle id="sntl_1182" cx="499.9" cy="121.1" r="6" class="SNTL"/>
    <circle id="sntl_1260" cx="519.3" cy="178.6" r="6" class="SNTL"/>
    <circle id="sntl_1093" cx="546" cy="251" r="6" class="SNTL"/>
    <circle id="sntl_958" cx="515.1" cy="124" r="6" class="SNTL"/>
    <circle id="sntl_959" cx="451.7" cy="233.8" r="6" class="SNTL"/>
    <circle id="sntl_953" cx="470.1" cy="217.8" r="6" class="SNTL"/>
    <circle id="sntl_1092" cx="450.3" cy="237.6" r="6" class="SNTL"/>
    <circle id="sntl_1268" cx="520.2" cy="212.4" r="6" class="SNTL"/>
    <circle id="sntl_1285" cx="585" cy="327.8" r="6" class="SNTL"/>
    <circle id="sntl_641" cx="469.9" cy="214.3" r="6" class="SNTL"/>
    <circle id="sntl_429" cx="430.9" cy="120.9" r="6" class="SNTL"/>
    <circle id="sntl_956" cx="460.3" cy="234.2" r="6" class="SNTL"/>
    <circle id="sntl_963" cx="529.3" cy="201.7" r="6" class="SNTL"/>
    <circle id="sntl_964" cx="453.9" cy="238.2" r="6" class="SNTL"/>
    <circle id="sntl_1270" cx="595.3" cy="347.5" r="6" class="SNTL"/>
    <circle id="sntl_1091" cx="470.3" cy="213.5" r="6" class="SNTL"/>
    <circle id="sntl_946" cx="460.9" cy="224.1" r="6" class="SNTL"/>
    <circle id="sntl_1275" cx="571.4" cy="220.3" r="6" class="SNTL"/>
    <circle id="sntl_1072" cx="471.5" cy="175.1" r="6" class="SNTL"/>
    <circle id="sntl_1175" cx="418.8" cy="38.9" r="6" class="SNTL"/>
    <circle id="sntl_966" cx="447.4" cy="223.3" r="6" class="SNTL"/>
    <circle id="sntl_947" cx="527.3" cy="175.6" r="6" class="SNTL"/>
    <circle id="sntl_1001" cx="603" cy="361.9" r="6" class="SNTL"/>
    <circle id="sntl_1096" cx="532.7" cy="259.6" r="6" class="SNTL"/>
    <circle id="sntl_785" cx="421.8" cy="154.4" r="6" class="SNTL"/>
    <circle id="sntl_1003" cx="429.1" cy="234.3" r="6" class="SNTL"/>
    <circle id="sntl_1094" cx="501.4" cy="199.1" r="6" class="SNTL"/>
    <circle id="sntl_949" cx="535.1" cy="181.2" r="6" class="SNTL"/>
    <circle id="sntl_1035" cx="468.9" cy="222" r="6" class="SNTL"/>
    <circle id="sntl_1103" cx="463.7" cy="228.3" r="6" class="SNTL"/>
    <circle id="sntl_1073" cx="493.7" cy="255.6" r="6" class="SNTL"/>
    <circle id="sntl_948" cx="534" cy="176.9" r="6" class="SNTL"/>
    <circle id="sntl_950" cx="529.8" cy="182.8" r="6" class="SNTL"/>
    <circle id="sntl_987" cx="418.7" cy="236.8" r="6" class="SNTL"/>
    <circle id="sntl_955" cx="455.7" cy="231.1" r="6" class="SNTL"/>
    <circle id="sntl_967" cx="466.3" cy="203.3" r="6" class="SNTL"/>
    <circle id="sntl_1266" cx="416.1" cy="196.3" r="6" class="SNTL"/>
    <circle id="sntl_951" cx="537.3" cy="185.2" r="6" class="SNTL"/>
    <circle id="sntl_1089" cx="464.2" cy="190.7" r="6" class="SNTL"/>
    <circle id="sntl_954" cx="460.9" cy="230.6" r="6" class="SNTL"/>
    <circle id="sntl_1055" cx="500.9" cy="245.4" r="6" class="SNTL"/>
  </g>
</svg>
