<svg xmlns="http://www.w3.org/2000/svg" viewBox="0 0 606.9 476.2">
  <g id="map-alaska">
    <path d="M252.2 93l1.4-1 3.7-1 1.9-.8 4.2-2.3 8.5-3.7 3.2-1 5.4-1.4 2.4-.4 4.2.5.5 1.5-.4 1-1 1.1v2.2l-.9 1.4.8 2.5 1 .2 1-.3 1.2.1 1.3.7 3.1-.2.9 1.1 1.3-.2.4.6 2-.4 2.1 1 1.4-1.5 1.2-2.2h1.6l1 .8 1.5-.6-.8-1.6-2.8-1.4-1.2-.2-1.8.7.6-1.6.1-1.3-1.4-2-.4-1.5-.6-.7-1.5-.4-.8-2.3.3-.9 2.3-.3.3 1.3 1.3 2.1-.6 1.2v.8l1.9 3 1.3 1.3 1.9-.6.3-.7-1.4-.3v-.6l-1.3-1.3-1.2-1.9 1-3 1-1.3v-1l-.8-.7-2.3.1-.9.5h-2l-1.2-1-1.1.5-1-.7-3.5-1.7-1.7-1 .3-2.4-.4-3-1-3.3-.7-1-2-2-3.6-4.6-1-1.6-1-1-2.5-1.3-.9-1.9-1-1.5-1.9-1.4-1.7-.8 3-.7.7-.6.8-1.8 1-3.8.2-1.8 3.6 1 2.2.4 4.7-.2h2.7l2-.6 3.3-2.4 2.2-2.5 1.2-2.8.3-2.9 1.5-3.5 2.3-2.5 1.8-2.6 1-1.1 3.2-2.1 2.2.8 1.5.2 3.2-1.2 2.2-1.4 1.8-1.5 4-4 3-1.1v.7l1.3.8 1.8.3 1.8-.5h2.1l1.7-.7 1.7-1.3 1.7-1.8 2.8-4 1.6-1.2.1 1 1 .7 1.8.4.7 1h1.2l1 .3.4 1.4-.2.7L348 7l-1 .3.7 2.2 1.4.1 1-.6-.1-1.5 1-1.1.5-1L353 4l2.5 2.2.3 3.6 1.4-.1 1 1.2 1.2-1 .6-1.2h2.5l1.6-.7 2 .7h1.9l2.4 1-1 2-.5.5.3 1.4 2 .4 1.9.7.6.9-1.2.4.3.8 2-.2 2.6 1 1.2-1.6 2.7-.5 1 1.2 1.8-.6 1.3-1.4 4.3.2 1.5 1 1 .3 1.2-.5 1.4 2.1 1.9-.9 2 1 1 1.4h2l.7-.7.6 1.1h1.1l.6-.7 3.9-.3 1.2.5 2-.3 1.1 1 3 1.2h3.7l.9-1.3 3-1.7.4-.4 1.6-.5h1.3l.8-.7 3.7 1.4 1.8 1 .8.9h.9L437 21l1.7.3 2.1 1.3h1.5l1.4.4 29.5 148.4 1.3 6.7 2.8 13.9 4.6.7.2-1.7 4.8 1.3 2-3.3 5.4-1.5.1.6-.1 4.4 1.6 1.4 3.5.9 1.3 2.3 11.6 7.2 2.2 4.4v1.4l.8-.2 1.2-2 3-3.5.3-.4 2.2-.7.5-2.5-1-3.2 1.6-.4.1-1.8-1.2-.5 1.2-1.1 2.1-1 3.5-3.6 2.6 1.2 1.2 1 1.5.8.5 1.6-.5 1 1.3.4-.2.9 1 1 2.5-.2.5 1 1.3.7.8-.2 1.4 1.4v1.1l2 1.7 4.6 1.1 1.9 1.7 4 2.3-.5 1 1.5 1.4 2.3 1.7 2 2.6 2.8 2 1.9 2.2 1.4 1.2 1.7 1.8 2.7 2 1.9 2-.5 2.5 3.4-.2.2 3.2 2.8.4v1l.8.7.9 1.8 2.3-1.1 1.5.7 3.4.7 1.1.5 3.2-.4 2.2 1.2 1.6-.1 1 1.6 2.1.1 1.2-1 1.7 1.7.5 1.7v1.8l-.3 1.2.9 1.3.5 1.8 1.7 2 1 1.8.8.8-.7 2v2.6l-.3 1.8-1 2.9-1.3 1.8-.2 1.3-1-1.3-1 1-.7-.1-1.4-2.4-.9-.9-.2-1.3-1-.6-.8-1.2.7-1.3.3-2.3-.8-1-.2-2.1-1.3-2.7-.7-.9-2.4-1.9 1.3 2.1 1.2 1 1 1.9-.3.8.8 2.5.4 2.1-.7 2-1.6-.2-1.4.4-1.2-1.4-.3.9-1.9-.6-2-1.2-.4-1.2 1.4-1.6-1-.9-.6-1.5v-1.1l-.8-1.8-1 .7 1 1 .3 2.6-.6 3.5-2.5-.9-1-1.8-.2-2 .7-.8-.3-2.3-.8-1.5.6-1.5-.8-.1-.9 1.8 1 1.6v.7l-1.2.3h-1.9l-1-1.7-.8.2-.5.8-1.4-1.7-.4-1.2 1-.8.1-2 1.8-.7-1.3-2.3-.3-1.6-.8.4-1.5-.8-.6-2.2-2.5-.8-1.5-1.2-1.1-1.9-1.8-.2-1 .2-1-.6-.5.6-2.2-.5-.6-1 .1-1.4.7.2.5-1-1.1-.2-1.4-2.1-.4-1.6-1 .3-.8-.6-.3-1.7 1.4.2 2-.3-2.9-1.3-.5-1.4-1 1.6-2-2.1-2.6-1.7-1-2-1.7.4h-3.7l-2.2-2.3-.6-1.6-2-1.7-.2-1.3-.7-1.8-.8.3-1.5-.8-1.7-4-1.3-1.8-1.5-1.5-.8.4 1.5 1 1.2 1.8-.7.4.4 2 2.7 3.9 1.5 1.8-.2.9 1.7 2.4 1 2-.5.4.6 1.6h-1.9l-1.6-1.4-.7-1.2-.7.4-1.3-.4-.7.8-1.6.8-.3-1.3-.9-2.1v-.9l-1.4-1.4-1.3-1.6-.2 1.2-.9.3-2.7-1-.7-1.4-.8.9.7.8 1.4.7 1.9 1.6.9-.2.6 1.5 1.2 1 1.2 2.2-.4.9-1.3.9-1-1-.1 1.6h-1.5v2l-1 .2-1.2-1-2-1.5-1.5.4-4.4-2-2-.8-.2-.7-2.8-1.6-.4-1.5-1.6-1.3-2.5-1.3-3.5-.6-3.1-1.5-5.2-1.3-4.6-2 .8-2.1 1.3-.4-.5-2.4-1-1.7.8-1.4.1-1-.8-.7-.1 1.8-.7.5-.3 2-3.2 2.3-1 1.1-3.3.4-2.3-.2-5.3-1.5-.1-.7 1-.6.1-1.2-1.4-1.8-1.8-.5 2.2 2-1.9 1.6-1.3.2-1.7-.6h-2l-4-.3-3.3.5-1.4.6-3 .8-2.6.9-1.7 1-1.3-.4-1.4.6-1.8 2.2-.3-.8 1.8-2.1 1.5-.3-.7-1-1.7-.5-.5 1-2-1.5-3.4-.2 1.4-1-2.1-.5.8-2.6-1.7 1v.8l-.5 1.1H439l-2.4-1.2-1-1-1.3-.2-1 .6-.6-.8-2.7 1.1-1.2.1.1.9 2-.7v1.2l-.9.7-1.3.3-1.8 1.8-.8-.7 1-.8-1.4-.4-.1-.8.6-1.4 1-.6.6.4 1.4-1 1.2-.4 1.7-1.2 1.4-.5-2.2-1-1 .7-1.2-.1.8-1.6-3 1.2h-1.4l-.5-1 3-1 1.5-1.4-.8-.3-.5 1-2 .4-.7-1-.8 1.1-.4-1.2V188l.9-2.5 3-.4-.3-.6-2.8.4-.6 1.1-.8.5-.6 1.3-.9.9-.6-2.5-.9 1.8-2 2.1-1.5-.4-.3.6-1.6-.5-.2.7.6 1H414l-1 .9-1-.7.5-2.1.9-1.8-.1-.8 1.4-2.1.1-1.7-2 3.6-.6 1.6-.8.1-.8 1.6-.4 2.2.7.8 1.6.2.2 1.4-1.3 1.4-.6 1.2.7.6.5-1.2.9-.8 1 1.3.5 1.4-.4 3.1-1 .9 2.3 1.7 1 1.3-.4 1.3-1.5 1.1-1.7-.5-1-1-1 1.8h-1.2l-.5.6-1.2-.7-1 .7-.5-.8-.9.4-1-.4-.5-.8-.7 2.8-1.3.5.7-2.3-.6-2.6-.7.4.3 2.1-.3 1.2-.8.2-.3 2.1.9.5-.1 1.2-1-.5-.5-2-.7-.2.3 3h-1l-.8.6-2.2 2.6-1.5 2.3-.8.3 1-3.4-.9.6-.8 1.7-2.1.8-.2 1-1.3 1.2-.2 1.5-1.6-.5v.8l-1.8.3-1.3-.8-1.3 1.1-.1.7h-1.5l-.9-.8-1.3-.8-.2-1.1.8-1 .2-1 2.3-1.3.8.2.3-1 1-.3 1.1-1 2.6-3.7-1.2.2-2 1.8-1.5 1-1.3-.2-1.8-1.3-.4-1 1-2.7.4-2.1 2.4-3.5.3-2.7.7-.5.2-3-.5-.5-1-2.7 1.8-1.2 1.4-.2 3-2.9 2.9-2 1.7 2.4 1.8.6 1-1.8 1-.2 1.2.6.6-.2 2 .7 2.2.1-.9-1-1.1.3-1.7-1-.8.1-1.3-.5-1-1-2.2-1.4.5-1 .8-.1.9-2 .7-.4.2-1 1.4-.5.9-.8-1.7-.7-2.2 2.1-.2 2.3-.6.5-2-.3-2.3.4-1.6-.9-.5 1-2.7 1.4-1.2 2.5-1.7.7h-1l-1.3 1.1-1.5 2 1 2.2h-1.4l-1.5 1.2-.7 1.5-.8.4-1 1.2-.2 1.2 1 1-1.3.7-.2 1-1.2 1-2 .3.1 1 1.6 2-1.2 2.9-1 .7-1.7-.1-2 .4-.6.8 2.4-.3.3.8-.5 1.9-1.5 1-1.2.3-1.3-.4-.7.7-.3 1-1.6.2.6 1.5-.3.5-3 .9-.5.8-.3 2.5-.8 1 .5 1 1 .5 2 .4 1.4-.4.8 1.2 1.3.2.8.6 1 1.8-.5.4-.5 2-1.5 1-1.2 1.4h-2l-.4 2.1-1.2.1-.1 1 .6 1.1-1.7 1 .7.8-.4 1.3-.7.5-1.2 1.7-1-1-.2 1.6-1.1.7-1.3-.7-.5 1-1.3-.5-1 .3-1.2 1 .5 1-.3.7-1.4.7-.9-.1.2 2-.7.2-1.9-1.5-.5.4-.1 2-1 .5-.1 1.5h-2.3l-.8-.4.2 2.4-1.2-.7-2 1-1.5 1.4h1.5l-.1 3-1 .9-.1.8-1 .6-.2 1.2-1.2-.3-2.2.7-1.2.9-1.5 2-.6.4-1.7-1.8-1 .5.5 1.2h-1l-.6 1.1.8.7.1.9-2 .1-.6-1.3-2 .5-.6.8 1.4.8.2.9-.6.7-2.4-1-.2 1-2-.5-.9.5-1 1.3v.7l1.7.4 1.2.7-.7 1.5-1.3 1.3-.5 1.2v1l-1.9-.7-.6 1.6h-1v-1h-1l-.7 1.2-5 .8-.4 1.5-1 .4-.6 1 .2.8-1 1.2-1.3.4.7-1.6.6-3.2-1.6-.6-.5 1H297l-.6 1.3-1.5 1-1 .2-1.3-.5.1 1.1-.9 1.7-.8.5-.3-1.7-1 .3-.1 1.6h-1.2l-.8-1.5-.8.3-.9 1.3-2.4 1.1-1.3-.6-1.6.2.7-2.4 1.4-1.9-.6-.5h-1.8l-1.3 1.7-.2 2-2.3 2.7-1.8.3.7 1.4v.9l-1.1.4-1.1-1.6-.6.9-.2 1.3-2.6-.7.3-1.3-.2-2.4-.7-1h-.8l-.7 1.3.7.5.5 1.2-.5.7.3 1.5-.8.3-1.5 1-1.5-.6-.4-1-.2-1.5-.7-.6-1.2.2-.5.8 1.6 1.6.1.5-2 1.5-1.9.6.5 1 1.4-.2.8.8.3 1.4-1.7-.5-1-1.5-1 .5-.9 1-1.1.6-1.7-.6-3.6-.3-1.7.4-1.2.8-.4 1.2-1.2.6-2 .2-2.1-.8-.7-3 .4-.6 2.4-.6 2.1-3.2.3-.7 1.4-.6.8.9 2-.8 1.4-.1 1.7-1 1.3-.2 2.5.5.7 1.6.3 1.3 1.4-1 .2-1.2-.1-1.8 2.3-.7 1.5.4 1.4-.8-.4-.9 1-.6.7.2.9-1 .9.4.8-.6v-1.4l.4-.9 2.8-2.9 2.3-1.5 1.8-.7 1-1 7.2-1.4h3.2l-.4.6.2 1.6-1.1.2-.2 1.5 1.2 1.5.5-.8.1-1.8 1.3.6h1.5l.1 1.4h1l1.5-.9-2.9-2-.5-.8 1.3-1.6 1.7-3.6 2.3-2 2.3-1.2 1.2-1.2 3-1.2 1.7-1 1.3-.6 2.6-1.5.6-.6 1 1.2h1.8l.4-.9-.4-.8.2-1.8 1.6-2.5 1.6-2 1.7-1.4 1.5-.6 1.7-2 2.3-1.5.5 1.2.8-.3-.3-1.8h-.8v-2l.7-2.8.9-4.6.5-.7 1.3-.2-1.3-2 .2-2 1-2.1.8-.5.8-1.2 2-1.9 1-2.3-.4-1.5-.8.8-1.5.5-2.7 1.4-1.4.4-1.6.9-2.8 1-.9-.2-.9-.9v-1.1l-.7-.9-1.3-.7.5-1 .5-2.6h-.4l-1 1.6-1.5.8-.1 1.8-1 1.2.2 1.3 1 2.7-1 1.4-1 .2-1.5-.7-1.4-3.8-1.2-2.7-1-1.2-1.3-.5.6-1-.2-.6-1.1-.1-.4 1.4-.5.8-1 .4-1.2-2-1 .2-1.2-1.5.4-1-.4-1.4-1.6.7-2.8 1.9-2.5.8-3.4 1.7-.5 1.3-2.6 1-.6.6-1.6-1.6-2 .1-.8-.6 1.7-.6.5.7 1.9-2 .2-1V224l-1.4-3.6-.5-2.3 1.3-1.8.7-.3 1-1.2.8-.3-1.2-3.1-.2-1.7-1.3-2.8v-1.6l-2-4-1 .3-.2 1.8-.3.8-1.4.4-.5-.4-1 .9-2.8 1-2.5.4h-2l-3.4-.5-1.6-.9-.5-2.1.8-.2-.4-1.2-1.7-1.2-.8-2.5-1-1-.3-1-1.4-.4-.9-.8-1.2-2 1.7-1-.7-.9-1.3.7-1.6-.5.1-1.3 1 .2 2.2-1.7.9-.3-.4-1 .4-2.6-1.1-.9v-.8l.7-.5v-2.5l-1.3-.6-.7 1.5-1.6-.5-.4-1.4.4-2-2-1.5-.1-1.6 1.4-.4.3-.8-1.2-1.3-2.2.4V170l.5-.7 3-.2-1.5-1.4-.5-1.4 1.2-.4 1.7.4 1.1-.2-.5-2.2.3-2 .9-1.2 3.8-3.8.5-.8 1.7-1.5 1.1-2 1.6-.6V150l1.2-2.8.8-1 1.2-.8-.3-.8 2-1.8 2.5-.5h.9l1.1 1 1.3.3.7 1.5 2.2 2.3 2.4-.2 1.8-1.4.4-1 1.3-.2 2.2-2.5.2-.6 1.4-1.3.3-1 1.6 1.2v.8l1.6.2 1.4-.1.7.4 2.3-.2 1.5-.5.3-.7 1.9-2 1.3-2 .1-1-.7-3-.3-1.9.1-2.7-2-3.2-1.8-.7.4-1.5.7-.4 1.2.7 1.6.2 2-1.9.4-1.9-1-2-1-1-1.1-.4-.7.5-.8 1.4-1.1.2-1.1-.8-1.9 1.3-2.3.2-.7 1.1-2.6 1.3-.7 1-.3 1.6-1.5.4v-2.7l-1.4-1.9-1.2-1-.8.7 2 2.4-.9 1.2h-.5l-.5-1.3-1.3-1.4-1.1-.7-1.8-.5-1.2.3-1.3-.5h-2.2l-3.4 1.3H272l-3-1.7-6.1-2.7-1-1.2-.4-1.9.2-1.2.8-1.2-.7-1.4-1-1v-1l-1-1.3h1.8l1.5-1 .1-.8 1.2-.8-.9-1.2-2.3-.5-1.6-1.2-3.3-1.2-1.4-2-1.3-1.2-1.2-.7V93z" class="alaska"/>
    <path d="M594 262.5l1.8-1.6.7 1.1.2 1.3-.9.3-1.5-.5-.4-.6zM591.8 261.6l.3-2.2-.7-.5-.4-1 .3-.9 2 .7 1.3 2.3v1.1h-1.7l-1 .5zM587.6 256.7l.3-1.1 2.3 1.3v3.4l-1.2-.9-1.4-2.7zM564.9 252.5l.6-2.3.8-2.1-1.1-1-.8-1.2.6-1 1.7-.1 2.6-.6 1.3 1.1 1.3 1.9 1.3 1.2h1l2.5 1 2.5 2 .6 1.7 1.3.2 2 2.4-3.2-.6v1.9l1.5-1.1 1.1.4 1.5 1.4h.6l.9 1.2.1.9 1.4-.9.4.8.2 1.7-.3 1.7 1.2-.2 1 3 .7 1-.2 1.9-1.1.5-1.4-.3h-1.2l-1.3-1 .9-.8-1.7-.3-1.6-.8-.1-2.5h-2.2l1 1.4-.3 1-2-.2v-1.6L578 263h-2.1l1.8 1.7 2.5 3.7 1.4-1.3 1.4.6.7 1.9-.4.4.3 1.4-1 .5-1-.2-.4-.9-1-.3-3-2.3-.6-1.3-1-.8v-.9l-.6-1.6-1 .8-1.1.3-.5-.6-.2-1.3 1.6-1.5 1-.4.6-1-1.5-1-.5-1.7-.8.6-2.1-.8.3-.5-.6-1.2h-1l.1 1.1-1.3-.2-.9-.7.2-1 1-.5 1.5.4.7-.5-.8-1.1h-.7l-1.4-1.3-1.3 2-1.3-1zM574.8 241.2l.4-1.3 1 .7-.6.8-.8-.2zM570 243.2l.2-1.5.6-.7h1.1l.7-.6 1.5.8-.3 1 .6 1.2-1.9 1.3-2.5-1.5z" class="alaska"/>
    <path d="M554.2 238.7l1-2 2.1-.4 1.7 1.7.5-1-1.2-1.8-1.6-.8.2-1 1-.7 2.8-.1 3 .1 2.2-.8 1.4.8 1.3 2h1.2l1.3 1.2 1.3.4 1.4 1.2-1.4 1.8-.8.7-3.3.4.4.6-.6 1h-2.3l-.6 1.2-1.5.3-1.1-1.7-.7 1.3.5.3.4 1.4-.8.3.7 1.2v1.8l-.3 1 .3 1.6-1.2.3v1.7l-.7-.1-1.2-1.5-.5-1.7-.8-1.2-.3-1.1v-3.5h-1.3l-.2-1.2-1-.7-1.3-3zM571.1 245.3l1-.3 1.4 1.8-.4.4-1.3-.6-.7-1.3zM568 261.3v-2l1.1-.2.5.7 1.1-.4.2-1 .8-.4.8.4.1 1-1.4 1.3.8.7-1.2 1.6.1 1.6-1.1-.9.2-1.2-.4-1.1-1.3-.5-.4.4zM559.7 255.1l.9-.6.7 1-.3.8-1.3-1.2zM540.8 212.6l2.9 1.8.8 1.8 1.1-1 2 .3 1.4-.7.6 1.4 1.2.8 3 3.2.8 2.1-1.1-.3-1-1.6-.6.4v1l1.7 1.4 1 .5.1.8 1.5 1.6-.6.4 1 1.5-.6 1.3-.8-.2-.5 2.4-2.3 4.2-1 .2-.7-1.2-.8-2 .8-2-.7-.3-.3-1 1.1-.2-2-1.7-.3-1-.9-.7-1.1-1.7-.3-2-.8-1-1.3-2.8v-.7l-2-1.7-.6-1.1-.7-2.2zM539.2 233.1l1-1.5-.1-1.5.7-1.3 2.4.8 1.7.8 2.1-.4.8 1 .2 1.8 2.2 4 .3 1 .7.8 1.5 2.8 1 3.1-.4.4 1.1 2.3.8 2.4.2 1.9-1.8-.8-.7-1.2-1.4-1.2-3.8-4.4-1-.2-1.7-1-1 .3-1.1-1.3 1-.8-.1-1 .4-1.6-1.7-1 .5-1.1v-2l-1.2.2-.6.7-.8-1.1-1.2-.9z" class="alaska"/>
    <path d="M528 225.4l-.5-2.7 1.4-1.8-.9-2.1 1.1-.3 1 1.7.6-1.2h1.6l.4-1 1-1 .7.6 1.5.1 1.7 1 .4-.3 1.4.5 1.6-.3 1.5.4 1 1 .1 1.1-1 1.3 1.4.8-1.1 1.3 1.7-.2.3 1 .8 1 1 2-.4 1-1.8.4-2-1-3.7-1.4-.6 1 1 .6.6 1.7-.8 2.5-2-.2-.1-.6-1.8-.9-1.1-1.2-1 .2-.7-1.5-1.8-2.3-1-.2-.4-.7-1-.3zM538.3 235.7l-.4-1.7.7-.4 1.5.6.8 1 1.8-.5-.2 1.4-.7.5-.3 2.7-2 .8-.3-1.6.6-1-1-.6-.5-1.2zM431.9 197.5l.5-.3 2 .2-.8.8-1.7-.7zM415.6 210.7l.2-1.5 1.6-2.7.9-.6 1.5-1.8.6-2 .8-.7v-1.8l.9-.7.5 1.4 1 .7-1.8 2-1.4 2.3-.1 1.3-1 1 1 .9-.5.7h-1.5l-.5 1-1.7.8-.5-.3zM419.1 189.9l.8-.6 1-.2-.1 1.1-1.7-.3zM418 193.7v-.8l.7-.4 1 1.4-.3.7-1.2.3-.1-1.2zM414.6 202.2l1-4.4 1.5-1.8.3 3.6-.6 1.6-.3 2.4-1.9-1.4zM413.2 193.4l.4-.6 1.2 1-.7.8-1-1.2zM389.7 220.9l.9-1.5.5 1-1 1.2-.4-.7zM365 245l1-1.3.9-.5 1.7-2.6 2-1.3 1.7-2.5-.1-1 .9-1.2.6.5 1.4-.8.2.9-1.6 3 .2 1.4 1.3-.3.8-1 .7 1.2 1.1-.3 1 .3.3 1.5-.2 1-.9 1.2-1.1-.4-.4-1.2-.8.4.5 1.6-.7.3-1.4-.2-1.1-.9-.6 2.2-1 .3-.5 1-1.6.2-3-1.2-1.3-.2zM376.8 202.6l1-1.3.1-1.8 1 .4-.8 1-.1 1.2-1.2.5z" class="alaska"/>
    <path d="M351.6 258l.7-.3.2-1.2.6-1.2 2.8-2.2 1.2-.5 2.4.2v1.8l1 .2.7-.9-.5-2.2h-.7v-2l2-1.4 1.6 1 .2 2.2.5-.2.4-2-.8-1.7.8-.7 1.8 1.4.3-2 1 1 1-.3 1.5.5.3-.8 1 .5-1.4 2 1.7-.4.8-1.1.9.3.7-1.2 1 1.4.7 1.8-1.4.3-.1 1.7.4.7 2.7.4-.1.6-1.2 1.3-.5 1.8-1.4-.8h-1.8l-.8-.7h-1.4l-.3.7 1.5.2 1.7 1.4-.3 1-1.2.4-.7.8-.9-1-1 .4.7.7-2.2 1.5 2.1-.1.4 1-3 1-1 .8-.9-.8 1.2-1.7-.7-.4-1.3 2-1 .7.4 1-.5 1-1 .3v1.1l-1.3.4-.8 1.3-.7.5-1.5-.7.5-1 1.4-1.4-.5-.9 1.2-2.9-1.2 1-1 1.8-1.4 1.7-1.6-1.6-1.4-.6v-1.6l-.2-2.1-.7-1.4-.8-.3-.8-1.5zM363.5 220.5l1.4-.4.4 1.4-1.4.3-.4-1.3zM355.7 273.3l.7-1 2-.4.5 1.1 1.7-.2-.8 1.1-2.8.3-1.2-.3-.1-.6zM357.7 270.5l1.2-.7.2.8-1.4-.1zM351.1 275.2l1-1.6 1.8-1.4h.9l.5.8-2.4 1.5-1 1.3-.8-.6zM341.2 286.3l2-1-.4 2.2-1.3-.2-.3-1zM325.5 272.5l.8-.8 1.8.2-1 .8-1.6-.2zM302.8 301.4l.5-1 .8.5-.4 1-.9-.5zM301.4 300.3l.5-.9-.2-1.2 1 .2.1 1.6-1.4.3zM299.6 295.7l1.4.2.3 1-.5.9-1.2.5v-2.6zM293 300l1.4-1.5-.4-2 1.5-1.4 1.5.9.3 1.3-2.8 1.8-.8 1.2-.7-.4zM291.4 231.7l.5-2 2.1-.7 1.6-1-2.3 4.1-1.9.4v-.8zM292.9 290.7l.9-.6 1.3.4-.2 1.1-1.8-.3-.2-.6zM287.3 292.2l.8-1.1 1-.3 1.3.4 1.5 1 1-.3.2 1.1-1 .2-1.9-.4.8 2-.5 1.2-1.4-.7-.2-1h-1.6v-2.1zM288.2 138.1l1.3-.8 1.3.4v1.4h-2.1l-.5-1zM276 294.6l.9-1 1.7 1-1 1.4-1-1.3h-.7zM270 297.4l1.2-.9 1 .5-.2 1.4-.6.7-.8.1-.7-1v-.8zM264.5 305.6l.2-.8 2.5 1.2.6.7 1 .1-.6 1.3-2.5-1.4-.8.3-.4-1.4zM237 193l1.3-.2 1.8.3.7.5 1.7.4.2-1 1.4-.9 1.2-.2 1-.6 1 .9 1.5-.4 1 1.5.7.3 1-.4 1.7 1.3-.6 1 .3.7-.2 1.8-.5.5.7 3.1h-2.4l-1.8.2-1.1.7v1h-.8l-.6-1.3-1-.9-2-.3-2.9-3-1-.4-1-1.5-.8-.4.2-1-.6-1.8zM238 308l1-.3 1.3.4-.4 1-1.8-1zM214.4 123.9l1.3-2 .6-2 .6.1v2l1.5 1.4 2.4 1.6 1 .4 2.1-.9 1.9-.4 1.6.6 1.1 1.6-.1 2.3 1.3 1.3 1.6.6.6 1.2 2.1 1 2.2.6 2.3 1.5-1.2 1.8-.8.5-1.4-.9-1.2-.3-1.6.1-1.6 1.1-.7 1.7-.7.6-.7-.9-.3-2-.7-1.2-1.2-1.3-1.1-.2-.4-2.1-1.2-1.7-2.2-1.7-1.9-.6-1.5.3-.7.8-1.2.2-2-1.7-.3-1.4.5-2zM233.6 304.5l1.2-.4.8 2-1 1.2-.8-.6.1-1.2-.3-1zM228.8 305.6l1.5-1.1 1.2.3.2 1 1 .2.5 1.3h-3.4l-.7.2-.3-1.9zM207 316.9l2-1 .8.2 2-.6 1 .5 2.2-1.4.9.3-.3-1.7h1l.4-1.5.7-.2 1.8.5.6-.4-2-1-.5.1-1-1.5.1-.7 1.5-1.2 1.8-.4h2.6l.3.6-.7 1 .8 1 1.4-.3.2-.8 1.8-.2.5 1-.4 1h-1l-1 .9-.4.8 2.4-.6 1.1-.5-.1 1.5-2.2 1.3-3.1.5-.6 1.7-1 .6-.8-.5-.4 1.1H218l-2.8-.5-2 .8-1.7.4-.7.8-1-.6-.8.6-1.5-1-.5-.6zM192.2 322.1l1-.2.3-.9 1.2-.3.2-.9 1-.3v-1.2l.7-1.2 2.2-1.2.5.5 2.2.3-.1-2.8 1-1 1.7-.8h2.2l1 1 1.2.6-1 1-.1 1-2.5 1-2.7.5-1.1 1.4-2.2 1.8h-1l-1.3.8-4.4 1.4v-.5zM200.4 252.9l2.8.8-1 1.1-1.8-2zM196.7 241.5l.5-.6 2.3.1-.3.9-1.4.1-1.1-.5zM188.7 175.3l.5-1 1-.6v2l.8 1.3 1.3 1.4 1.4.4.6 1.4-1.6-.5h-1l-.8-1-1.2-2.6-1-.8zM181.7 320l1.6.1 1.1-.4 1 .8-.6 1.2-1.4-.8-1.5.2-.2-1.2zM179.2 321.6l.4-1 1.2.5-.4.9-1.2-.4zM171.6 322l.3-.6 1.2-.5h1.1l.7.6-.8 1.2-.8-.3-1.5.8-.2-1.2zM165.9 322.6l.8-.5.5.7-.7.7-.6-1zM150.6 322l.8-.7 1.6-.3 1.2.8v.7l-1.4.6-2.3-.2.1-.8zM134.2 320.3l1.4.4 1.1.9 2.2-.2 2.6 1.9 2.6.5-.6.8-1.7-.5-1 .2-1.7-.5-.6-.6-3.2-1-1.1-1.9zM119.7 317.7l3.5.2 4.2.7 1.2-.2.3-.7 1.7.5 1.3-.2.8-.9-1.2-.5 1-1.5 1.8-.3 1 1 .4 1.9-1.1 1-1.3-.6-.2 2-1.7.2-.4-.7-1.4 1.3-.9-.7H126l-.4-.7-2-.7-.6.3-2.2-.6-1.1-.8zM112.6 316.1l1.6.4v1l-1.6-1.4zM110.5 313.6l.8-.5 1 .5.5 1.5-1 .3.3 1-.7.3-1.3-.7.4-2.4zM108.6 317.8l.5-.8 1.4.8 1.3-.6.1 1-2 .7-1.3-1zM99.2 318.3l.3-.4 1.7-.9.1-1.5 1.3.4.6-.8-.2-1.2.7-.6 1.2.7 1.3-.2-.3 1-1 .2.1 1.2 3.3.6v1l-.8 1.3-2.4-.7-1.8.8-.7-.7-.7.6-1-1.2-1.2 1.3-.5-.9zM92 314.1l.9-.2.8.6h3.4l.9-.2.8-1.9 1.2.2.3.9-1.5 1-.4 1.6-1.8.3-1-1.5-1.3.1-2.3-.9zM87.5 309l1.4-.2 1.8.8.8 2.7-1.3 1.7-2 .2-.5-1.6 1.6.3.4-1-.8-.3-1.4-2.1v-.5zM80 307.8l1-.5.5.8-1.2.7-.2-1zM63.8 297.5l2.2.1.8 1.4-.7.9h-1.6l-.8-.8.1-1.6zM52.3 299.5l2.8 1.6 1 2.8 1 1v1.1l1.6.9-.4.4-1.3-.2-1.4-2.6-.5-2-1-1-1.3-1-.5-1zM53 292.9l1 .6.2.6-1.3.4v-1.6zM39.3 288.4h1.1l1-.4 1.7.2 1.7-1.8 1 1-2.4 1.2-.2 1.2-1.5-1-1.8.9-.6-1.3zM4.3 260.5l1.3-.4.8.6 1.4-.4.6.9-.9 2-.7-.4-.3-1-1.3-.4-1-1zM0 247.2l2.3-.3 1.2.5 3.4 2.2.6 1.5.7.6.5 2-1.3-.3-.5-.9-1.1.7-1.7-1H3l-.9-1.7.4-.9-.7-1.4-1.4-.3-.3-.7z" class="alaska"/>
  </g>
  <g id="sites">
    <circle id="sntl_1267" cx="386.5" cy="176.2" r="6" class="SNTL"/>
    <circle id="sntl_1189" cx="459.3" cy="110.8" r="6" class="SNTL"/>
    <circle id="sntl_1062" cx="384.2" cy="211.3" r="6" class="SNTL"/>
    <circle id="sntl_1070" cx="397.9" cy="187.3" r="6" class="SNTL"/>
    <circle id="sntl_1182" cx="377.3" cy="80.9" r="6" class="SNTL"/>
    <circle id="sntl_1260" cx="412.7" cy="118.3" r="6" class="SNTL"/>
    <circle id="sntl_1093" cx="462" cy="161.6" r="6" class="SNTL"/>
    <circle id="sntl_958" cx="386.8" cy="74.3" r="6" class="SNTL"/>
    <circle id="sntl_959" cx="398.5" cy="200.7" r="6" class="SNTL"/>
    <circle id="sntl_953" cx="402.3" cy="178" r="6" class="SNTL"/>
    <circle id="sntl_1092" cx="399.4" cy="204.4" r="6" class="SNTL"/>
    <circle id="sntl_1268" cx="428.8" cy="145.5" r="6" class="SNTL"/>
    <circle id="sntl_1285" cx="523.6" cy="198.4" r="6" class="SNTL"/>
    <circle id="sntl_641" cx="400.6" cy="175.4" r="6" class="SNTL"/>
    <circle id="sntl_429" cx="337.9" cy="121.8" r="6" class="SNTL"/>
    <circle id="sntl_956" cx="404" cy="196.3" r="6" class="SNTL"/>
    <circle id="sntl_963" cx="428.9" cy="131.6" r="6" class="SNTL"/>
    <circle id="sntl_964" cx="401.9" cy="202.9" r="6" class="SNTL"/>
    <circle id="sntl_1270" cx="540.1" cy="207.2" r="6" class="SNTL"/>
    <circle id="sntl_1091" cx="400.4" cy="174.6" r="6" class="SNTL"/>
    <circle id="sntl_946" cx="399.6" cy="188.1" r="6" class="SNTL"/>
    <circle id="sntl_1275" cx="460.8" cy="122.6" r="6" class="SNTL"/>
    <circle id="sntl_1072" cx="384.1" cy="143" r="6" class="SNTL"/>
    <circle id="sntl_1175" cx="301.4" cy="59" r="6" class="SNTL"/>
    <circle id="sntl_966" cx="391.1" cy="194.9" r="6" class="SNTL"/>
    <circle id="sntl_947" cx="415.8" cy="111.2" r="6" class="SNTL"/>
    <circle id="sntl_1001" cx="552.4" cy="213.3" r="6" class="SNTL"/>
    <circle id="sntl_1096" cx="458.7" cy="175.8" r="6" class="SNTL"/>
    <circle id="sntl_785" cx="345.8" cy="154.4" r="6" class="SNTL"/>
    <circle id="sntl_1003" cx="384.9" cy="213.4" r="6" class="SNTL"/>
    <circle id="sntl_1094" cx="411.9" cy="145.4" r="6" class="SNTL"/>
    <circle id="sntl_949" cx="422.6" cy="111.3" r="6" class="SNTL"/>
    <circle id="sntl_1035" cx="403.5" cy="182" r="6" class="SNTL"/>
    <circle id="sntl_1103" cx="403.3" cy="189.8" r="6" class="SNTL"/>
    <circle id="sntl_1073" cx="433.9" cy="194.4" r="6" class="SNTL"/>
    <circle id="sntl_948" cx="420" cy="108.4" r="6" class="SNTL"/>
    <circle id="sntl_950" cx="420.4" cy="115.8" r="6" class="SNTL"/>
    <circle id="sntl_987" cx="379.6" cy="220.9" r="6" class="SNTL"/>
    <circle id="sntl_955" cx="399.7" cy="196.4" r="6" class="SNTL"/>
    <circle id="sntl_967" cx="393.4" cy="168.7" r="6" class="SNTL"/>
    <circle id="sntl_1266" cx="360.1" cy="191" r="6" class="SNTL"/>
    <circle id="sntl_951" cx="425.6" cy="113.4" r="6" class="SNTL"/>
    <circle id="sntl_1089" cx="386.7" cy="159.8" r="6" class="SNTL"/>
    <circle id="sntl_954" cx="402.6" cy="193.2" r="6" class="SNTL"/>
    <circle id="sntl_1055" cx="433.3" cy="182.5" r="6" class="SNTL"/>
  </g>
</svg>
