<?xml version="1.0"?>
<svg xmlns="http://www.w3.org/2000/svg" version="1.2" baseProfile="tiny" width="1904" height="1037" viewBox="0 0 1904 1037" stroke-linecap="round" stroke-linejoin="round">
<g id="file892b44747501">
<path d="M 216.03 933.72 222.77 934.1 225.22 938.32 222.93 940.97 217.88 941.3 215.42 938.73 216.03 933.72 Z M 180.54 939.68 189.09 944.77 192.14 953.22 195.09 956.67 195.28 959.78 200.19 962.42 198.84 963.84 195.07 963.11 190.63 955.25 189.02 949.22 186.32 945.8 182.16 943.1 180.54 939.68 Z M 182.49 919.54 185.79 921.26 186.36 923.26 182.49 924.39 182.49 919.54 Z M 140.7 905.72 144.05 905.85 146.81 904.42 152.38 905.09 157.5 899.46 160.4 902.62 153.35 906.43 152.6 909.96 148.1 907.01 142.38 909.66 140.7 905.72 Z M 32.95 819.92 37.02 818.92 39.47 820.56 43.86 819.24 45.65 822.08 43.02 828.4 40.72 827.2 39.98 823.96 35.75 822.75 32.95 819.92 Z M 19.86 779.26 26.91 778.37 30.7 779.84 41.1 786.61 42.81 790.99 45.01 792.97 46.67 799.08 42.45 798.25 41.11 795.42 37.59 797.43 32.53 794.58 28.7 794.78 26.14 789.39 27.32 786.57 25.19 782.31 20.8 781.2 19.86 779.26 Z M 1844.65 826.24 1850.51 821.25 1852.54 824.69 1853.16 828.7 1850.48 829.67 1845.89 828.04 1844.65 826.24 Z M 1838.14 823.41 1839.13 816.6 1836.9 815.19 1835.49 812.03 1836.45 809.26 1842.45 811.35 1846.62 818.53 1846.49 821.87 1841.6 822.05 1838.14 823.41 Z M 1825.13 808.18 1826.01 804.91 1833.04 808.94 1833.26 819.53 1829.51 816.63 1825.13 808.18 Z M 1785.72 760.74 1787.15 756.73 1790.21 758.8 1788.18 761.38 1785.72 760.74 Z M 1774.55 773.4 1777.4 772.53 1781.91 777.97 1780.72 779.13 1776.53 777.16 1774.55 773.4 Z M 1771 766.98 1771.69 762.31 1773.45 760.17 1776.99 760.04 1779.17 758.18 1783.77 760.68 1782.69 763.77 1784.62 767.37 1778.79 771.36 1771 766.98 Z M 1764.74 822.54 1764.74 816.54 1768.47 815.83 1770 817.94 1773.25 816.58 1773.79 813.54 1776.43 812.19 1778.85 813.44 1779.11 816.4 1774.77 820.6 1777.33 822.82 1773.54 827.68 1773.97 832.5 1770.4 829.88 1771.18 826.25 1769.93 822.65 1766.03 821.27 1764.74 822.54 Z M 1755.3 795.39 1757.2 788.45 1759.74 781.89 1756.33 778.84 1753.98 775.18 1755.72 772.12 1760.98 771.66 1768.88 769.99 1773.01 773.36 1777.01 779.13 1780.95 782.96 1783.83 782.62 1791.76 786.12 1799.25 791.97 1801.32 797.19 1805.07 798 1811.29 805.23 1801.62 803.47 1801.74 809.24 1806.03 805.84 1809.55 807.24 1814.09 811.35 1816.12 811.37 1818.72 814.95 1819.14 817.82 1823.26 815.16 1824.62 817.52 1825.16 822.79 1824.29 827.97 1827.87 827.43 1831.15 836.79 1833.06 839.84 1832.49 845.43 1829.17 847.14 1824.85 846.04 1821.12 846.31 1817.23 843.11 1819.96 840.68 1814.77 839.59 1809.7 837.32 1809.43 829.51 1802.8 829.54 1805.97 833.78 1804.86 837.12 1798.81 836.22 1798.84 831.46 1795.3 827.5 1788.9 827.11 1794.37 832.69 1802.26 843.91 1806.42 839.98 1810.6 841.94 1812.93 847.51 1811.54 848.79 1812.74 853.32 1809.74 854.68 1806.46 854.24 1805.18 851.47 1802.29 850.36 1792.78 843.3 1791.23 839.5 1787.97 836.89 1787.95 834.25 1786.07 829.35 1782.86 831.79 1779.67 832.46 1778.1 830.82 1777.44 826.72 1782.62 822.25 1785.61 820.99 1787.38 818.12 1782.72 814.76 1781.27 809.59 1778.94 811.41 1772.29 809.07 1773.23 807.4 1771.29 803.68 1768.09 803.74 1768.69 807.17 1764.57 806.46 1761.98 804.32 1762.57 801.48 1765.41 799.87 1770.28 801.08 1772.27 799.54 1769.9 795.96 1767.76 795.83 1763.41 792.04 1759.47 798.29 1755.3 795.39 Z M 1739.47 803.46 1742.21 801.5 1744.37 804.68 1743.4 807.12 1739.47 803.46 Z M 1722.53 752.96 1725.36 746.89 1732.16 745.54 1737.24 750.95 1738.75 748.08 1735.24 742.29 1730.33 739.79 1730.76 736.96 1733.92 734.59 1742.65 734.21 1751.84 734.59 1758.53 732.23 1762.79 734.64 1766.74 740.48 1770.64 740.94 1774.35 744.5 1778.56 745.79 1782.64 749.48 1778.46 755.02 1776.04 757.04 1765.84 758.11 1767.03 760.16 1765.39 763.35 1758.19 762.89 1756.34 766.89 1751.66 767.72 1748.38 762.68 1746.13 766.65 1747.89 767.59 1749.09 771.84 1746.62 772.72 1748.71 776.28 1748.95 781.96 1747.84 784.87 1748.78 789.85 1744.88 790.85 1744.86 796.12 1742.99 795.73 1739.24 791.01 1737.58 785.95 1735.24 782.25 1734.37 778.69 1734.26 768.2 1730.22 768.05 1729.69 764.3 1726.65 762.36 1722.53 752.96 Z M 1681.3 672.93 1690.23 678.32 1692.67 683.94 1696.14 680.89 1702.27 681.78 1706.5 679.71 1708.58 683.75 1712.26 686.47 1721.4 696.22 1723.69 702.77 1720.28 701.79 1717.58 696.74 1715.37 697.98 1715.22 700.94 1720.61 705.44 1723.77 706.98 1724.25 709.48 1728.6 714.44 1726.74 715.45 1730.01 720.29 1728.21 724 1725.74 723.45 1724.21 731.04 1717.06 743.73 1713.96 744.51 1711.74 740.67 1709.47 734.43 1711.83 728.48 1709.64 727.41 1708.63 724.36 1712.11 723.79 1705.93 718.47 1705.01 715.77 1702.33 713.53 1698.91 708.17 1697.92 702.11 1695.62 698.67 1691.56 690.36 1691.28 688.19 1685.65 682.85 1683.62 679.51 1681.3 672.93 Z M 1676.47 735.95 1679.61 731.3 1679.15 726.52 1681.42 722.65 1688.75 724.99 1694.08 727.57 1700.55 726.21 1702.91 729.53 1703.38 734.93 1710.31 747.02 1711.24 750.39 1713.34 752.59 1717.98 761.41 1721.05 770.86 1719.93 771.95 1723.18 779.01 1725.52 786.6 1726.12 792.28 1720.83 789.8 1718.63 786.08 1714.13 782.65 1702.62 768.96 1699.28 768.53 1694.36 765.36 1691.11 766.16 1687.83 762.25 1691.16 759.77 1690.5 756.82 1691.9 751.77 1686.61 748.94 1688.22 745.26 1687.94 739.43 1684.52 739.94 1682.68 741.86 1680.18 738.58 1676.47 735.95 Z M 1673.71 743.94 1672.34 738.56 1674.79 737.39 1679.22 739.32 1681.81 742.31 1687.26 740.7 1686.69 745.04 1684.35 746.44 1683.66 754.78 1677.37 757.4 1676.36 752.49 1678.39 749.53 1675.39 747.62 1673.71 743.94 Z M 1642.27 712.12 1640.54 703.73 1644.99 698.29 1642.15 691.8 1645.53 691.02 1648.28 696.03 1650.38 692.36 1655.39 692.29 1656.54 689.49 1659.64 686.1 1661.74 688.26 1666.34 688.52 1671.54 691.73 1672.93 690.75 1677.18 692.32 1682.11 691.4 1686.52 692.38 1689.51 695.69 1690.04 698.94 1686.86 702.98 1691.26 705.51 1687.74 709.52 1693.07 708.69 1694.14 711.94 1696.57 714.71 1699.8 721.07 1698.19 723.97 1692.79 725.24 1686.86 722.13 1675.25 717.89 1673.35 721.1 1676.76 723.07 1678.33 728.17 1675.92 735.83 1669.98 735.12 1669.34 733.37 1663.8 730.6 1660.49 726.94 1657.23 727.59 1655.27 722.85 1649.78 715.88 1646.68 715.22 1645.3 713.09 1642.27 712.12 Z M 1346.81 626.5 1348.36 625.64 1354.31 626.2 1352.14 628.48 1346.81 626.5 Z M 1307.64 603.1 1310.06 601.13 1313.09 600.73 1312.71 604.08 1307.64 603.1 Z M 1304.27 614.71 1303.92 612.18 1306.38 611.07 1309.21 615.25 1308.32 617.52 1304.63 618.38 1304.27 614.71 Z M 1296.66 666.9 1297.44 662.34 1302.14 654.21 1305 652.27 1309.75 646.62 1311.46 640.65 1313.87 638.27 1314.04 632.79 1316.59 630.83 1318.17 635.2 1321.4 637.24 1315.75 643.61 1311.49 650.41 1311.04 654.4 1307.99 657.64 1311.37 660.12 1309.6 662.36 1304.97 662.43 1303.58 665.39 1298.26 667.89 1296.66 666.9 Z M 1293.67 640.87 1296.85 627.28 1301.33 621.72 1302.26 632.9 1300.35 637.85 1299.45 645.33 1293.67 640.87 Z M 1289.25 613.74 1290.62 612.07 1294.14 614.83 1292.02 617.45 1289.25 613.74 Z M 1217.09 698.21 1219.78 693.68 1221.47 696.69 1218.66 700.47 1217.09 698.21 Z M 1177.59 642.01 1180.35 638.02 1180.96 632.52 1184.16 633.83 1181.44 637.07 1181.1 640.66 1177.59 642.01 Z M 1141.32 772.64 1144.34 768.26 1147.09 767 1152.33 758.72 1158.37 754.86 1163.73 747.13 1163.3 743.84 1166.13 740.54 1168.08 742.09 1172.39 739.43 1172.97 742.22 1168.01 751.55 1168.65 755.67 1172.48 755.01 1174.93 752.03 1177.36 755.41 1180.66 754.62 1183.75 755.51 1184.54 760.12 1183.98 763.28 1181.25 766.75 1177.82 765.72 1176.55 761.81 1174.27 763.14 1175.78 767.96 1173.46 768.96 1169.28 768.45 1165.78 765.69 1164.15 772.48 1160.73 773.35 1159.35 776.3 1154.46 777 1145.19 773.38 1141.32 772.64 Z M 1136.58 697.12 1140.82 695.73 1142.2 700.16 1137.9 701.12 1136.58 697.12 Z M 1118.93 850.72 1122.44 848.56 1123.21 851.16 1118.93 850.72 Z M 1112.56 859.2 1114.83 856.21 1120.9 854.95 1122.59 858.45 1127.68 857.9 1125.36 861.24 1116.61 862.14 1113.15 861.04 1112.56 859.2 Z M 1100.06 812.26 1102.27 811.47 1102.74 807.76 1104.72 804.13 1113.44 797.33 1117.05 795.61 1124.42 796.37 1124.43 801.78 1127.66 802.37 1129.57 799.76 1128.04 793.03 1125.92 793.21 1125.85 786.99 1132.29 782.56 1136.82 785.87 1137.52 792.36 1139.22 791.76 1140.43 785.43 1137.83 780.25 1140.34 778.37 1145.77 782.47 1146.87 776.4 1150.07 779.23 1153.22 778.59 1157.7 779.92 1158.36 777.51 1161.79 779.14 1157.29 785.04 1162.61 784.21 1164.96 780.57 1167.56 781.56 1169.87 777.99 1173.15 782.36 1174.94 787.65 1170.91 788.54 1170.32 793.95 1171.54 796.15 1179.96 797.23 1179.67 799.22 1175.89 803.16 1174.57 808.56 1170.17 806.1 1164.65 806.46 1162.16 804.11 1157.8 803.91 1157.06 806.19 1161.62 806.86 1166.63 811.05 1165.81 814.45 1162.16 815.31 1160.12 817.82 1157.28 814.52 1154.12 815.98 1156.26 818.24 1149.52 822.8 1156.17 822.32 1157.39 825.75 1148.07 828.77 1144.84 831.03 1142.25 828.57 1145.9 823.23 1143.85 822.2 1139.71 828.29 1136.82 830.4 1137.99 833.45 1136.24 836.45 1133.4 837.44 1133.58 840.88 1129.43 842.23 1126.93 846.23 1124.77 847.73 1119.99 845.54 1121.63 842.26 1125.87 838.02 1124.52 835.38 1128.15 826.45 1124.42 829.46 1121.52 834.9 1116.87 840.25 1111.98 835.48 1107.68 833.64 1108.01 828.74 1107.32 822 1105.08 817.92 1102.69 816.97 1100.06 812.26 Z M 1098.6 865.23 1101.79 860.32 1107.19 855.87 1109.84 855.9 1111.62 858.54 1104.04 863.15 1100.77 866.98 1098.6 865.23 Z M 1068.12 899.21 1074.12 895.95 1073.07 902.96 1069.01 902.26 1068.12 899.21 Z M 1019.9 856.75 1022.39 854.49 1027.77 854.93 1024.79 857.56 1019.9 856.75 Z M 950.19 945.65 951.79 942.86 954.07 944.24 952.85 947.04 950.19 945.65 Z M 945.9 942.37 947.53 939.57 946.8 935.87 950.13 936.42 950.18 941.25 945.9 942.37 Z M 940.48 928.18 944.61 928.83 945.64 931.69 944.13 934.53 940.23 936.16 940.48 928.18 Z M 920.08 941.16 924.38 936.79 923.14 930.71 927.63 926.46 932.49 928.93 933.33 932.98 924.76 938.45 922.19 942.17 920.08 941.16 Z M 919.62 912.84 922.41 911.02 926.5 912.09 926.02 915.67 920.29 914.76 919.62 912.84 Z M 902.67 917.29 904.94 913.93 907.85 913 912.19 914.24 916.64 917.53 919.71 916.61 920.28 919.91 917.48 920.59 911.47 919.1 913.89 925.54 912.27 929.01 908.23 926.88 907.4 923.93 902.47 923.77 902.67 917.29 Z M 915.15 731.64 916.63 725.37 923.16 723.23 928.17 720.09 921.08 732.76 915.16 733.93 915.15 731.64 Z M 867.68 924.89 870.53 921.71 875.9 925.06 872.61 929.06 869.76 925.07 867.68 924.89 Z M 849.18 933.32 853.09 930.62 855.88 932.26 855.47 936.3 853.78 938.69 851.31 938.92 849.19 935.85 849.18 933.32 Z M 905.37 444.08 909.28 441.63 913.39 442.69 913.58 446.99 906.74 446.75 905.37 444.08 Z M 832.65 958.53 833.16 956.07 840.81 959.75 842.75 961.92 845.82 962.31 843.93 966.16 836.05 961.81 833.77 962.92 832.65 958.53 Z M 751.34 966.14 754.24 964.94 758.03 966.1 756.82 969.07 751.34 966.14 Z M 737.58 955.22 741.12 953.86 743.73 960.17 740.65 963.68 738.2 962.08 738.62 958.31 737.58 955.22 Z M 722.85 958.64 727.51 955.06 731.06 955.97 731.68 959.28 734.61 959.79 736.47 963.86 725.85 963.93 723.63 964.54 722.85 958.64 Z M 748.27 612.42 751.98 611.89 757.62 613.03 759.61 614.45 764.84 615.68 765.67 612.46 769.67 609.84 773.59 609.29 776.48 607.54 779.38 610.08 784.37 608.98 787.05 613.38 789.61 614.34 792.72 613.22 797.81 617.08 796.08 620.01 796.78 622.34 796.36 628.05 794.74 629.64 796.71 639.11 789.36 638.83 783.83 639.51 780.55 641.75 780.76 644.99 778.08 644.89 776.43 641.03 773.05 638.1 767.26 637.16 758.27 627.82 755.23 626.69 752.04 621.99 749.67 621 750.07 617.62 748.27 612.42 Z M 655.91 993.18 662 990.27 664.38 990.92 670.51 988.87 673.69 990.58 680.37 986.19 683.12 987.26 682.16 981.83 685.61 981.7 686.63 977.36 688.78 976.65 694.18 978.32 695.96 977.13 690.18 973.65 688.36 974.33 685.27 969.69 685.74 967.49 690.22 963.86 695.68 962.43 703.67 962.49 704.81 964.49 702.63 967.52 704.99 970.57 709.17 969.58 709.87 967.07 715.34 966.55 717.08 969.69 715.7 972.44 712.82 972.59 709.39 975.41 708.38 977.94 715.82 976.16 719.27 974.62 718.76 979.02 712.1 983.12 702.49 984.8 700.6 989.8 697.64 991.72 695.23 990.13 694.05 993.69 689.64 993.46 681.08 991.96 675.13 994.36 669.61 995.72 667.51 998.28 664.36 996.5 662.09 998.22 657.32 995.26 655.91 993.18 Z M 794.82 305.55 799.09 302.27 810.24 299.24 816.1 296.72 829.03 289.69 855.11 278.33 864.92 275.05 881.69 270.86 888.99 269.82 902 271.21 903.55 275.75 902.26 279.08 899.2 282.39 899.2 289.09 896.55 293.37 898.86 301.14 902.13 301.77 905.28 300.67 908.73 301.19 912.56 303.19 922.36 302.76 924.93 305.99 928.85 305.41 930.14 307.28 936.62 305.88 942.83 309.19 947.03 304.6 950.89 297.73 955.71 297.41 958.69 300.25 963.53 298.26 961.03 293.36 952.41 288.95 948.58 288.55 943.23 290.58 945.04 285.59 945.26 281.59 940.9 275.45 939.7 270.86 937.82 268.91 933.13 267.61 930.9 260.44 931.7 257.83 938.84 256.88 939.76 260.68 943.86 267.31 941.84 270.83 941.79 273.52 947.63 282.7 951.58 286.48 957.44 284.88 958.45 282.58 954.18 281.82 954.26 279.82 950.07 275.94 946.48 270.03 949.53 260.99 952.72 256.81 952.53 254 950.29 251.49 943.2 252.03 940.41 253.51 934.48 253.71 930.62 250.27 927.02 251.93 924.35 249.66 913.37 244.53 908.2 241.56 908.97 234.24 907.68 224.93 904.77 214.8 902.42 211.4 896.22 205.48 885.5 191.36 882.32 186.53 878.92 183.51 871.44 179.28 868.74 173.6 865.45 168.84 859.94 164.76 854.66 162.15 864.08 160.04 865.97 158.15 868.52 152.75 871.67 141.07 872.16 135.41 883.1 138.77 890.06 139.83 904.26 139.29 912.67 139.4 918.84 137.27 929.05 129.89 935.66 122.38 939.41 113.73 940.47 104.85 944.8 94.15 951.93 86.21 957.58 78.29 960.64 74.96 970.57 68.36 977.07 70.82 981.83 71.48 991.52 68.03 998.45 63.72 1004.05 59.05 1016.06 46.98 1025.49 43.24 1025.74 45.54 1029.38 47.91 1034.9 48.9 1040.59 47.41 1046.99 47.12 1052.16 45 1057.43 41.23 1062.51 35.71 1071.36 23.1 1076 19.65 1076.58 22.79 1079.77 24.85 1085.02 26.07 1087.11 29.25 1090.83 28.89 1094.05 30.2 1095.34 34.43 1094.64 36.42 1089.16 41.57 1086.01 42.46 1088.23 49.11 1092.52 49.52 1095.22 47.57 1095.15 43.11 1098.44 39.63 1099.83 36.31 1104.47 31.85 1112.23 38.63 1112.96 49.76 1117.16 49.3 1120.41 53.01 1123.97 50.03 1125.97 46.48 1133.68 46.44 1138.36 44.36 1144.75 46.41 1150.49 46.42 1157.8 49.43 1155.01 55.62 1153.24 57.1 1154.32 61.52 1160.51 62.57 1166.07 64.71 1167.87 67.46 1164.22 68.84 1165.13 71.15 1171.35 70.65 1179.4 73.63 1183.01 68.85 1191.3 67.12 1194.59 71.08 1200.05 69.08 1203.82 64.86 1217.2 65.36 1221.71 68.47 1225.09 69.4 1228.47 68.02 1232.89 74.36 1238.6 71.62 1244.57 74.76 1247.62 78.79 1254.16 78.84 1256.05 76.89 1258.03 80.24 1261.4 80.34 1263.23 77.99 1275.24 77.15 1278.89 78.51 1284.84 77.59 1288.55 80.74 1297.54 84.6 1309.08 84.46 1311.76 80.35 1321.07 75.31 1322.13 73.99 1327.21 72.41 1331.08 72.34 1333.63 70.45 1345.02 74.69 1350.52 77.65 1352.91 80.47 1355.58 80.53 1362.55 84.02 1367.71 85 1374.24 89.13 1378.69 88.89 1383.2 90.21 1473.64 546.33 1477.82 566.82 1486.16 609.47 1500.4 611.63 1501.09 606.35 1515.69 610.62 1521.76 600.37 1538.44 595.63 1538.94 597.45 1538.38 611.08 1543.57 615.36 1554.27 618.05 1558.31 625.16 1593.84 647.26 1600.47 660.76 1600.85 665.28 1603.02 664.57 1606.88 658.13 1616.22 647.68 1616.97 646.31 1623.76 644.12 1625.13 636.72 1622.21 626.79 1627.01 625.56 1627.39 619.86 1623.63 618.5 1627.47 615.07 1633.76 612.02 1644.67 600.9 1652.44 604.57 1656.21 607.78 1660.75 610.14 1662.21 614.99 1660.94 618.16 1664.66 619.46 1664.19 622.02 1667.2 625.02 1674.91 624.63 1676.43 627.54 1680.59 629.93 1682.87 629.22 1687.23 633.42 1687.51 636.87 1693.64 642.04 1707.57 645.57 1713.31 650.75 1725.75 657.65 1724.11 660.73 1728.84 665.24 1735.91 670.4 1741.84 678.21 1750.54 684.75 1756.22 691.13 1760.6 694.81 1765.82 700.44 1774.14 706.91 1779.87 712.82 1778.53 720.46 1788.83 719.75 1789.69 729.75 1798.29 730.86 1798.44 733.95 1800.57 736.26 1803.25 741.58 1810.5 738.26 1814.94 740.35 1825.61 742.72 1828.96 744.12 1838.76 742.96 1845.4 746.57 1850.46 746.15 1853.74 751.09 1859.93 751.51 1863.62 748.53 1868.9 753.5 1870.4 758.77 1870.25 764.3 1869.3 768.02 1872.18 771.99 1873.73 777.59 1878.92 783.47 1881.81 789.28 1884.35 791.72 1882.24 797.93 1882.25 805.79 1881.4 811.48 1878.18 820.27 1874.26 825.69 1873.76 829.74 1870.4 825.94 1867.62 829.1 1865.29 828.54 1861.14 821.36 1858.35 818.6 1857.82 814.41 1854.78 812.54 1852.11 809 1854.34 804.91 1855.32 797.82 1852.8 794.52 1852.29 788.37 1848.17 779.98 1845.95 777.32 1838.59 771.48 1842.73 778 1846.41 781.13 1849.73 786.71 1848.65 789.32 1850.97 797.04 1852.21 803.41 1849.95 809.49 1845.06 808.97 1840.98 810.16 1837.21 805.9 1836.24 808.58 1830.56 806.88 1824.23 802.96 1822.97 799.47 1827.35 794.38 1824.36 791.84 1822.48 787.1 1822.22 783.64 1819.81 778.18 1816.66 780.43 1819.86 783.25 1820.78 791.52 1819.08 802.1 1811.5 799.45 1808.18 793.77 1807.6 788.03 1809.95 785.33 1808.96 778.08 1806.48 773.65 1808.24 769.01 1805.95 768.63 1803.12 774.27 1806.33 779.04 1806.1 781.24 1802.42 782.35 1796.73 782.4 1793.45 776.9 1790.94 777.48 1789.62 780.17 1785.1 774.93 1783.96 771.01 1787.06 768.64 1787.44 762.61 1793 760.55 1788.79 753.34 1787.98 748.28 1785.69 749.68 1780.9 747.15 1779.07 740.33 1771.34 738.09 1766.82 734.3 1763.44 728.57 1758.01 727.86 1754.62 728.53 1752.04 726.5 1750.26 728.51 1743.43 726.82 1741.5 723.57 1742.03 719.66 1744.22 720.11 1745.48 716.88 1742.2 716.56 1737.8 709.96 1736.84 705.01 1733.51 706.04 1731.1 704.04 1730.22 699.04 1734.55 699.45 1740.62 698.57 1731.85 694.71 1730.15 690.36 1727.29 695.25 1720.84 688.76 1712.94 683.68 1709.83 677.5 1704.69 678.54 1693.23 678.66 1686.65 671.72 1684.65 666.7 1678.48 661.4 1677.98 657.48 1675.73 652.07 1673.33 652.82 1668.83 650.36 1663.54 638.2 1659.6 632.49 1654.89 627.93 1652.42 629.24 1657 632.27 1660.79 637.84 1658.65 638.9 1660.04 645.46 1668.25 657.07 1672.73 662.83 1672.04 665.41 1677.34 672.95 1680.29 678.83 1679.07 680.18 1680.93 685.12 1674.97 684.86 1670.02 680.72 1667.9 677.06 1665.85 678.48 1661.82 677.09 1659.52 679.61 1654.64 681.94 1653.87 678.07 1651.1 671.58 1650.86 668.93 1646.59 664.6 1642.83 659.53 1641.98 663.21 1639.31 664.2 1631.05 661.37 1628.75 656.71 1626.43 659.59 1628.51 662.06 1632.77 664.29 1638.56 669.23 1641.37 668.39 1643.4 673.19 1647.09 676.13 1650.8 683.05 1649.37 685.67 1645.37 688.42 1642.4 685.51 1642.07 690.35 1637.33 690.47 1637.43 696.27 1634.26 697.02 1630.83 693.75 1624.67 689.33 1619.93 690.6 1606.54 684.34 1600.39 682.13 1599.6 679.79 1591.14 675.12 1589.82 670.29 1584.82 666.32 1577.2 662.48 1566.35 660.6 1556.83 655.92 1541.07 651.84 1526.92 645.8 1529.32 639.34 1533.18 638.24 1531.67 630.89 1528.99 625.65 1531.15 621.35 1531.55 618.06 1529.01 615.9 1528.69 621.38 1526.46 622.95 1525.52 629.21 1515.89 636.28 1512.45 639.78 1502.64 640.74 1495.53 640.39 1479.17 635.74 1478.88 633.52 1481.97 631.71 1482.43 628.09 1477.98 622.43 1472.62 620.96 1479.12 627.24 1473.47 631.92 1469.54 632.65 1464.14 630.88 1457.87 630.84 1446 629.84 1435.6 631.26 1431.35 633.22 1421.89 635.73 1414.13 638.35 1408.95 641.57 1404.8 640.22 1400.49 642.19 1394.93 648.92 1394.13 646.41 1399.54 639.86 1404.12 639.08 1402.03 636.11 1396.8 634.51 1395.43 637.53 1389.44 632.75 1378.76 632.41 1383.15 629.29 1376.49 627.67 1379.1 619.57 1373.71 622.48 1374.03 625.25 1372.44 628.69 1368.45 628.62 1360.88 624.85 1358 621.92 1353.91 621.12 1350.86 623.17 1348.85 620.73 1340.75 624.12 1337 624.33 1337.33 626.96 1343.18 624.91 1343.23 628.59 1340.69 630.73 1336.66 631.64 1331.23 637.2 1328.56 635.01 1331.71 632.53 1327.49 631.4 1327.08 628.76 1328.97 624.5 1331.82 622.75 1334.03 624.03 1338.29 620.66 1341.92 619.62 1347.23 616.09 1351.28 614.6 1344.82 611.19 1341.45 613.65 1337.95 613.1 1340.25 608.4 1331.41 612.02 1326.71 611.82 1325.41 609.15 1334.61 605.57 1339.02 601.57 1336.71 600.65 1335.07 603.47 1329.04 604.84 1326.9 601.7 1324.39 605.24 1323.1 601.58 1322.92 597.06 1325.88 589.4 1335.25 588.06 1334.34 586.31 1325.51 587.53 1323.76 590.87 1321.35 592.34 1319.62 596.35 1316.84 599.02 1314.77 591.33 1312.08 596.88 1306.08 603.39 1301.2 602.15 1300.36 604.15 1295.39 602.41 1294.88 604.73 1296.76 607.71 1291.67 607.79 1288.57 610.47 1285.19 608.17 1286.92 601.77 1289.58 596.31 1289.38 593.74 1293.66 587.29 1294.12 582.35 1287.98 593.32 1285.9 598.02 1283.53 598.55 1281.1 603.44 1279.75 610.06 1281.93 612.77 1286.77 613.12 1287.54 617.53 1283.41 621.69 1281.55 625.54 1283.89 627.46 1285.34 623.68 1288.07 621.25 1291.44 625.32 1292.86 629.48 1291.38 639.06 1288.72 641.7 1295.39 647.16 1298.43 651.07 1297.23 654.98 1292.74 658.39 1287.43 656.72 1284.52 653.68 1281.27 659.17 1277.75 659.35 1276.02 661.14 1272.35 658.98 1269.62 661.15 1267.87 658.74 1265.2 659.98 1261.96 658.58 1260.55 656.26 1258.2 664.99 1254.29 666.47 1256.55 659.46 1254.52 651.18 1252.42 652.47 1253.33 659.14 1252.53 662.73 1249.99 663.36 1249.27 669.85 1251.89 671.21 1251.54 674.89 1248.63 673.51 1247.02 667.39 1244.75 666.54 1245.88 676.06 1242.58 675.79 1240.1 677.78 1233.51 685.89 1228.9 692.87 1226.45 693.68 1229.42 683.18 1226.78 685.08 1224.08 690.49 1217.76 692.92 1217.05 695.94 1213.12 699.62 1212.44 704.13 1207.64 702.63 1207.7 705.21 1201.98 705.92 1198.06 703.55 1194.22 707.03 1193.82 708.96 1189.25 709.3 1186.55 706.51 1182.4 704.1 1181.93 700.7 1184.4 697.96 1184.77 694.5 1191.9 690.76 1194.37 691.31 1195.21 688.29 1198.52 687.15 1201.9 684 1209.84 672.87 1206.13 673.39 1200.19 678.97 1195.33 682.01 1191.32 681.4 1185.86 677.42 1184.66 674.14 1187.52 666.11 1188.85 659.53 1196.4 648.95 1197.2 640.61 1199.43 639 1200.04 629.98 1198.32 628.29 1195.62 620.04 1200.93 616.42 1205.05 615.84 1214.47 606.82 1223.18 600.59 1228.65 608.14 1234.13 609.95 1237.21 604.27 1240.06 603.67 1243.79 605.65 1245.63 605.05 1251.98 606.95 1258.49 607.47 1256.01 604.17 1252.36 605.11 1247.13 602.4 1244.78 602.61 1240.72 600.81 1237.98 597.6 1231.05 593.46 1232.68 590.66 1234.98 590.09 1237.68 583.84 1239.82 582.83 1240.4 579.8 1244.76 578.23 1247.52 575.8 1242.35 573.52 1235.66 580.16 1234.92 587.1 1233.21 588.69 1227.18 587.79 1220.05 589.03 1215.08 586.32 1213.44 589 1205.09 593.54 1201.54 601.23 1196.27 603.55 1193.03 603.59 1189.28 606.78 1184.55 612.86 1187.45 619.67 1183.44 619.72 1178.74 623.32 1176.71 627.88 1174.1 629.36 1171.02 633.04 1170.53 636.66 1173.28 639.4 1169.65 641.8 1169 644.74 1165.24 647.71 1159.11 648.87 1159.54 652.19 1164.31 657.97 1160.61 666.96 1157.7 669.12 1152.23 668.73 1146.27 670.17 1144.22 672.6 1151.72 671.73 1152.54 674.16 1150.99 679.86 1146.39 683.19 1142.71 683.97 1138.88 682.78 1136.55 684.9 1135.79 688 1130.74 688.48 1132.55 693.02 1131.74 694.63 1122.6 697.33 1120.92 699.92 1120.1 707.45 1117.65 710.8 1119.04 713.71 1122.04 715.33 1128.25 716.42 1132.75 715.21 1135.09 719.02 1139.06 719.65 1141.45 721.29 1144.54 726.99 1143.09 728.06 1141.45 734.02 1137.06 737.21 1133.4 741.53 1126.92 741.85 1125.82 748.22 1122.22 748.52 1121.79 751.32 1123.91 754.94 1118.62 758.06 1120.81 760.41 1119.55 764.35 1117.33 765.84 1113.69 771.16 1110.84 767.88 1110.01 772.99 1106.44 775.18 1102.42 773.1 1100.91 776.02 1097.13 774.6 1094.16 775.37 1090.26 778.7 1091.92 781.55 1090.82 783.75 1086.54 785.85 1083.87 785.6 1084.37 791.67 1082.15 792.38 1076.52 787.77 1075.02 788.86 1074.47 795.3 1071.58 796.53 1071.2 801.29 1064.04 801.39 1061.76 800.18 1062.22 807.29 1058.75 805.36 1052.49 808.23 1047.98 812.56 1052.42 812.87 1052.17 821.61 1048.97 824.61 1048.68 827.01 1045.7 829.01 1044.96 832.65 1041.4 831.8 1034.69 833.95 1030.84 836.57 1026.38 842.81 1024.41 844.05 1019.19 838.43 1016.2 839.89 1017.84 843.62 1014.59 843.93 1012.97 847.11 1015.45 849.06 1015.76 851.82 1009.23 852.25 1007.51 848.39 1001.74 849.91 999.58 852.27 1003.97 854.73 1004.46 857.4 1002.63 859.59 995.28 856.45 994.6 859.85 988.39 858.12 985.96 859.62 982.67 863.67 982.81 865.86 987.99 867.15 991.5 869.13 989.38 873.82 985.65 877.85 983.82 881.46 984.15 884.58 978.25 882.23 976.16 887.22 973.48 887.33 973.38 884.1 969.97 884.23 967.94 887.97 952.89 890.41 951.35 894.99 948.6 896.08 946.48 899.38 946.99 901.67 943.86 905.37 940.02 906.51 942.19 901.8 944.16 892.03 938.97 890.09 937.55 893.05 932.35 892.89 930.43 897.01 926.04 900.2 922.95 900.89 918.9 899.14 919.14 902.73 916.37 907.94 913.83 909.5 912.94 904.31 910.05 905.16 909.57 909.94 905.85 910.02 903.6 905.5 900.97 906.31 898.29 910.41 890.86 913.81 886.75 911.83 882.03 912.52 884.11 905.11 888.43 899.33 886.67 897.66 881.15 897.73 876.92 902.99 876.59 909.31 869.47 917.51 863.82 918.22 865.89 922.51 865.76 925.24 862.55 926.71 859.11 921.71 857.25 924.46 856.88 928.6 848.9 926.28 849.77 922.16 849.07 914.96 847.04 911.94 844.53 911.85 842.18 915.8 844.37 917.39 846.02 921.04 844.47 923.12 845.47 927.9 842.84 928.62 838.34 931.71 833.85 930.11 832.4 927.01 832.01 922.43 829.75 920.32 826.07 920.99 824.47 923.53 829.58 928.45 829.84 930.01 823.32 934.55 817.81 936.44 819.37 939.38 823.73 938.76 825.9 941.47 826.92 945.71 821.7 944.08 818.46 939.51 815.33 941.01 812.88 944.08 809.36 946.06 804.3 943.98 793.19 943.16 788.09 944.36 784.38 946.94 783.11 950.49 779.32 952.48 773.05 953.12 766.62 950.56 764.66 941.15 765.95 939.66 773.26 937.64 779.76 927.82 780.46 925.75 784.82 923.92 787.19 926.51 793.49 924.08 797.94 923.83 802.91 920.61 806.93 920.25 814.64 921.78 816.91 926.63 817.8 930.62 821.92 927.51 822.64 923.83 822.29 918.44 829.48 916.14 834.13 917.5 838.29 915.04 837.1 912.23 840.3 910.34 842.4 910.79 845.11 907.85 847.72 909.2 850.38 907.15 850.34 903.07 851.54 900.32 860.06 891.28 867.12 886.58 872.65 884.54 875.64 881.72 898.02 877.05 907.76 877.4 906.42 879.09 907.05 883.96 903.71 884.47 903.22 889.06 906.73 893.77 908.54 891.24 908.73 885.67 912.72 887.52 917.33 887.65 917.75 891.88 920.41 891.81 925.27 889.2 916.45 883.26 914.99 880.63 918.7 875.63 923.94 864.59 931.19 858.39 938.07 854.8 941.86 851.16 951.38 847.26 956.22 844.02 960.27 842.47 968.26 837.86 970.3 835.95 973.27 839.51 978.84 839.66 979.89 836.89 978.61 834.45 979.45 828.79 984.26 821.34 989.2 815.31 994.51 810.83 999.09 809.09 1004.14 802.61 1011.35 798.05 1012.8 801.73 1015.16 801.05 1014.43 795.43 1011.88 795.37 1011.85 789.06 1014.17 780.81 1016.72 766.39 1018.33 764.43 1022.42 763.9 1018.27 757.74 1018.94 751.28 1021.78 744.93 1024.62 743.47 1027.09 739.81 1033.37 733.96 1036.18 726.75 1035 722.34 1032.65 724.84 1027.92 726.4 1019.62 730.63 1015.26 731.79 1010.43 734.46 1001.83 737.55 999.14 737.1 996.37 734.33 996.03 730.75 994.07 728.22 990.06 726.07 991.58 723.07 993.1 715.03 991.85 715.05 988.89 719.81 984.38 722.16 983.87 727.78 980.95 731.54 981.64 735.53 984.7 743.95 981.7 748 978.64 748.8 973.83 746.56 969.42 735.03 965.72 726.55 962.76 722.76 958.71 721.24 960.63 718.24 959.93 716.4 956.53 716.16 955.55 720.36 953.77 723.07 950.65 724.26 946.95 717.8 944.03 718.73 940.49 713.88 941.62 711.16 940.26 706.69 935.41 708.76 926.72 714.51 919.14 717.2 908.66 722.17 907.17 726.4 899.32 729.16 897.41 731.11 892.38 726.34 886.56 726.6 883.66 724.66 889.12 723.01 890.51 725.08 896.27 718.92 896.99 716.05 897.14 707.88 892.64 696.93 891.33 689.88 895.09 684.05 897.35 683.2 900.28 679.65 902.94 678.66 899.12 669.11 898.68 663.77 894.51 655.27 894.29 650.41 888.67 638.13 885.18 639.08 884.88 644.5 883.78 647.14 879.64 648.11 877.99 646.9 874.73 649.71 866.36 652.76 858.63 654.05 852.55 654.24 842.1 652.55 837.2 649.92 835.56 643.19 838.01 642.67 836.68 639.01 831.73 635.2 829.14 627.74 826.29 624.77 824.99 621.48 820.86 620.39 818.09 617.85 814.38 611.79 819.7 608.37 817.41 605.89 813.31 607.89 808.65 606.58 808.85 602.5 811.94 602.95 818.61 597.78 821.34 596.92 820.13 593.91 821.49 585.82 818.02 583.14 817.95 580.65 820.28 579.14 819.98 571.53 816.09 569.57 814.11 574.16 809.15 572.8 807.95 568.28 809.16 562.05 802.87 557.65 802.68 552.75 807.09 551.36 807.86 549.08 804.23 545.1 797.5 546.35 797.4 541.97 799 539.73 808.13 539.04 803.51 534.91 801.99 530.53 805.92 529.41 811.03 530.74 814.37 530.08 812.79 523.12 813.79 516.87 816.43 513.51 828.13 501.74 829.7 499.21 835.08 494.63 838.33 488.38 843.25 486.59 843.16 480.86 847.04 472.16 849.29 469.06 853.14 466.68 852.23 464.26 858.58 458.69 866.14 457.15 868.77 457.44 872.26 460.21 876.04 461.29 878.39 465.78 885.18 472.7 892.38 472.3 898.07 467.79 899.05 464.97 903.25 464.13 910.03 456.52 910.64 454.81 914.99 450.84 915.84 447.85 920.77 451.44 920.88 453.87 925.56 454.45 929.79 453.93 932.01 455.17 939.05 454.62 943.62 453.22 944.74 450.86 950.38 445.15 954.52 438.97 954.86 435.48 952.61 426.63 951.76 420.59 952.03 412.29 945.98 402.35 940.25 400.29 941.66 395.67 943.78 394.41 947.33 396.66 952.43 397.24 958.48 391.55 959.55 385.56 956.49 379.24 953.31 376.21 950.18 375.08 948.09 376.57 945.57 380.88 942.05 381.61 938.69 379.18 933.08 383.07 925.89 383.87 923.87 387.1 915.84 391.15 913.6 394.31 912.54 399.04 907.96 400.33 907.92 391.89 903.68 386.24 900.23 383.25 897.61 385.4 903.64 392.56 901.16 396.17 899.43 396.49 898.09 392.28 893.81 387.92 890.51 385.81 885.01 384.33 881.32 385.13 877.26 383.76 870.47 383.81 860.28 387.68 855.1 387.69 846.12 382.49 827.19 374.14 824.04 370.39 822.87 364.66 823.66 361.13 825.95 357.24 823.92 353.09 820.65 349.67 821.07 346.83 817.81 343.01 823.27 342.76 828.04 340 828.28 337.31 831.82 334.98 829.16 331.33 822 329.58 817.12 326.03 807.08 322.22 802.59 316.32 798.61 312.44 795.1 310.21 794.82 305.55 Z M 610.23 1009.26 613.71 1008.74 614.33 1005.94 618.02 1004.97 618.63 1002.3 621.52 1001.3 621.75 997.69 623.97 993.87 630.54 990.08 632.27 991.74 638.9 992.6 638.53 983.92 641.56 980.8 646.95 978.62 653.8 978.25 656.67 981.49 660.34 983.39 657.14 986.37 657.07 989.32 649.53 992.47 641.11 994.2 637.59 998.5 631.02 1003.99 627.9 1003.77 623.78 1006.37 610.35 1010.67 610.23 1009.26 Z M 635.71 796.62 644.18 799.09 640.92 802.62 635.71 796.62 Z M 578.2 1002.59 583.17 1003.13 586.55 1001.85 589.73 1004.37 587.54 1007.93 583.36 1005.56 578.82 1006.05 578.2 1002.59 Z M 570.45 1007.87 571.79 1004.6 575.28 1006.13 574.03 1008.91 570.45 1007.87 Z M 624.18 761.5 625.69 759.71 632.81 760.12 631.87 762.74 627.54 763.19 624.18 761.5 Z M 547.03 1009.09 548.06 1007.24 551.7 1005.63 555.09 1005.48 557.15 1007.33 554.75 1010.98 552.4 1010.28 547.69 1012.75 547.03 1009.09 Z M 529.42 1010.68 531.98 1009.23 533.43 1011.36 531.34 1013.7 529.42 1010.68 Z M 678.45 400.26 682.61 394.45 684.35 388 686.23 388.36 686.05 394.55 690.86 398.74 698.35 403.68 701.58 405.02 707.75 402.22 713.57 400.78 718.44 402.69 721.99 407.81 721.52 414.88 725.54 418.69 730.63 420.74 732.28 424.36 738.81 427.59 745.43 429.28 752.59 433.72 748.82 439.22 746.46 440.86 742.25 438.17 738.36 437.3 733.62 437.63 728.64 440.95 726.52 446.15 724.24 447.91 722.34 445.16 721.33 438.95 719.21 435.28 715.43 431.34 711.92 430.73 710.87 424.22 707.05 419.18 700.35 413.98 694.7 411.96 690.01 412.96 687.71 415.29 684.06 415.99 678.19 410.9 677.16 406.43 678.45 400.26 Z M 482.62 1009.11 485.16 1006.86 489.83 1005.73 493.52 1008.24 493.8 1010.47 489.18 1012.28 482.28 1011.7 482.62 1009.11 Z M 599.63 558.09 601.2 555.04 604.3 553.31 604.5 559.21 606.75 563.45 610.54 567.75 615.03 569.08 616.67 573.4 611.83 571.62 609.01 571.69 606.47 568.62 602.72 560.56 599.63 558.09 Z M 432.1 1003.74 436.34 1005.05 439.9 1007.71 446.6 1007.06 454.65 1012.8 462.7 1014.42 460.85 1016.8 455.52 1015.26 452.33 1016.08 447.15 1014.47 445.37 1012.65 435.64 1009.76 432.1 1003.74 Z M 387.57 995.67 398.24 996.28 411.36 998.65 414.82 997.96 416.04 995.87 421.03 997.26 425.11 996.71 427.56 993.96 423.9 992.44 427.02 987.64 432.33 986.97 435.76 989.66 436.84 995.61 433.25 998.63 429.48 996.96 428.84 1003.16 423.68 1003.67 422.24 1001.69 418.06 1005.5 415.27 1003.42 406.94 1003.19 405.82 1001.35 399.73 999.08 397.64 1000.18 391.04 998.07 387.57 995.67 Z M 365.89 990.97 370.75 991.95 370.73 995.23 365.89 990.97 Z M 359.49 983.05 361.89 981.56 364.84 983.06 366.27 987.64 363.35 988.58 364.16 991.74 362.14 992.81 358.12 990.37 359.49 983.05 Z M 353.61 996.09 355.14 993.72 359.41 996.16 363.33 994.28 363.8 997.08 357.69 999.56 353.61 996.09 Z M 324.73 997.63 325.5 996.21 330.71 993.62 331.11 988.99 335.01 990.06 336.89 987.7 336.42 983.98 338.36 982.35 342 984.46 346.11 983.62 345.24 987.11 342.41 987.56 342.59 991.25 352.66 993 352.45 996.18 350.26 999.96 342.75 998.04 337.27 1000.43 335.04 998.08 332.83 1000.19 330.07 996.21 326.04 1000.3 324.73 997.63 Z M 302.5 984.79 305.23 984.07 307.75 985.9 318.06 985.92 320.91 985.26 323.48 979.45 327.03 980.06 328.1 982.7 323.44 986.05 322.27 990.73 316.72 991.62 313.45 987.26 309.6 987.55 302.5 984.79 Z M 288.78 969.16 292.86 968.34 298.46 970.74 301.13 979.1 296.97 984.3 290.74 985.07 289.16 980.11 294.22 980.93 295.3 977.82 292.86 976.85 288.64 970.49 288.78 969.16 Z M 265.81 965.42 268.64 963.89 270.11 966.22 266.64 968.54 265.81 965.42 Z" fill-rule="evenodd" fill="none" stroke="#a9a9a9" stroke-width="1"/>
</g>
</svg>