<svg xmlns="http://www.w3.org/2000/svg" id="usgs-logo" viewBox="0 0 660.7 244">
  <path fill="#545251" d="M46.4 57.6l.5.5a38.8 38.8 0 0048.6 3.5c8.7-5.7 48-32 70.2-46.6V.3H.3v39c10-1.7 26.4 0 46 18.3m62.3 64.8L89 103.7a39.8 39.8 0 00-42.8-10.3 22.3 22.3 0 00-5 2.7L.4 123.5v49.4h165.4v-35.7c-4 2.4-26.3 14.6-57.3-14.8M44.9 62c-1-.7-1.9-1.6-2.8-2.4A40 40 0 00.3 53.7v17l9.6-6.3s14.6-11 37.6.3L44.9 62m23 22a29.5 29.5 0 01-2.6-2.4 40.1 40.1 0 00-41-8.4 22 22 0 00-5.1 2.7L.5 88.4V106l31.2-21.2s14.5-10.8 37.2 0l-1-.7m97.8 18.4L149.9 113c-5.9 3.9-19.4 13.8-42.2 3l2.7 2.5a29.9 29.9 0 003.5 3 39 39 0 0046.7 1.8l5-3.3.1-17.6m0-35.1l-37.2 25c-5.9 3.9-19.7 13.8-41.9 3.3l2.5 2.4c.4.2.6.6 1 .7a39.7 39.7 0 0049.2 3.7l26.4-17.8V67.3m0-34.9C145 46.2 111.3 69 107 71.5c-5.9 4-20 14-41.8 3.5l2.6 2.6a43.3 43.3 0 006 4.8c15.2 9.7 31 7.8 43.8-.8L165.5 50V32.4M8.6 223a8.8 8.8 0 00-.4 3.6c.4 1 1.1 1.5 2.8 1.5a4 4 0 003.8-3.1c1.2-6.3-13.6-4.9-11.6-14.3 1.4-6.3 8.1-8.3 13.5-8.3 5.7 0 10.2 2.7 8.4 9h-8.2c.4-2 .6-3.2 0-3.8a2.2 2.2 0 00-2-.7c-1.8 0-3 1.3-3.4 3.2-1.1 4.8 13.6 4.6 11.6 14-1.1 5.3-6.2 9-13 9-7.2 0-11.8-1.7-9.5-10.1h8m35.5-9.6c1-4.3.2-6-2.5-6-3.6 0-4.5 3-5.8 9.2-2 9-1.6 11 1.5 11 2.5 0 4.3-2.3 5-6h8.4c-1.7 8-7 11.5-14.7 11.5-10.7 0-10.7-6.5-8.7-16 1.8-8 4.3-15 15.4-15 7.6 0 11.2 3.5 9.6 11.3H44m25.9-22l-1.5 6.4h-8.3l1.5-6.5H70m-8.7 41.3H53l6.3-29.7h8.3l-6.3 29.7zm397.6-41.3l-1.4 6.5h-8.3l1.4-6.5h8.3m-8.8 41.3h-8.4l6.4-29.7h8.3l-6.3 29.7zM85.9 214.3c.6-2.9 1.7-7-2.3-7-3.8 0-4.7 4.5-5.3 7H86m-8.7 4.7c-.7 3.7-1.8 9 1.8 9 3 0 4.2-3 4.7-5.3h8.6a12.6 12.6 0 01-5 7.8 15 15 0 01-9.3 2.9c-10.7 0-10.7-6.6-8.7-16 1.8-8.1 4.3-15 15.4-15 11.2 0 10.8 7.3 8.5 16.9l-16-.2zm31.7-13.2a9.5 9.5 0 018-3.6c4 0 6.9 2.4 6 6.5l-5 24h-8.4l4.4-20.5c.5-2.7.5-4.7-2.2-4.7s-3.6 2-4.2 4.7l-4.3 20.4h-8.4L101 203h8.4l-.6 3m33 7.5c1-4.3.2-6-2.5-6-3.6 0-4.5 3.1-5.8 9.3-2 9-1.6 11 1.4 11 2.6 0 4.4-2.3 5.1-6.1h8.3c-1.6 8.1-6.8 11.5-14.6 11.5-10.7 0-10.7-6.5-8.7-15.9 1.8-8.1 4.3-15 15.4-15 7.6 0 11.2 3.5 9.6 11.2h-8.2m27.5 1c.5-3 1.6-7.1-2.4-7.1-3.8 0-4.7 4.5-5.2 7h7.6m-8.5 4.8c-.8 3.6-1.9 8.8 1.8 8.8 2.9 0 4.1-2.9 4.7-5.2h8.5a12.6 12.6 0 01-5 7.8 15 15 0 01-9.3 2.9c-10.7 0-10.7-6.6-8.7-16 1.8-8.1 4.3-15 15.4-15 11.2 0 10.8 7.3 8.5 16.9l-16-.3zm50.7-22.5c-3.3-.2-4.4 1-5 4l-.5 2.2h4l-1 5h-3.9l-5.2 24.7h-8.3l5.2-24.7h-3.6l1-5h3.9c1.6-7.5 3-11.6 12-11.6a14.7 14.7 0 012.9.1l-1.5 5.3m13.6 20.3c1.3-6.2 1.6-9.3-1.8-9.3-3.6 0-4.5 3.1-5.8 9.3-2 9-1.6 11 1.4 11s4.2-2 6.2-11m-16.1.5c1.8-8.1 4.3-15 15.4-15s10.6 7 8.8 15c-2 9.3-4.7 16-15.5 16-10.7-.2-10.7-6.7-8.7-16zm39-14.6l-.6 3.8h.1c2.2-3.5 5.3-4.4 8.7-4.4l-1.6 7.4c-7.2-.5-8.1 3.8-8.9 6.7l-3.4 16.2H234l6.3-29.7h7.8m25.2 20.6c-.4 2.2-.8 4.7 2 4.7 4.8 0 5.6-6.5 6.1-9.8-4.1 0-7-.3-8.1 5.1m14.5 3.6c-.4 1.8-.6 3.8-.8 5.6h-7.8l.6-4h-.2a10.3 10.3 0 01-8.7 4.6c-5.8 0-7-4.4-5.8-9.5 2.2-9.7 9.8-10.3 17.6-10.1l.5-2.4c.6-2.5.6-4.3-2.3-4.3s-3.6 2.2-4.2 4.5h-8.2c.8-3.6 2.4-6 4.6-7.2a14.7 14.7 0 018.1-2c10.5 0 10.9 4.5 9.8 10l-3.3 14.8zm32.9-13.6c1-4.3.2-6-2.5-6-3.6 0-4.6 3.1-5.8 9.2-2 9.1-1.6 11.1 1.4 11.1 2.6 0 4.4-2.4 5-6.2h8.4c-1.6 8.2-6.9 11.6-14.6 11.6-10.7 0-10.7-6.5-8.7-15.9 1.8-8.2 4.3-15 15.4-15 7.6 0 11.2 3.4 9.5 11.2h-8.1m45.6 10c-.5 2.2-.7 4.7 2 4.7 5 0 5.6-6.5 6.2-9.7-4.2 0-7-.4-8.2 5M381 227c-.4 1.8-.6 3.8-.8 5.6h-7.8l.6-4h-.2a10.3 10.3 0 01-8.7 4.6c-5.8 0-7-4.4-5.8-9.5 2.2-9.7 9.8-10.3 17.6-10.1l.5-2.4c.6-2.5.6-4.3-2.3-4.3s-3.7 2.2-4.2 4.5h-8.1c.7-3.6 2.3-6 4.5-7.2a14.7 14.7 0 018.1-2c10.5 0 10.9 4.5 9.8 10l-3.3 14.8zm18.2-21.2a9.5 9.5 0 018-3.6c4 0 7 2.4 6 6.5l-5 24h-8.4l4.4-20.6c.5-2.7.5-4.7-2.2-4.7s-3.6 2-4.1 4.7l-4.4 20.5h-8.3l6.3-29.7h8.3l-.5 3m26 21.1c3.1 0 4.2-3 5.5-9.4 1.4-6.5 1.8-10.3-1.3-10.3s-4.1 2.1-6 11.2c-.5 2.9-2.2 8.5 1.8 8.5m16.9-24l-6.5 31c-.4 2-2 10-13.4 10-6.2 0-11.3-1.6-9.8-8.8h8.1a5.9 5.9 0 000 3 2.7 2.7 0 002.6 1.3c2 0 3.4-2 4.1-4.8l1.3-5.8h-.4a8.6 8.6 0 01-7 3.4c-9 0-7-8.3-5.6-15 1.4-6.5 3.2-14.9 11.9-14.9 2.9 0 5.3 1.3 5.8 4h.2l.7-3.4zm27.9 2.8a9.5 9.5 0 018-3.6c4 0 6.8 2.4 6 6.5l-5.1 24h-8.4l4.4-20.5c.5-2.7.5-4.7-2.2-4.7s-3.6 2-4.2 4.7l-4.3 20.4h-8.3l6.3-29.7h8.3l-.5 3m26.2 21.1c3.1 0 4.2-3 5.5-9.4 1.4-6.5 1.8-10.3-1.1-10.3-3 0-4.2 2.1-6 11.2-.7 2.9-2.4 8.5 1.6 8.5m16.9-24l-6.6 31c-.3 2-2 10-13.4 10-6.1 0-11.2-1.6-9.7-8.8h8.1a5.9 5.9 0 000 3 2.7 2.7 0 002.6 1.3c2 0 3.4-2 4.1-4.8l1.3-5.8h-.2a8.6 8.6 0 01-7 3.4c-9.1 0-7-8.3-5.7-15 1.5-6.5 3.3-14.9 12-14.9 2.9 0 5.2 1.3 5.8 4h.2l.7-3.4zm13 0h8.3l-.7 22.4h.1l10-22.5h9l.1 22.5h.2l9-22.5h8L556 232.6h-8.7l-1-19.7h-.4l-10 19.7h-9l-.8-29.7m58 14c1.2-6.2 1.5-9.3-1.9-9.3-3.6 0-4.5 3.1-5.8 9.3-2 9-1.6 11 1.5 11s4.1-2 6.1-11m-16.1.5c1.8-8.1 4.3-15 15.4-15s10.7 6.9 8.9 15c-2 9.2-4.7 16-15.6 16s-10.7-6.8-8.7-16zm39.7-14.5l-1 3.8h.2c2.2-3.4 5.3-4.3 8.7-4.3l-1.6 7.4c-7.2-.5-8.1 3.8-8.9 6.7l-3.4 16.1h-8.3l6.3-29.7h8m-256.4-.7a9.2 9.2 0 00-7.8 3.6h-.2l3.1-14.5H338l-8.7 41.3h8.3l4.4-20.4c.5-2.8 1.4-4.7 4.1-4.7s2.7 2 2.2 4.7l-4.3 20.4h8.3l5-23.9c.8-4.1-2.1-6.5-6-6.5m270.2-10.9l-8.7 41.3h8.4l8.7-41.3h-8.4m22.1 26.1c-1.6 7.4-2.7 10.7-5.6 10.7-3 0-2.9-3-1.2-10.7 1.2-6 2-10.1 5.6-10.1 3.6.2 2.5 4.1 1.2 10.1m5.6-26l-3 14.3h-.2c-1-2.6-3-3.5-6-3.5-8.3 0-10.1 9.2-11.4 15.2-1.3 6.2-3.6 15.8 4.9 15.8a9.1 9.1 0 007.8-3.8h.1l-.7 3.2h8l8.7-41.3zM307.4.7v120.8c0 25.5-14.5 52.4-57.8 52.4-39.2 0-58-20.3-58-52.4V.8h35.7v118.5c0 21 9 29.3 22 29.3 15.5 0 22.7-10.5 22.7-29.3V.7h35.5m57.4 173.5c-43.7 0-51.8-25.7-50-54.9h35.3c0 16.1.7 29.7 20 29.7 12 0 17.8-7.8 17.8-19.2 0-30.4-71-32.2-71-82.4C317 21 329.7 0 372.6 0c34.4 0 51.4 15.4 49 50.7h-34.3c0-12.7-2.2-25.5-16.3-25.5-11.4 0-18.3 6.3-18.3 17.9 0 32 71 29.1 71 82.2 0 43.8-32 48.9-58.9 48.9m237 0c-43.6 0-51.8-25.7-50-54.9h35.3c0 16.1.8 29.7 20.1 29.7 12 0 17.8-7.8 17.8-19.2 0-30.4-71-32.2-71-82.4C554 21 566.7 0 609.6 0 644 0 661 15.4 658.7 50.7h-34.4c0-12.7-2.2-25.5-16.3-25.5-11.4 0-18.3 6.3-18.3 17.9 0 32 71 29.1 71 82.2 0 43.8-32 48.9-58.8 48.9m-112.3-65.5h20.8v37l-1.8.8a57 57 0 01-17.6 3.3c-20 0-25.2-9.5-25.2-62.2 0-32.7 0-62.2 22-62.2 17 0 20.6 11.5 21 25.5h35C544.2 18 523 .2 489.8.2c-57.7 0-59.7 43.3-59.7 85.6 0 64 6.9 88.8 66.3 88.8 13.7 0 35.6-3.1 45.8-5.8.5-.2 1.6-1 1.6-1.7V83.3h-54.2v25.4"/>
</svg>
